<?xml version="1.0" standalone="no"?>
<!DOCTYPE svg PUBLIC "-//W3C//DTD SVG 1.1//EN" "http://www.w3.org/Graphics/SVG/1.1/DTD/svg11.dtd" >
<svg xmlns="http://www.w3.org/2000/svg" xmlns:xlink="http://www.w3.org/1999/xlink" version="1.1">
<metadata>
Created by FontForge 20170910 at Tue Feb 27 14:35:32 2018
 By Jimmy Wärting
Copyright (c) 2015 by Nikita Prokopov
</metadata>
<defs>
<font id="FiraCode-Bold" horiz-adv-x="600" >
  <font-face 
    font-family="Fira Code"
    font-weight="700"
    font-stretch="normal"
    units-per-em="1000"
    panose-1="2 11 8 9 5 0 0 2 0 4"
    ascent="800"
    descent="-200"
    x-height="531"
    cap-height="693"
    bbox="-1801 -500 1192 1050"
    underline-thickness="50"
    underline-position="-100"
    unicode-range="U+000D-1F310"
  />
<missing-glyph 
d="M90 1050h420v-1400h-420v1400zM456 -298v1296h-311v-1296h311zM299.5 155.5q-7.5 -6.5 -17.5 -6.5t-17.5 6.5t-7.5 17.5v84q53 3 72 19.5t19 57.5q0 33 -13 51t-48 18q-29 0 -52 -11q-7 -3 -13 -3q-11 0 -17.5 6.5t-6.5 16.5q0 19 29.5 29t63.5 10q60 0 85.5 -32
t25.5 -83q0 -53 -22.5 -82t-72.5 -36v-45q0 -11 -7.5 -17.5zM257 110q10 10 25 10t25 -10t10 -25q0 -16 -10 -26.5t-25 -10.5t-25 10.5t-10 26.5q0 15 10 25z" />
    <glyph glyph-name=".notdef" 
d="M90 1050h420v-1400h-420v1400zM456 -298v1296h-311v-1296h311zM299.5 155.5q-7.5 -6.5 -17.5 -6.5t-17.5 6.5t-7.5 17.5v84q53 3 72 19.5t19 57.5q0 33 -13 51t-48 18q-29 0 -52 -11q-7 -3 -13 -3q-11 0 -17.5 6.5t-6.5 16.5q0 19 29.5 29t63.5 10q60 0 85.5 -32
t25.5 -83q0 -53 -22.5 -82t-72.5 -36v-45q0 -11 -7.5 -17.5zM257 110q10 10 25 10t25 -10t10 -25q0 -16 -10 -26.5t-25 -10.5t-25 10.5t-10 26.5q0 15 10 25z" />
    <glyph glyph-name="null" horiz-adv-x="0" 
 />
    <glyph glyph-name="nonmarkingreturn" unicode="&#xd;" 
 />
    <glyph glyph-name="space" unicode=" " 
 />
    <glyph glyph-name="A" unicode="A" 
d="M400 150h-203l-36 -150h-172l212 693h199l212 -693h-176zM223 268h150l-75 307z" />
    <glyph glyph-name="Aacute" unicode="&#xc1;" 
d="M400 150h-203l-36 -150h-172l212 693h199l212 -693h-176zM223 268h150l-75 307zM378 953l59 -118l-237 -84l-38 80z" />
    <glyph glyph-name="Abreve" unicode="&#x102;" 
d="M400 150h-203l-36 -150h-172l212 693h199l212 -693h-176zM223 268h150l-75 307zM179 793.5q-43 42.5 -51 111.5l87 16q10 -31 30 -45.5t55 -14.5t55 14.5t30 45.5l87 -16q-7 -68 -50.5 -111t-121.5 -43t-121 42.5z" />
    <glyph glyph-name="Acircumflex" unicode="&#xc2;" 
d="M400 150h-203l-36 -150h-172l212 693h199l212 -693h-176zM223 268h150l-75 307zM348 943l141 -130l-56 -65l-133 85l-133 -85l-57 65l142 130h96z" />
    <glyph glyph-name="Adieresis" unicode="&#xc4;" 
d="M400 150h-203l-36 -150h-172l212 693h199l212 -693h-176zM223 268h150l-75 307zM126 785.5q-24 23.5 -24 57.5q0 33 24 56t58 23q35 0 59 -23t24 -56q0 -34 -24 -57.5t-59 -23.5q-34 0 -58 23.5zM357.5 785.5q-24.5 23.5 -24.5 57.5q0 33 24.5 56t58.5 23t58 -23t24 -56
q0 -34 -23.5 -57.5t-58.5 -23.5q-34 0 -58.5 23.5z" />
    <glyph glyph-name="Agrave" unicode="&#xc0;" 
d="M400 150h-203l-36 -150h-172l212 693h199l212 -693h-176zM223 268h150l-75 307zM222 953l215 -122l-37 -80l-238 84z" />
    <glyph glyph-name="Amacron" unicode="&#x100;" 
d="M400 150h-203l-36 -150h-172l212 693h199l212 -693h-176zM223 268h150l-75 307zM453 783h-306v109h306v-109z" />
    <glyph glyph-name="Aogonek" unicode="&#x104;" 
d="M443 -49q-25 -27 -25 -61q0 -24 15.5 -36.5t42.5 -12.5q24 0 54 7l-12 -93q-29 -8 -59 -8q-66 0 -108.5 32.5t-42.5 90.5q0 55 31.5 90.5t91.5 61.5l-31 128h-203l-36 -150h-172l212 693h199l212 -693h-79q-65 -22 -90 -49zM223 268h150l-75 307z" />
    <glyph glyph-name="Aring" unicode="&#xc5;" 
d="M400 150h-203l-36 -150h-172l212 693h199l212 -693h-176zM223 268h150l-75 307zM400 952q38 -38 38 -93t-38.5 -94t-100.5 -39q-41 0 -72.5 18t-48.5 48.5t-17 66.5q0 54 38 92.5t100 38.5q63 0 101 -38zM267 895.5q-12 -12.5 -12 -36.5q0 -25 12 -38t32 -13q21 0 33 13
t12 38q0 24 -12 36.5t-33 12.5q-20 0 -32 -12.5z" />
    <glyph glyph-name="Atilde" unicode="&#xc3;" 
d="M400 150h-203l-36 -150h-172l212 693h199l212 -693h-176zM223 268h150l-75 307zM318 767q-16 7 -35 20q-25 18 -41 18q-18 0 -29 -10t-24 -34l-79 38q21 53 53.5 85.5t75.5 32.5q23 0 39.5 -7t35.5 -20q13 -9 22 -13.5t19 -4.5q16 0 27 10t25 33l79 -38q-21 -53 -54 -85
t-76 -32q-22 0 -38 7z" />
    <glyph glyph-name="AE" unicode="&#xc6;" 
d="M313 153h-140l-28 -153h-157l175 693h402l-17 -111h-182l33 -176h157v-110h-137l36 -185h148v-111h-265zM191 265h105l-51 318z" />
    <glyph glyph-name="AEacute" unicode="&#x1fc;" 
d="M313 153h-140l-28 -153h-157l175 693h402l-17 -111h-182l33 -176h157v-110h-137l36 -185h148v-111h-265zM191 265h105l-51 318zM428 953l59 -118l-237 -84l-38 80z" />
    <glyph glyph-name="B" unicode="B" 
d="M492.5 46q-78.5 -46 -206.5 -46h-230v693h220q119 0 192 -41.5t73 -135.5q0 -59 -36 -97t-91 -52q66 -11 111.5 -49.5t45.5 -114.5q0 -111 -78.5 -157zM350.5 558.5q-25.5 18.5 -80.5 18.5h-50v-161h56q52 0 76 19.5t24 63.5q0 41 -25.5 59.5zM372.5 284
q-29.5 22 -85.5 22h-67v-186h60q57 0 89.5 19t32.5 71t-29.5 74z" />
    <glyph glyph-name="C" unicode="C" 
d="M482 692q52 -19 98 -57l-80 -97q-63 51 -138 51q-71 0 -114.5 -60t-43.5 -181t43 -179.5t118 -58.5q46 0 79 16t71 46l74 -95q-92 -94 -233 -94q-95 0 -167.5 42t-113.5 124.5t-41 198.5q0 113 42 195t116 125t166 43q72 0 124 -19z" />
    <glyph glyph-name="Cacute" unicode="&#x106;" 
d="M482 692q52 -19 98 -57l-80 -97q-63 51 -138 51q-71 0 -114.5 -60t-43.5 -181t43 -179.5t118 -58.5q46 0 79 16t71 46l74 -95q-92 -94 -233 -94q-95 0 -167.5 42t-113.5 124.5t-41 198.5q0 113 42 195t116 125t166 43q72 0 124 -19zM439 953l59 -118l-237 -84l-38 80z
" />
    <glyph glyph-name="Ccaron" unicode="&#x10c;" 
d="M482 692q52 -19 98 -57l-80 -97q-63 51 -138 51q-71 0 -114.5 -60t-43.5 -181t43 -179.5t118 -58.5q46 0 79 16t71 46l74 -95q-92 -94 -233 -94q-95 0 -167.5 42t-113.5 124.5t-41 198.5q0 113 42 195t116 125t166 43q72 0 124 -19zM494 946l56 -65l-141 -130h-96
l-142 130l57 65l133 -85z" />
    <glyph glyph-name="Ccedilla" unicode="&#xc7;" 
d="M382 -16v-32q51 -6 77 -32t26 -67q0 -51 -41 -83t-108 -32q-34 0 -64.5 8.5t-52.5 21.5l36 73q34 -17 64 -17q53 0 53 31q0 19 -22 26t-70 7l11 100q-118 21 -187.5 114t-69.5 246q0 113 42 195t116 125t166 43q72 0 124 -19t98 -57l-80 -97q-63 51 -138 51
q-71 0 -114.5 -60t-43.5 -181t43 -179.5t118 -58.5q46 0 79 16t71 46l74 -95q-83 -85 -207 -93z" />
    <glyph glyph-name="Ccircumflex" unicode="&#x108;" 
d="M482 692q52 -19 98 -57l-80 -97q-63 51 -138 51q-71 0 -114.5 -60t-43.5 -181t43 -179.5t118 -58.5q46 0 79 16t71 46l74 -95q-92 -94 -233 -94q-95 0 -167.5 42t-113.5 124.5t-41 198.5q0 113 42 195t116 125t166 43q72 0 124 -19zM409 943l141 -130l-56 -65l-133 85
l-133 -85l-57 65l142 130h96z" />
    <glyph glyph-name="Cdotaccent" unicode="&#x10a;" 
d="M482 692q52 -19 98 -57l-80 -97q-63 51 -138 51q-71 0 -114.5 -60t-43.5 -181t43 -179.5t118 -58.5q46 0 79 16t71 46l74 -95q-92 -94 -233 -94q-95 0 -167.5 42t-113.5 124.5t-41 198.5q0 113 42 195t116 125t166 43q72 0 124 -19zM428 908.5q26 -25.5 26 -63.5
q0 -39 -26 -64t-67 -25t-67.5 25.5t-26.5 63.5t26.5 63.5t67.5 25.5t67 -25.5z" />
    <glyph glyph-name="D" unicode="D" 
d="M239 0h-187v693h175q157 0 252 -73.5t95 -269.5q0 -350 -335 -350zM365 526.5q-40 47.5 -114 47.5h-35v-455h35q75 0 114.5 51.5t39.5 179.5q0 129 -40 176.5z" />
    <glyph glyph-name="Eth" unicode="&#xd0;" 
d="M492 619.5q95 -73.5 95 -269.5q0 -350 -335 -350h-187v303h-56v100h56v290h175q157 0 252 -73.5zM378.5 170.5q39.5 51.5 39.5 179.5q0 129 -40 176.5t-114 47.5h-35v-171h120v-100h-120v-184h35q75 0 114.5 51.5z" />
    <glyph glyph-name="Dcaron" unicode="&#x10e;" 
d="M239 0h-187v693h175q157 0 252 -73.5t95 -269.5q0 -350 -335 -350zM365 526.5q-40 47.5 -114 47.5h-35v-455h35q75 0 114.5 51.5t39.5 179.5q0 129 -40 176.5zM420 946l56 -65l-141 -130h-96l-142 130l57 65l133 -85z" />
    <glyph glyph-name="Dcroat" unicode="&#x110;" 
d="M492 619.5q95 -73.5 95 -269.5q0 -350 -335 -350h-187v303h-56v100h56v290h175q157 0 252 -73.5zM378.5 170.5q39.5 51.5 39.5 179.5q0 129 -40 176.5t-114 47.5h-35v-171h120v-100h-120v-184h35q75 0 114.5 51.5z" />
    <glyph glyph-name="E" unicode="E" 
d="M257 576v-167h240v-114h-240v-177h289v-118h-453v693h453l-17 -117h-272z" />
    <glyph glyph-name="Eacute" unicode="&#xc9;" 
d="M257 576v-167h240v-114h-240v-177h289v-118h-453v693h453l-17 -117h-272zM398 953l59 -118l-237 -84l-38 80z" />
    <glyph glyph-name="Ebreve" unicode="&#x114;" 
d="M257 576v-167h240v-114h-240v-177h289v-118h-453v693h453l-17 -117h-272zM199 793.5q-43 42.5 -51 111.5l87 16q10 -31 30 -45.5t55 -14.5t55 14.5t30 45.5l87 -16q-7 -68 -50.5 -111t-121.5 -43t-121 42.5z" />
    <glyph glyph-name="Ecaron" unicode="&#x11a;" 
d="M257 576v-167h240v-114h-240v-177h289v-118h-453v693h453l-17 -117h-272zM453 946l56 -65l-141 -130h-96l-142 130l57 65l133 -85z" />
    <glyph glyph-name="Ecircumflex" unicode="&#xca;" 
d="M257 576v-167h240v-114h-240v-177h289v-118h-453v693h453l-17 -117h-272zM368 943l141 -130l-56 -65l-133 85l-133 -85l-57 65l142 130h96z" />
    <glyph glyph-name="Edieresis" unicode="&#xcb;" 
d="M257 576v-167h240v-114h-240v-177h289v-118h-453v693h453l-17 -117h-272zM146 785.5q-24 23.5 -24 57.5q0 33 24 56t58 23q35 0 59 -23t24 -56q0 -34 -24 -57.5t-59 -23.5q-34 0 -58 23.5zM377.5 785.5q-24.5 23.5 -24.5 57.5q0 33 24.5 56t58.5 23t58 -23t24 -56
q0 -34 -23.5 -57.5t-58.5 -23.5q-34 0 -58.5 23.5z" />
    <glyph glyph-name="Edotaccent" unicode="&#x116;" 
d="M257 576v-167h240v-114h-240v-177h289v-118h-453v693h453l-17 -117h-272zM387 908.5q26 -25.5 26 -63.5q0 -39 -26 -64t-67 -25t-67.5 25.5t-26.5 63.5t26.5 63.5t67.5 25.5t67 -25.5z" />
    <glyph glyph-name="Egrave" unicode="&#xc8;" 
d="M257 576v-167h240v-114h-240v-177h289v-118h-453v693h453l-17 -117h-272zM242 953l215 -122l-37 -80l-238 84z" />
    <glyph glyph-name="Emacron" unicode="&#x112;" 
d="M257 576v-167h240v-114h-240v-177h289v-118h-453v693h453l-17 -117h-272zM473 783h-306v109h306v-109z" />
    <glyph glyph-name="Eogonek" unicode="&#x118;" 
d="M257 118h289v-118h-79q-65 -22 -90 -49t-25 -61q0 -24 15.5 -36.5t42.5 -12.5q24 0 54 7l-12 -93q-29 -8 -59 -8q-66 0 -108.5 32.5t-42.5 90.5q0 83 80 130h-229v693h453l-17 -117h-272v-167h240v-114h-240v-177z" />
    <glyph glyph-name="F" unicode="F" 
d="M273 576v-183h242v-118h-242v-275h-165v693h455l-16 -117h-274z" />
    <glyph glyph-name="G" unicode="G" 
d="M100.5 76.5q-77.5 93.5 -77.5 271.5q0 115 42 197t115.5 124t164.5 42q71 0 123.5 -22.5t96.5 -63.5l-86 -89q-33 29 -61.5 42t-64.5 13q-75 0 -118 -59.5t-43 -184.5q0 -134 32 -189t103 -55q47 0 86 21v159h-87l-16 114h258v-344q-114 -70 -242 -70q-148 0 -225.5 93.5
z" />
    <glyph glyph-name="Gbreve" unicode="&#x11e;" 
d="M100.5 76.5q-77.5 93.5 -77.5 271.5q0 115 42 197t115.5 124t164.5 42q71 0 123.5 -22.5t96.5 -63.5l-86 -89q-33 29 -61.5 42t-64.5 13q-75 0 -118 -59.5t-43 -184.5q0 -134 32 -189t103 -55q47 0 86 21v159h-87l-16 114h258v-344q-114 -70 -242 -70q-148 0 -225.5 93.5
zM209 793.5q-43 42.5 -51 111.5l87 16q10 -31 30 -45.5t55 -14.5t55 14.5t30 45.5l87 -16q-7 -68 -50.5 -111t-121.5 -43t-121 42.5z" />
    <glyph glyph-name="Gcircumflex" unicode="&#x11c;" 
d="M100.5 76.5q-77.5 93.5 -77.5 271.5q0 115 42 197t115.5 124t164.5 42q71 0 123.5 -22.5t96.5 -63.5l-86 -89q-33 29 -61.5 42t-64.5 13q-75 0 -118 -59.5t-43 -184.5q0 -134 32 -189t103 -55q47 0 86 21v159h-87l-16 114h258v-344q-114 -70 -242 -70q-148 0 -225.5 93.5
zM378 943l141 -130l-56 -65l-133 85l-133 -85l-57 65l142 130h96z" />
    <glyph glyph-name="Gcommaaccent" unicode="&#x122;" 
d="M100.5 76.5q-77.5 93.5 -77.5 271.5q0 115 42 197t115.5 124t164.5 42q71 0 123.5 -22.5t96.5 -63.5l-86 -89q-33 29 -61.5 42t-64.5 13q-75 0 -118 -59.5t-43 -184.5q0 -134 32 -189t103 -55q47 0 86 21v159h-87l-16 114h258v-344q-114 -70 -242 -70q-148 0 -225.5 93.5
zM383 -87q22 -22 22 -56q0 -36 -23 -82l-49 -97h-80l27 115q-32 27 -32 64q0 33 22.5 55.5t56.5 22.5t56 -22z" />
    <glyph glyph-name="Gdotaccent" unicode="&#x120;" 
d="M100.5 76.5q-77.5 93.5 -77.5 271.5q0 115 42 197t115.5 124t164.5 42q71 0 123.5 -22.5t96.5 -63.5l-86 -89q-33 29 -61.5 42t-64.5 13q-75 0 -118 -59.5t-43 -184.5q0 -134 32 -189t103 -55q47 0 86 21v159h-87l-16 114h258v-344q-114 -70 -242 -70q-148 0 -225.5 93.5
zM397 908.5q26 -25.5 26 -63.5q0 -39 -26 -64t-67 -25t-67.5 25.5t-26.5 63.5t26.5 63.5t67.5 25.5t67 -25.5z" />
    <glyph glyph-name="H" unicode="H" 
d="M384 0v292h-168v-292h-164v693h164v-266h168v266h164v-693h-164z" />
    <glyph glyph-name="Hbar" unicode="&#x126;" 
d="M598 592v-92h-55v-500h-164v297h-158v-297h-164v500h-55v92h55v101h164v-101h158v101h164v-101h55zM379 424v76h-158v-76h158z" />
    <glyph glyph-name="Hcircumflex" unicode="&#x124;" 
d="M384 0v292h-168v-292h-164v693h164v-266h168v266h164v-693h-164zM348 943l141 -130l-56 -65l-133 85l-133 -85l-57 65l142 130h96z" />
    <glyph glyph-name="I" unicode="I" 
d="M525 693v-120h-143v-452h143v-121h-450v121h143v452h-143v120h450z" />
    <glyph glyph-name="IJ" unicode="&#x132;" 
d="M318 -27q47 29 63.5 73.5t16.5 117.5v428h-166v-490h53v-102h-277v102h73v490h-73v101h548v-523q0 -147 -82.5 -234.5t-273.5 -118.5l-19 111q90 16 137 45z" />
    <glyph glyph-name="Iacute" unicode="&#xcd;" 
d="M525 693v-120h-143v-452h143v-121h-450v121h143v452h-143v120h450zM378 953l59 -118l-237 -84l-38 80z" />
    <glyph glyph-name="Ibreve" unicode="&#x12c;" 
d="M525 693v-120h-143v-452h143v-121h-450v121h143v452h-143v120h450zM179 793.5q-43 42.5 -51 111.5l87 16q10 -31 30 -45.5t55 -14.5t55 14.5t30 45.5l87 -16q-7 -68 -50.5 -111t-121.5 -43t-121 42.5z" />
    <glyph glyph-name="Icircumflex" unicode="&#xce;" 
d="M525 693v-120h-143v-452h143v-121h-450v121h143v452h-143v120h450zM348 943l141 -130l-56 -65l-133 85l-133 -85l-57 65l142 130h96z" />
    <glyph glyph-name="Idieresis" unicode="&#xcf;" 
d="M525 693v-120h-143v-452h143v-121h-450v121h143v452h-143v120h450zM126 785.5q-24 23.5 -24 57.5q0 33 24 56t58 23q35 0 59 -23t24 -56q0 -34 -24 -57.5t-59 -23.5q-34 0 -58 23.5zM357.5 785.5q-24.5 23.5 -24.5 57.5q0 33 24.5 56t58.5 23t58 -23t24 -56
q0 -34 -23.5 -57.5t-58.5 -23.5q-34 0 -58.5 23.5z" />
    <glyph glyph-name="Idotaccent" unicode="&#x130;" 
d="M525 693v-120h-143v-452h143v-121h-450v121h143v452h-143v120h450zM367 908.5q26 -25.5 26 -63.5q0 -39 -26 -64t-67 -25t-67.5 25.5t-26.5 63.5t26.5 63.5t67.5 25.5t67 -25.5z" />
    <glyph glyph-name="Igrave" unicode="&#xcc;" 
d="M525 693v-120h-143v-452h143v-121h-450v121h143v452h-143v120h450zM222 953l215 -122l-37 -80l-238 84z" />
    <glyph glyph-name="Imacron" unicode="&#x12a;" 
d="M525 693v-120h-143v-452h143v-121h-450v121h143v452h-143v120h450zM453 783h-306v109h306v-109z" />
    <glyph glyph-name="Iogonek" unicode="&#x12e;" 
d="M382 573v-452h143v-121h-143q-65 -22 -90 -49t-25 -61q0 -24 15.5 -36.5t42.5 -12.5q24 0 54 7l-12 -93q-29 -8 -59 -8q-66 0 -108.5 32.5t-42.5 90.5q0 83 80 130h-162v121h143v452h-143v120h450v-120h-143z" />
    <glyph glyph-name="Itilde" unicode="&#x128;" 
d="M525 693v-120h-143v-452h143v-121h-450v121h143v452h-143v120h450zM318 767q-16 7 -35 20q-25 18 -41 18q-18 0 -29 -10t-24 -34l-79 38q21 53 53.5 85.5t75.5 32.5q23 0 39.5 -7t35.5 -20q13 -9 22 -13.5t19 -4.5q16 0 27 10t25 33l79 -38q-21 -53 -54 -85t-76 -32
q-22 0 -38 7z" />
    <glyph glyph-name="J" unicode="J" 
d="M527 249q0 -122 -73.5 -193t-205.5 -71q-64 0 -112.5 16t-96.5 49l62 101q36 -24 67 -34t71 -10q55 0 89.5 35.5t34.5 105.5v325h-212v120h376v-444z" />
    <glyph glyph-name="Jcircumflex" unicode="&#x134;" 
d="M527 249q0 -122 -73.5 -193t-205.5 -71q-64 0 -112.5 16t-96.5 49l62 101q36 -24 67 -34t71 -10q55 0 89.5 35.5t34.5 105.5v325h-212v120h376v-444zM400 943l141 -130l-56 -65l-133 85l-133 -85l-57 65l142 130h96z" />
    <glyph glyph-name="K" unicode="K" 
d="M223 0h-164v693h164v-693zM228 370l189 323h172l-196 -311l215 -382h-189z" />
    <glyph glyph-name="Kcommaaccent" unicode="&#x136;" 
d="M223 0h-164v693h164v-693zM228 370l189 323h172l-196 -311l215 -382h-189zM358 -87q22 -22 22 -56q0 -36 -23 -82l-49 -97h-80l27 115q-32 27 -32 64q0 33 22.5 55.5t56.5 22.5t56 -22z" />
    <glyph glyph-name="L" unicode="L" 
d="M93 0v693h164v-563h300l-16 -130h-448z" />
    <glyph glyph-name="Lacute" unicode="&#x139;" 
d="M93 0v693h164v-563h300l-16 -130h-448zM253 953l59 -118l-237 -84l-38 80z" />
    <glyph glyph-name="Lcaron" unicode="&#x13d;" 
d="M93 0v693h164v-563h300l-16 -130h-448zM349 715l139 -17l-78 -232l-98 16z" />
    <glyph glyph-name="Lcommaaccent" unicode="&#x13b;" 
d="M93 0v693h164v-563h300l-16 -130h-448zM374 -87q22 -22 22 -56q0 -36 -23 -82l-49 -97h-80l27 115q-32 27 -32 64q0 33 22.5 55.5t56.5 22.5t56 -22z" />
    <glyph glyph-name="Ldot" unicode="&#x13f;" 
d="M93 0v693h164v-563h300l-16 -130h-448zM533 448.5q26 -25.5 26 -63.5q0 -39 -26 -64t-67 -25t-67.5 25.5t-26.5 63.5t26.5 63.5t67.5 25.5t67 -25.5z" />
    <glyph glyph-name="Lslash" unicode="&#x141;" 
d="M272 130h300l-16 -130h-448v230l-46 -29l-53 87l99 61v344h164v-243l124 77l54 -85l-178 -111v-201z" />
    <glyph glyph-name="M" unicode="M" 
d="M583 0h-144l-8 297q-1 22 -1 60q0 50 3 97.5t7 99.5l-78 -436h-124l-85 436q11 -115 11 -207l-1 -53l-5 -294h-141l39 693h169l77 -448l73 448h169z" />
    <glyph glyph-name="N" unicode="N" 
d="M167 557q10 -76 17 -146.5t7 -149.5v-261h-139v693h205l176 -555q-24 154 -24 290v265h139v-693h-199z" />
    <glyph glyph-name="Nacute" unicode="&#x143;" 
d="M167 557q10 -76 17 -146.5t7 -149.5v-261h-139v693h205l176 -555q-24 154 -24 290v265h139v-693h-199zM388 953l59 -118l-237 -84l-38 80z" />
    <glyph glyph-name="Ncaron" unicode="&#x147;" 
d="M167 557q10 -76 17 -146.5t7 -149.5v-261h-139v693h205l176 -555q-24 154 -24 290v265h139v-693h-199zM443 946l56 -65l-141 -130h-96l-142 130l57 65l133 -85z" />
    <glyph glyph-name="Ncommaaccent" unicode="&#x145;" 
d="M167 557q10 -76 17 -146.5t7 -149.5v-261h-139v693h205l176 -555q-24 154 -24 290v265h139v-693h-199zM357 -87q22 -22 22 -56q0 -36 -23 -82l-49 -97h-80l27 115q-32 27 -32 64q0 33 22.5 55.5t56.5 22.5t56 -22z" />
    <glyph glyph-name="Eng" unicode="&#x14a;" 
d="M548 693v-720q0 -97 -52.5 -149t-147.5 -52q-43 0 -75 11.5t-61 33.5l60 92q20 -9 31.5 -13t28.5 -4q26 0 39 15.5t13 51.5v41h-35l-182 557q10 -76 17 -146.5t7 -149.5v-261h-139v693h205l176 -555q-24 154 -24 290v265h139z" />
    <glyph glyph-name="Ntilde" unicode="&#xd1;" 
d="M167 557q10 -76 17 -146.5t7 -149.5v-261h-139v693h205l176 -555q-24 154 -24 290v265h139v-693h-199zM328 767q-16 7 -35 20q-25 18 -41 18q-18 0 -29 -10t-24 -34l-79 38q21 53 53.5 85.5t75.5 32.5q23 0 39.5 -7t35.5 -20q13 -9 22 -13.5t19 -4.5q16 0 27 10t25 33
l79 -38q-21 -53 -54 -85t-76 -32q-22 0 -38 7z" />
    <glyph glyph-name="O" unicode="O" 
d="M505.5 80.5q-71.5 -97.5 -205.5 -97.5q-135 0 -206 96.5t-71 267.5q0 169 71.5 266.5t205.5 97.5q135 0 206 -96.5t71 -267.5q0 -169 -71.5 -266.5zM383.5 533q-25.5 58 -83.5 58t-83.5 -58t-25.5 -186t25.5 -186t83.5 -58q59 0 84 58t25 186t-25.5 186z" />
    <glyph glyph-name="Oacute" unicode="&#xd3;" 
d="M505.5 80.5q-71.5 -97.5 -205.5 -97.5q-135 0 -206 96.5t-71 267.5q0 169 71.5 266.5t205.5 97.5q135 0 206 -96.5t71 -267.5q0 -169 -71.5 -266.5zM383.5 533q-25.5 58 -83.5 58t-83.5 -58t-25.5 -186t25.5 -186t83.5 -58q59 0 84 58t25 186t-25.5 186zM378 953l59 -118
l-237 -84l-38 80z" />
    <glyph glyph-name="Obreve" unicode="&#x14e;" 
d="M505.5 80.5q-71.5 -97.5 -205.5 -97.5q-135 0 -206 96.5t-71 267.5q0 169 71.5 266.5t205.5 97.5q135 0 206 -96.5t71 -267.5q0 -169 -71.5 -266.5zM383.5 533q-25.5 58 -83.5 58t-83.5 -58t-25.5 -186t25.5 -186t83.5 -58q59 0 84 58t25 186t-25.5 186zM179 793.5
q-43 42.5 -51 111.5l87 16q10 -31 30 -45.5t55 -14.5t55 14.5t30 45.5l87 -16q-7 -68 -50.5 -111t-121.5 -43t-121 42.5z" />
    <glyph glyph-name="Ocircumflex" unicode="&#xd4;" 
d="M505.5 80.5q-71.5 -97.5 -205.5 -97.5q-135 0 -206 96.5t-71 267.5q0 169 71.5 266.5t205.5 97.5q135 0 206 -96.5t71 -267.5q0 -169 -71.5 -266.5zM383.5 533q-25.5 58 -83.5 58t-83.5 -58t-25.5 -186t25.5 -186t83.5 -58q59 0 84 58t25 186t-25.5 186zM348 943
l141 -130l-56 -65l-133 85l-133 -85l-57 65l142 130h96z" />
    <glyph glyph-name="Odieresis" unicode="&#xd6;" 
d="M505.5 80.5q-71.5 -97.5 -205.5 -97.5q-135 0 -206 96.5t-71 267.5q0 169 71.5 266.5t205.5 97.5q135 0 206 -96.5t71 -267.5q0 -169 -71.5 -266.5zM383.5 533q-25.5 58 -83.5 58t-83.5 -58t-25.5 -186t25.5 -186t83.5 -58q59 0 84 58t25 186t-25.5 186zM126 785.5
q-24 23.5 -24 57.5q0 33 24 56t58 23q35 0 59 -23t24 -56q0 -34 -24 -57.5t-59 -23.5q-34 0 -58 23.5zM357.5 785.5q-24.5 23.5 -24.5 57.5q0 33 24.5 56t58.5 23t58 -23t24 -56q0 -34 -23.5 -57.5t-58.5 -23.5q-34 0 -58.5 23.5z" />
    <glyph glyph-name="Ograve" unicode="&#xd2;" 
d="M505.5 80.5q-71.5 -97.5 -205.5 -97.5q-135 0 -206 96.5t-71 267.5q0 169 71.5 266.5t205.5 97.5q135 0 206 -96.5t71 -267.5q0 -169 -71.5 -266.5zM383.5 533q-25.5 58 -83.5 58t-83.5 -58t-25.5 -186t25.5 -186t83.5 -58q59 0 84 58t25 186t-25.5 186zM222 953
l215 -122l-37 -80l-238 84z" />
    <glyph glyph-name="Ohungarumlaut" unicode="&#x150;" 
d="M505.5 80.5q-71.5 -97.5 -205.5 -97.5q-135 0 -206 96.5t-71 267.5q0 169 71.5 266.5t205.5 97.5q135 0 206 -96.5t71 -267.5q0 -169 -71.5 -266.5zM383.5 533q-25.5 58 -83.5 58t-83.5 -58t-25.5 -186t25.5 -186t83.5 -58q59 0 84 58t25 186t-25.5 186zM159 786l99 196
l107 -49l-124 -183zM322 788l100 194l106 -51l-125 -182z" />
    <glyph glyph-name="Omacron" unicode="&#x14c;" 
d="M505.5 80.5q-71.5 -97.5 -205.5 -97.5q-135 0 -206 96.5t-71 267.5q0 169 71.5 266.5t205.5 97.5q135 0 206 -96.5t71 -267.5q0 -169 -71.5 -266.5zM383.5 533q-25.5 58 -83.5 58t-83.5 -58t-25.5 -186t25.5 -186t83.5 -58q59 0 84 58t25 186t-25.5 186zM453 783h-306
v109h306v-109z" />
    <glyph glyph-name="Oslash" unicode="&#xd8;" 
d="M545.5 535.5q31.5 -80.5 31.5 -188.5q0 -169 -71.5 -266.5t-205.5 -97.5q-24 0 -52 5l-28 -97l-111 33l34 110q-58 45 -89 125.5t-31 187.5q0 169 71.5 266.5t205.5 97.5q30 0 51 -4l29 96l111 -33l-35 -109q58 -45 89.5 -125.5zM212 535.5q-27 -58.5 -27 -188.5
q0 -123 23 -181l124 424q-13 4 -32 4q-61 0 -88 -58.5zM388.5 158.5q26.5 58.5 26.5 188.5q0 120 -22 179l-123 -422q12 -4 30 -4q62 0 88.5 58.5z" />
    <glyph glyph-name="Oslashacute" unicode="&#x1fe;" 
d="M545.5 535.5q31.5 -80.5 31.5 -188.5q0 -169 -71.5 -266.5t-205.5 -97.5q-24 0 -52 5l-28 -97l-111 33l34 110q-58 45 -89 125.5t-31 187.5q0 169 71.5 266.5t205.5 97.5q30 0 51 -4l29 96l111 -33l-35 -109q58 -45 89.5 -125.5zM212 535.5q-27 -58.5 -27 -188.5
q0 -123 23 -181l124 424q-13 4 -32 4q-61 0 -88 -58.5zM388.5 158.5q26.5 58.5 26.5 188.5q0 120 -22 179l-123 -422q12 -4 30 -4q62 0 88.5 58.5zM378 953l59 -118l-237 -84l-38 80z" />
    <glyph glyph-name="Otilde" unicode="&#xd5;" 
d="M505.5 80.5q-71.5 -97.5 -205.5 -97.5q-135 0 -206 96.5t-71 267.5q0 169 71.5 266.5t205.5 97.5q135 0 206 -96.5t71 -267.5q0 -169 -71.5 -266.5zM383.5 533q-25.5 58 -83.5 58t-83.5 -58t-25.5 -186t25.5 -186t83.5 -58q59 0 84 58t25 186t-25.5 186zM318 767
q-16 7 -35 20q-25 18 -41 18q-18 0 -29 -10t-24 -34l-79 38q21 53 53.5 85.5t75.5 32.5q23 0 39.5 -7t35.5 -20q13 -9 22 -13.5t19 -4.5q16 0 27 10t25 33l79 -38q-21 -53 -54 -85t-76 -32q-22 0 -38 7z" />
    <glyph glyph-name="OE" unicode="&#x152;" 
d="M271 706.5q21 -4.5 49 -13.5h276l-16 -111h-182q33 -66 39 -176h121v-110h-120q-6 -111 -45 -185h204v-111h-281q-28 -9 -47.5 -13t-43.5 -4q-112 0 -163.5 92.5t-51.5 271.5q0 364 215 364q25 0 46 -4.5zM179.5 574q-16.5 -25 -23.5 -79t-7 -148q0 -137 17.5 -195
t59.5 -58q43 0 60.5 57.5t17.5 195.5q0 96 -7 150t-24 78t-47 24t-46.5 -25z" />
    <glyph glyph-name="P" unicode="P" 
d="M502.5 290.5q-73.5 -59.5 -200.5 -59.5h-76v-231h-164v693h218q144 0 220 -56.5t76 -169.5q0 -117 -73.5 -176.5zM283 576h-57v-227h65q56 0 86.5 29t30.5 89q0 109 -125 109z" />
    <glyph glyph-name="Thorn" unicode="&#xde;" 
d="M224 581h55q143 0 220 -57t77 -170q0 -120 -71.5 -179t-203.5 -59h-77v-116h-165v693h165v-112zM224 464v-229h66q57 0 86.5 27.5t29.5 90.5q0 57 -30.5 84t-91.5 27h-60z" />
    <glyph glyph-name="Q" unicode="Q" 
d="M429 40q84 -14 130.5 -50t74.5 -117l-134 -46q-24 57 -49 90.5t-63.5 51t-97.5 17.5q-128 0 -193 94.5t-65 266.5q0 170 69 267t202 97q134 0 202.5 -96t68.5 -268q0 -233 -145 -307zM395 487.5q-9 52.5 -31 77.5t-61 25t-61 -25.5t-31 -78t-9 -139.5q0 -130 22.5 -187
t78.5 -57q40 0 61.5 25.5t30.5 78t9 140.5t-9 140.5z" />
    <glyph glyph-name="R" unicode="R" 
d="M523.5 364.5q-37.5 -47.5 -100.5 -72.5l181 -292h-186l-150 265h-46v-265h-164v693h218q143 0 214 -52t71 -159q0 -70 -37.5 -117.5zM363.5 555q-28.5 23 -87.5 23h-54v-200h61q54 0 81.5 25t27.5 79q0 50 -28.5 73z" />
    <glyph glyph-name="Racute" unicode="&#x154;" 
d="M523.5 364.5q-37.5 -47.5 -100.5 -72.5l181 -292h-186l-150 265h-46v-265h-164v693h218q143 0 214 -52t71 -159q0 -70 -37.5 -117.5zM363.5 555q-28.5 23 -87.5 23h-54v-200h61q54 0 81.5 25t27.5 79q0 50 -28.5 73zM378 953l59 -118l-237 -84l-38 80z" />
    <glyph glyph-name="Rcaron" unicode="&#x158;" 
d="M523.5 364.5q-37.5 -47.5 -100.5 -72.5l181 -292h-186l-150 265h-46v-265h-164v693h218q143 0 214 -52t71 -159q0 -70 -37.5 -117.5zM363.5 555q-28.5 23 -87.5 23h-54v-200h61q54 0 81.5 25t27.5 79q0 50 -28.5 73zM433 946l56 -65l-141 -130h-96l-142 130l57 65
l133 -85z" />
    <glyph glyph-name="Rcommaaccent" unicode="&#x156;" 
d="M523.5 364.5q-37.5 -47.5 -100.5 -72.5l181 -292h-186l-150 265h-46v-265h-164v693h218q143 0 214 -52t71 -159q0 -70 -37.5 -117.5zM363.5 555q-28.5 23 -87.5 23h-54v-200h61q54 0 81.5 25t27.5 79q0 50 -28.5 73zM367 -87q22 -22 22 -56q0 -36 -23 -82l-49 -97h-80
l27 115q-32 27 -32 64q0 33 22.5 55.5t56.5 22.5t56 -22z" />
    <glyph glyph-name="S" unicode="S" 
d="M534 88q-34 -50 -97.5 -77.5t-150.5 -27.5q-172 0 -274 100l83 92q79 -70 187 -70q52 0 83.5 22.5t31.5 62.5q0 38 -26.5 59.5t-98.5 43.5q-122 37 -173 87t-51 129q0 62 34.5 108t94 70t132.5 24q153 0 248 -90l-77 -89q-35 29 -75.5 43.5t-83.5 14.5q-48 0 -75.5 -17.5
t-27.5 -50.5q0 -22 12.5 -37t41.5 -28t87 -31q106 -32 157.5 -82.5t51.5 -140.5q0 -65 -34 -115z" />
    <glyph glyph-name="Sacute" unicode="&#x15a;" 
d="M534 88q-34 -50 -97.5 -77.5t-150.5 -27.5q-172 0 -274 100l83 92q79 -70 187 -70q52 0 83.5 22.5t31.5 62.5q0 38 -26.5 59.5t-98.5 43.5q-122 37 -173 87t-51 129q0 62 34.5 108t94 70t132.5 24q153 0 248 -90l-77 -89q-35 29 -75.5 43.5t-83.5 14.5q-48 0 -75.5 -17.5
t-27.5 -50.5q0 -22 12.5 -37t41.5 -28t87 -31q106 -32 157.5 -82.5t51.5 -140.5q0 -65 -34 -115zM388 953l59 -118l-237 -84l-38 80z" />
    <glyph glyph-name="Scaron" unicode="&#x160;" 
d="M534 88q-34 -50 -97.5 -77.5t-150.5 -27.5q-172 0 -274 100l83 92q79 -70 187 -70q52 0 83.5 22.5t31.5 62.5q0 38 -26.5 59.5t-98.5 43.5q-122 37 -173 87t-51 129q0 62 34.5 108t94 70t132.5 24q153 0 248 -90l-77 -89q-35 29 -75.5 43.5t-83.5 14.5q-48 0 -75.5 -17.5
t-27.5 -50.5q0 -22 12.5 -37t41.5 -28t87 -31q106 -32 157.5 -82.5t51.5 -140.5q0 -65 -34 -115zM443 946l56 -65l-141 -130h-96l-142 130l57 65l133 -85z" />
    <glyph glyph-name="Scedilla" unicode="&#x15e;" 
d="M505 54q-63 -59 -175 -69v-33q51 -6 77 -32t26 -67q0 -51 -41 -83t-108 -32q-34 0 -64.5 8.5t-52.5 21.5l36 73q34 -17 64 -17q53 0 53 31q0 19 -22 26t-70 7l11 97q-139 12 -227 98l83 92q79 -70 187 -70q52 0 83.5 22.5t31.5 62.5q0 38 -26.5 59.5t-98.5 43.5
q-122 37 -173 87t-51 129q0 62 34.5 108t94 70t132.5 24q153 0 248 -90l-77 -89q-35 29 -75.5 43.5t-83.5 14.5q-48 0 -75.5 -17.5t-27.5 -50.5q0 -22 12.5 -37t41.5 -28t87 -31q106 -32 157.5 -82.5t51.5 -140.5t-63 -149z" />
    <glyph glyph-name="Scircumflex" unicode="&#x15c;" 
d="M534 88q-34 -50 -97.5 -77.5t-150.5 -27.5q-172 0 -274 100l83 92q79 -70 187 -70q52 0 83.5 22.5t31.5 62.5q0 38 -26.5 59.5t-98.5 43.5q-122 37 -173 87t-51 129q0 62 34.5 108t94 70t132.5 24q153 0 248 -90l-77 -89q-35 29 -75.5 43.5t-83.5 14.5q-48 0 -75.5 -17.5
t-27.5 -50.5q0 -22 12.5 -37t41.5 -28t87 -31q106 -32 157.5 -82.5t51.5 -140.5q0 -65 -34 -115zM358 943l141 -130l-56 -65l-133 85l-133 -85l-57 65l142 130h96z" />
    <glyph glyph-name="Scommaaccent" unicode="&#x218;" 
d="M534 88q-34 -50 -97.5 -77.5t-150.5 -27.5q-172 0 -274 100l83 92q79 -70 187 -70q52 0 83.5 22.5t31.5 62.5q0 38 -26.5 59.5t-98.5 43.5q-122 37 -173 87t-51 129q0 62 34.5 108t94 70t132.5 24q153 0 248 -90l-77 -89q-35 29 -75.5 43.5t-83.5 14.5q-48 0 -75.5 -17.5
t-27.5 -50.5q0 -22 12.5 -37t41.5 -28t87 -31q106 -32 157.5 -82.5t51.5 -140.5q0 -65 -34 -115zM357 -87q22 -22 22 -56q0 -36 -23 -82l-49 -97h-80l27 115q-32 27 -32 64q0 33 22.5 55.5t56.5 22.5t56 -22z" />
    <glyph glyph-name="T" unicode="T" 
d="M381 567v-567h-164v567h-195v126h561l-16 -126h-186z" />
    <glyph glyph-name="Tbar" unicode="&#x166;" 
d="M567 567h-186v-161h117v-92h-117v-314h-164v314h-116v92h116v161h-195v126h561z" />
    <glyph glyph-name="Tcaron" unicode="&#x164;" 
d="M381 567v-567h-164v567h-195v126h561l-16 -126h-186zM432 946l56 -65l-141 -130h-96l-142 130l57 65l133 -85z" />
    <glyph glyph-name="uni0162" unicode="&#x162;" 
d="M347 0v-48q51 -6 77 -32t26 -67q0 -51 -41 -83t-108 -32q-34 0 -64.5 8.5t-52.5 21.5l36 73q34 -17 64 -17q53 0 53 31q0 19 -22 26t-70 7l12 112h-40v567h-195v126h561l-16 -126h-186v-567h-34z" />
    <glyph glyph-name="uni021A" unicode="&#x21a;" 
d="M381 567v-567h-164v567h-195v126h561l-16 -126h-186zM356 -87q22 -22 22 -56q0 -36 -23 -82l-49 -97h-80l27 115q-32 27 -32 64q0 33 22.5 55.5t56.5 22.5t56 -22z" />
    <glyph glyph-name="U" unicode="U" 
d="M558 232q0 -72 -29 -128.5t-87 -88.5t-142 -32q-126 0 -192 67t-66 182v461h165v-400q0 -67 7 -107t27.5 -60.5t58.5 -20.5t58.5 20.5t27.5 60.5t7 107v400h165v-461z" />
    <glyph glyph-name="Uacute" unicode="&#xda;" 
d="M558 232q0 -72 -29 -128.5t-87 -88.5t-142 -32q-126 0 -192 67t-66 182v461h165v-400q0 -67 7 -107t27.5 -60.5t58.5 -20.5t58.5 20.5t27.5 60.5t7 107v400h165v-461zM378 953l59 -118l-237 -84l-38 80z" />
    <glyph glyph-name="Ubreve" unicode="&#x16c;" 
d="M558 232q0 -72 -29 -128.5t-87 -88.5t-142 -32q-126 0 -192 67t-66 182v461h165v-400q0 -67 7 -107t27.5 -60.5t58.5 -20.5t58.5 20.5t27.5 60.5t7 107v400h165v-461zM179 793.5q-43 42.5 -51 111.5l87 16q10 -31 30 -45.5t55 -14.5t55 14.5t30 45.5l87 -16
q-7 -68 -50.5 -111t-121.5 -43t-121 42.5z" />
    <glyph glyph-name="Ucircumflex" unicode="&#xdb;" 
d="M558 232q0 -72 -29 -128.5t-87 -88.5t-142 -32q-126 0 -192 67t-66 182v461h165v-400q0 -67 7 -107t27.5 -60.5t58.5 -20.5t58.5 20.5t27.5 60.5t7 107v400h165v-461zM348 943l141 -130l-56 -65l-133 85l-133 -85l-57 65l142 130h96z" />
    <glyph glyph-name="Udieresis" unicode="&#xdc;" 
d="M558 232q0 -72 -29 -128.5t-87 -88.5t-142 -32q-126 0 -192 67t-66 182v461h165v-400q0 -67 7 -107t27.5 -60.5t58.5 -20.5t58.5 20.5t27.5 60.5t7 107v400h165v-461zM126 785.5q-24 23.5 -24 57.5q0 33 24 56t58 23q35 0 59 -23t24 -56q0 -34 -24 -57.5t-59 -23.5
q-34 0 -58 23.5zM357.5 785.5q-24.5 23.5 -24.5 57.5q0 33 24.5 56t58.5 23t58 -23t24 -56q0 -34 -23.5 -57.5t-58.5 -23.5q-34 0 -58.5 23.5z" />
    <glyph glyph-name="Ugrave" unicode="&#xd9;" 
d="M558 232q0 -72 -29 -128.5t-87 -88.5t-142 -32q-126 0 -192 67t-66 182v461h165v-400q0 -67 7 -107t27.5 -60.5t58.5 -20.5t58.5 20.5t27.5 60.5t7 107v400h165v-461zM222 953l215 -122l-37 -80l-238 84z" />
    <glyph glyph-name="Uhungarumlaut" unicode="&#x170;" 
d="M558 232q0 -72 -29 -128.5t-87 -88.5t-142 -32q-126 0 -192 67t-66 182v461h165v-400q0 -67 7 -107t27.5 -60.5t58.5 -20.5t58.5 20.5t27.5 60.5t7 107v400h165v-461zM159 786l99 196l107 -49l-124 -183zM322 788l100 194l106 -51l-125 -182z" />
    <glyph glyph-name="Umacron" unicode="&#x16a;" 
d="M558 232q0 -72 -29 -128.5t-87 -88.5t-142 -32q-126 0 -192 67t-66 182v461h165v-400q0 -67 7 -107t27.5 -60.5t58.5 -20.5t58.5 20.5t27.5 60.5t7 107v400h165v-461zM453 783h-306v109h306v-109z" />
    <glyph glyph-name="Uogonek" unicode="&#x172;" 
d="M558 693v-461q0 -89 -43 -152t-126 -86q-56 -21 -77.5 -46.5t-21.5 -57.5q0 -24 15.5 -36.5t42.5 -12.5q24 0 54 7l-12 -93q-29 -8 -59 -8q-66 0 -108.5 32.5t-42.5 90.5q0 74 61 117q-98 15 -148.5 80t-50.5 165v461h165v-400q0 -67 7 -107t27.5 -60.5t58.5 -20.5
t58.5 20.5t27.5 60.5t7 107v400h165z" />
    <glyph glyph-name="Uring" unicode="&#x16e;" 
d="M558 232q0 -72 -29 -128.5t-87 -88.5t-142 -32q-126 0 -192 67t-66 182v461h165v-400q0 -67 7 -107t27.5 -60.5t58.5 -20.5t58.5 20.5t27.5 60.5t7 107v400h165v-461zM400 952q38 -38 38 -93t-38.5 -94t-100.5 -39q-41 0 -72.5 18t-48.5 48.5t-17 66.5q0 54 38 92.5
t100 38.5q63 0 101 -38zM267 895.5q-12 -12.5 -12 -36.5q0 -25 12 -38t32 -13q21 0 33 13t12 38q0 24 -12 36.5t-33 12.5q-20 0 -32 -12.5z" />
    <glyph glyph-name="Utilde" unicode="&#x168;" 
d="M558 232q0 -72 -29 -128.5t-87 -88.5t-142 -32q-126 0 -192 67t-66 182v461h165v-400q0 -67 7 -107t27.5 -60.5t58.5 -20.5t58.5 20.5t27.5 60.5t7 107v400h165v-461zM318 767q-16 7 -35 20q-25 18 -41 18q-18 0 -29 -10t-24 -34l-79 38q21 53 53.5 85.5t75.5 32.5
q23 0 39.5 -7t35.5 -20q13 -9 22 -13.5t19 -4.5q16 0 27 10t25 33l79 -38q-21 -53 -54 -85t-76 -32q-22 0 -38 7z" />
    <glyph glyph-name="V" unicode="V" 
d="M303 128l130 565h168l-200 -693h-202l-199 693h174z" />
    <glyph glyph-name="W" unicode="W" 
d="M603 693l-81 -693h-170l-51 496l-56 -496h-173l-75 693h153l24 -553l57 473h142l53 -473l34 553h143z" />
    <glyph glyph-name="Wacute" unicode="&#x1e82;" 
d="M603 693l-81 -693h-170l-51 496l-56 -496h-173l-75 693h153l24 -553l57 473h142l53 -473l34 553h143zM378 953l59 -118l-237 -84l-38 80z" />
    <glyph glyph-name="Wcircumflex" unicode="&#x174;" 
d="M603 693l-81 -693h-170l-51 496l-56 -496h-173l-75 693h153l24 -553l57 473h142l53 -473l34 553h143zM348 943l141 -130l-56 -65l-133 85l-133 -85l-57 65l142 130h96z" />
    <glyph glyph-name="Wdieresis" unicode="&#x1e84;" 
d="M603 693l-81 -693h-170l-51 496l-56 -496h-173l-75 693h153l24 -553l57 473h142l53 -473l34 553h143zM126 785.5q-24 23.5 -24 57.5q0 33 24 56t58 23q35 0 59 -23t24 -56q0 -34 -24 -57.5t-59 -23.5q-34 0 -58 23.5zM357.5 785.5q-24.5 23.5 -24.5 57.5q0 33 24.5 56
t58.5 23t58 -23t24 -56q0 -34 -23.5 -57.5t-58.5 -23.5q-34 0 -58.5 23.5z" />
    <glyph glyph-name="Wgrave" unicode="&#x1e80;" 
d="M603 693l-81 -693h-170l-51 496l-56 -496h-173l-75 693h153l24 -553l57 473h142l53 -473l34 553h143zM222 953l215 -122l-37 -80l-238 84z" />
    <glyph glyph-name="X" unicode="X" 
d="M19 693h177l104 -222l107 222h173l-184 -318l201 -375h-177l-122 264l-120 -264h-174l196 368z" />
    <glyph glyph-name="Y" unicode="Y" 
d="M382 260v-260h-164v259l-226 434h180l131 -298l132 298h173z" />
    <glyph glyph-name="Yacute" unicode="&#xdd;" 
d="M382 260v-260h-164v259l-226 434h180l131 -298l132 298h173zM378 953l59 -118l-237 -84l-38 80z" />
    <glyph glyph-name="Ycircumflex" unicode="&#x176;" 
d="M382 260v-260h-164v259l-226 434h180l131 -298l132 298h173zM348 943l141 -130l-56 -65l-133 85l-133 -85l-57 65l142 130h96z" />
    <glyph glyph-name="Ydieresis" unicode="&#x178;" 
d="M382 260v-260h-164v259l-226 434h180l131 -298l132 298h173zM126 785.5q-24 23.5 -24 57.5q0 33 24 56t58 23q35 0 59 -23t24 -56q0 -34 -24 -57.5t-59 -23.5q-34 0 -58 23.5zM357.5 785.5q-24.5 23.5 -24.5 57.5q0 33 24.5 56t58.5 23t58 -23t24 -56q0 -34 -23.5 -57.5
t-58.5 -23.5q-34 0 -58.5 23.5z" />
    <glyph glyph-name="Ygrave" unicode="&#x1ef2;" 
d="M382 260v-260h-164v259l-226 434h180l131 -298l132 298h173zM222 953l215 -122l-37 -80l-238 84z" />
    <glyph glyph-name="Z" unicode="Z" 
d="M232 131h330l-17 -131h-506v123l329 443h-293v127h479v-124z" />
    <glyph glyph-name="Zacute" unicode="&#x179;" 
d="M232 131h330l-17 -131h-506v123l329 443h-293v127h479v-124zM391 953l59 -118l-237 -84l-38 80z" />
    <glyph glyph-name="Zcaron" unicode="&#x17d;" 
d="M232 131h330l-17 -131h-506v123l329 443h-293v127h479v-124zM446 946l56 -65l-141 -130h-96l-142 130l57 65l133 -85z" />
    <glyph glyph-name="Zdotaccent" unicode="&#x17b;" 
d="M232 131h330l-17 -131h-506v123l329 443h-293v127h479v-124zM380 908.5q26 -25.5 26 -63.5q0 -39 -26 -64t-67 -25t-67.5 25.5t-26.5 63.5t26.5 63.5t67.5 25.5t67 -25.5z" />
    <glyph glyph-name="Cacute.loclPLK" 
d="M482 692q52 -19 98 -57l-80 -97q-63 51 -138 51q-71 0 -114.5 -60t-43.5 -181t43 -179.5t118 -58.5q46 0 79 16t71 46l74 -95q-92 -94 -233 -94q-95 0 -167.5 42t-113.5 124.5t-41 198.5q0 113 42 195t116 125t166 43q72 0 124 -19zM389 972l122 -77l-147 -156l-76 48z
" />
    <glyph glyph-name="Nacute.loclPLK" 
d="M167 557q10 -76 17 -146.5t7 -149.5v-261h-139v693h205l176 -555q-24 154 -24 290v265h139v-693h-199zM338 972l122 -77l-147 -156l-76 48z" />
    <glyph glyph-name="Oacute.loclPLK" 
d="M505.5 80.5q-71.5 -97.5 -205.5 -97.5q-135 0 -206 96.5t-71 267.5q0 169 71.5 266.5t205.5 97.5q135 0 206 -96.5t71 -267.5q0 -169 -71.5 -266.5zM383.5 533q-25.5 58 -83.5 58t-83.5 -58t-25.5 -186t25.5 -186t83.5 -58q59 0 84 58t25 186t-25.5 186zM328 972l122 -77
l-147 -156l-76 48z" />
    <glyph glyph-name="Sacute.loclPLK" 
d="M534 88q-34 -50 -97.5 -77.5t-150.5 -27.5q-172 0 -274 100l83 92q79 -70 187 -70q52 0 83.5 22.5t31.5 62.5q0 38 -26.5 59.5t-98.5 43.5q-122 37 -173 87t-51 129q0 62 34.5 108t94 70t132.5 24q153 0 248 -90l-77 -89q-35 29 -75.5 43.5t-83.5 14.5q-48 0 -75.5 -17.5
t-27.5 -50.5q0 -22 12.5 -37t41.5 -28t87 -31q106 -32 157.5 -82.5t51.5 -140.5q0 -65 -34 -115zM338 972l122 -77l-147 -156l-76 48z" />
    <glyph glyph-name="Zacute.loclPLK" 
d="M232 131h330l-17 -131h-506v123l329 443h-293v127h479v-124zM341 972l122 -77l-147 -156l-76 48z" />
    <glyph glyph-name="a" unicode="a" 
d="M525 110q8 -14 27 -21l-33 -104q-48 5 -80 21.5t-50 48.5q-30 -35 -76 -53.5t-98 -18.5q-82 0 -131 46.5t-49 120.5q0 86 68 133.5t191 47.5h71v19q0 82 -105 82q-27 0 -67.5 -7.5t-78.5 -20.5l-36 105q51 19 106.5 29.5t100.5 10.5q232 0 232 -188v-208q0 -29 8 -43z
M323.5 111.5q27.5 15.5 41.5 42.5v87h-39q-128 0 -128 -80q0 -31 18.5 -48t52.5 -17q27 0 54.5 15.5z" />
    <glyph glyph-name="aacute" unicode="&#xe1;" 
d="M525 110q8 -14 27 -21l-33 -104q-48 5 -80 21.5t-50 48.5q-30 -35 -76 -53.5t-98 -18.5q-82 0 -131 46.5t-49 120.5q0 86 68 133.5t191 47.5h71v19q0 82 -105 82q-27 0 -67.5 -7.5t-78.5 -20.5l-36 105q51 19 106.5 29.5t100.5 10.5q232 0 232 -188v-208q0 -29 8 -43z
M323.5 111.5q27.5 15.5 41.5 42.5v87h-39q-128 0 -128 -80q0 -31 18.5 -48t52.5 -17q27 0 54.5 15.5zM369 835l62 -119l-237 -94l-43 81z" />
    <glyph glyph-name="abreve" unicode="&#x103;" 
d="M525 110q8 -14 27 -21l-33 -104q-48 5 -80 21.5t-50 48.5q-30 -35 -76 -53.5t-98 -18.5q-82 0 -131 46.5t-49 120.5q0 86 68 133.5t191 47.5h71v19q0 82 -105 82q-27 0 -67.5 -7.5t-78.5 -20.5l-36 105q51 19 106.5 29.5t100.5 10.5q232 0 232 -188v-208q0 -29 8 -43z
M323.5 111.5q27.5 15.5 41.5 42.5v87h-39q-128 0 -128 -80q0 -31 18.5 -48t52.5 -17q27 0 54.5 15.5zM171.5 662.5q-43.5 50.5 -50.5 123.5l87 15q9 -38 30.5 -59.5t54.5 -21.5t54.5 21.5t30.5 59.5l87 -15q-7 -72 -51 -123t-121 -51q-78 0 -121.5 50.5z" />
    <glyph glyph-name="acircumflex" unicode="&#xe2;" 
d="M525 110q8 -14 27 -21l-33 -104q-48 5 -80 21.5t-50 48.5q-30 -35 -76 -53.5t-98 -18.5q-82 0 -131 46.5t-49 120.5q0 86 68 133.5t191 47.5h71v19q0 82 -105 82q-27 0 -67.5 -7.5t-78.5 -20.5l-36 105q51 19 106.5 29.5t100.5 10.5q232 0 232 -188v-208q0 -29 8 -43z
M323.5 111.5q27.5 15.5 41.5 42.5v87h-39q-128 0 -128 -80q0 -31 18.5 -48t52.5 -17q27 0 54.5 15.5zM160 611l-57 65l142 139h96l141 -139l-56 -65l-133 94z" />
    <glyph glyph-name="adieresis" unicode="&#xe4;" 
d="M525 110q8 -14 27 -21l-33 -104q-48 5 -80 21.5t-50 48.5q-30 -35 -76 -53.5t-98 -18.5q-82 0 -131 46.5t-49 120.5q0 86 68 133.5t191 47.5h71v19q0 82 -105 82q-27 0 -67.5 -7.5t-78.5 -20.5l-36 105q51 19 106.5 29.5t100.5 10.5q232 0 232 -188v-208q0 -29 8 -43z
M323.5 111.5q27.5 15.5 41.5 42.5v87h-39q-128 0 -128 -80q0 -31 18.5 -48t52.5 -17q27 0 54.5 15.5zM119 660.5q-24 23.5 -24 57.5q0 33 24 56t58 23q35 0 59 -23t24 -56q0 -34 -24 -57.5t-59 -23.5q-34 0 -58 23.5zM350.5 660.5q-24.5 23.5 -24.5 57.5q0 33 24.5 56
t58.5 23t58 -23t24 -56q0 -34 -23.5 -57.5t-58.5 -23.5q-34 0 -58.5 23.5z" />
    <glyph glyph-name="agrave" unicode="&#xe0;" 
d="M525 110q8 -14 27 -21l-33 -104q-48 5 -80 21.5t-50 48.5q-30 -35 -76 -53.5t-98 -18.5q-82 0 -131 46.5t-49 120.5q0 86 68 133.5t191 47.5h71v19q0 82 -105 82q-27 0 -67.5 -7.5t-78.5 -20.5l-36 105q51 19 106.5 29.5t100.5 10.5q232 0 232 -188v-208q0 -29 8 -43z
M323.5 111.5q27.5 15.5 41.5 42.5v87h-39q-128 0 -128 -80q0 -31 18.5 -48t52.5 -17q27 0 54.5 15.5zM392 622l-236 94l61 119l218 -133z" />
    <glyph glyph-name="amacron" unicode="&#x101;" 
d="M525 110q8 -14 27 -21l-33 -104q-48 5 -80 21.5t-50 48.5q-30 -35 -76 -53.5t-98 -18.5q-82 0 -131 46.5t-49 120.5q0 86 68 133.5t191 47.5h71v19q0 82 -105 82q-27 0 -67.5 -7.5t-78.5 -20.5l-36 105q51 19 106.5 29.5t100.5 10.5q232 0 232 -188v-208q0 -29 8 -43z
M323.5 111.5q27.5 15.5 41.5 42.5v87h-39q-128 0 -128 -80q0 -31 18.5 -48t52.5 -17q27 0 54.5 15.5zM446 658h-306v109h306v-109z" />
    <glyph glyph-name="aogonek" unicode="&#x105;" 
d="M429 -64q-25 -27 -25 -61q0 -24 15.5 -36.5t42.5 -12.5q24 0 54 7l-12 -93q-29 -8 -59 -8q-66 0 -108.5 32.5t-42.5 90.5t35 94.5t101 62.5q-27 17 -41 43q-30 -35 -76 -53.5t-98 -18.5q-82 0 -131 46.5t-49 120.5q0 86 68 133.5t191 47.5h71v19q0 82 -105 82
q-27 0 -67.5 -7.5t-78.5 -20.5l-36 105q51 19 106.5 29.5t100.5 10.5q232 0 232 -188v-208q0 -29 8 -43t27 -21l-33 -104q-65 -22 -90 -49zM365 241h-39q-128 0 -128 -80q0 -31 18.5 -48t52.5 -17q27 0 54.5 15.5t41.5 42.5v87z" />
    <glyph glyph-name="aring" unicode="&#xe5;" 
d="M525 110q8 -14 27 -21l-33 -104q-48 5 -80 21.5t-50 48.5q-30 -35 -76 -53.5t-98 -18.5q-82 0 -131 46.5t-49 120.5q0 86 68 133.5t191 47.5h71v19q0 82 -105 82q-27 0 -67.5 -7.5t-78.5 -20.5l-36 105q51 19 106.5 29.5t100.5 10.5q232 0 232 -188v-208q0 -29 8 -43z
M323.5 111.5q27.5 15.5 41.5 42.5v87h-39q-128 0 -128 -80q0 -31 18.5 -48t52.5 -17q27 0 54.5 15.5zM393 827q38 -38 38 -93t-38.5 -94t-100.5 -39q-41 0 -72.5 18t-48.5 48.5t-17 66.5q0 54 38 92.5t100 38.5q63 0 101 -38zM260 770.5q-12 -12.5 -12 -36.5q0 -25 12 -38
t32 -13q21 0 33 13t12 38q0 24 -12 36.5t-33 12.5q-20 0 -32 -12.5z" />
    <glyph glyph-name="atilde" unicode="&#xe3;" 
d="M525 110q8 -14 27 -21l-33 -104q-48 5 -80 21.5t-50 48.5q-30 -35 -76 -53.5t-98 -18.5q-82 0 -131 46.5t-49 120.5q0 86 68 133.5t191 47.5h71v19q0 82 -105 82q-27 0 -67.5 -7.5t-78.5 -20.5l-36 105q51 19 106.5 29.5t100.5 10.5q232 0 232 -188v-208q0 -29 8 -43z
M323.5 111.5q27.5 15.5 41.5 42.5v87h-39q-128 0 -128 -80q0 -31 18.5 -48t52.5 -17q27 0 54.5 15.5zM311 642q-16 7 -35 20q-25 18 -41 18q-18 0 -29 -10t-24 -34l-79 38q21 53 53.5 85.5t75.5 32.5q23 0 39.5 -7t35.5 -20q13 -9 22 -13.5t19 -4.5q16 0 27 10t25 33l79 -38
q-21 -53 -54 -85t-76 -32q-22 0 -38 7z" />
    <glyph glyph-name="ae" unicode="&#xe6;" 
d="M559.5 480.5q40.5 -68.5 40.5 -204.5q0 -26 -3 -50h-241q13 -139 97 -139q23 0 43.5 8t43.5 24l60 -79q-67 -57 -156 -57q-106 0 -160 84q-30 -45 -61 -64.5t-80 -19.5q-69 0 -109 47t-40 122q0 86 50 130.5t152 44.5h41v23q0 101 -89 101q-24 0 -43.5 -5.5t-49.5 -19.5
l-36 87q42 19 75 27.5t70 8.5q52 0 85 -18.5t53 -52.5q19 33 50.5 52t75.5 19q91 0 131.5 -68.5zM375.5 419q-15.5 -31 -19.5 -107h125q-1 74 -13 106t-46 32q-31 0 -46.5 -31zM216 242q-48 0 -69 -21t-21 -62q0 -35 12 -54t34 -19q20 0 37 15t33 47q-5 50 -5 94h-21z" />
    <glyph glyph-name="aeacute" unicode="&#x1fd;" 
d="M559.5 480.5q40.5 -68.5 40.5 -204.5q0 -26 -3 -50h-241q13 -139 97 -139q23 0 43.5 8t43.5 24l60 -79q-67 -57 -156 -57q-106 0 -160 84q-30 -45 -61 -64.5t-80 -19.5q-69 0 -109 47t-40 122q0 86 50 130.5t152 44.5h41v23q0 101 -89 101q-24 0 -43.5 -5.5t-49.5 -19.5
l-36 87q42 19 75 27.5t70 8.5q52 0 85 -18.5t53 -52.5q19 33 50.5 52t75.5 19q91 0 131.5 -68.5zM375.5 419q-15.5 -31 -19.5 -107h125q-1 74 -13 106t-46 32q-31 0 -46.5 -31zM216 242q-48 0 -69 -21t-21 -62q0 -35 12 -54t34 -19q20 0 37 15t33 47q-5 50 -5 94h-21z
M378 835l62 -119l-237 -94l-43 81z" />
    <glyph glyph-name="b" unicode="b" 
d="M288.5 530q35.5 19 75.5 19q99 0 147.5 -74t48.5 -208q0 -83 -25 -147t-73 -100.5t-115 -36.5q-40 0 -74 17t-57 48l-6 -48h-140v742l158 17v-282q25 34 60.5 53zM397 265q0 93 -21 130t-62 37q-49 0 -86 -62v-224q31 -48 78 -48q91 0 91 167z" />
    <glyph glyph-name="c" unicode="c" 
d="M410 119.5q28 11.5 60 33.5l70 -100q-38 -32 -88 -51t-109 -19q-85 0 -146.5 35t-94.5 98t-33 146t34 148t96.5 102t146.5 37q59 0 106 -16.5t88 -50.5l-68 -95q-58 40 -119 40q-119 0 -119 -165q0 -83 31 -118.5t87 -35.5q30 0 58 11.5z" />
    <glyph glyph-name="cacute" unicode="&#x107;" 
d="M410 119.5q28 11.5 60 33.5l70 -100q-38 -32 -88 -51t-109 -19q-85 0 -146.5 35t-94.5 98t-33 146t34 148t96.5 102t146.5 37q59 0 106 -16.5t88 -50.5l-68 -95q-58 40 -119 40q-119 0 -119 -165q0 -83 31 -118.5t87 -35.5q30 0 58 11.5zM420 822l62 -119l-237 -94
l-43 81z" />
    <glyph glyph-name="ccaron" unicode="&#x10d;" 
d="M410 119.5q28 11.5 60 33.5l70 -100q-38 -32 -88 -51t-109 -19q-85 0 -146.5 35t-94.5 98t-33 146t34 148t96.5 102t146.5 37q59 0 106 -16.5t88 -50.5l-68 -95q-58 40 -119 40q-119 0 -119 -165q0 -83 31 -118.5t87 -35.5q30 0 58 11.5zM477 802l56 -64l-141 -140h-96
l-142 140l57 64l133 -94z" />
    <glyph glyph-name="ccedilla" unicode="&#xe7;" 
d="M463.5 6.5q-43.5 -18.5 -94.5 -22.5v-32q51 -6 77 -32t26 -67q0 -51 -41 -83t-108 -32q-34 0 -64.5 8.5t-52.5 21.5l36 73q34 -17 64 -17q53 0 53 31q0 19 -22 26t-70 7l11 101q-98 19 -153.5 91.5t-55.5 181.5q0 83 34 148t96.5 102t146.5 37q59 0 106 -16.5t88 -50.5
l-68 -95q-58 40 -119 40q-119 0 -119 -165q0 -83 31 -118.5t87 -35.5q30 0 58 11.5t60 33.5l70 -100q-33 -28 -76.5 -46.5z" />
    <glyph glyph-name="ccircumflex" unicode="&#x109;" 
d="M410 119.5q28 11.5 60 33.5l70 -100q-38 -32 -88 -51t-109 -19q-85 0 -146.5 35t-94.5 98t-33 146t34 148t96.5 102t146.5 37q59 0 106 -16.5t88 -50.5l-68 -95q-58 40 -119 40q-119 0 -119 -165q0 -83 31 -118.5t87 -35.5q30 0 58 11.5zM211 598l-57 65l142 139h96
l141 -139l-56 -65l-133 94z" />
    <glyph glyph-name="cdotaccent" unicode="&#x10b;" 
d="M410 119.5q28 11.5 60 33.5l70 -100q-38 -32 -88 -51t-109 -19q-85 0 -146.5 35t-94.5 98t-33 146t34 148t96.5 102t146.5 37q59 0 106 -16.5t88 -50.5l-68 -95q-58 40 -119 40q-119 0 -119 -165q0 -83 31 -118.5t87 -35.5q30 0 58 11.5zM411 770.5q26 -25.5 26 -63.5
q0 -39 -26 -64t-67 -25t-67.5 25.5t-26.5 63.5t26.5 63.5t67.5 25.5t67 -25.5z" />
    <glyph glyph-name="d" unicode="d" 
d="M530 742v-742h-140l-8 58q-24 -34 -61 -54.5t-86 -20.5q-96 0 -145.5 76t-49.5 208q0 82 26 146t74 100t112 36q72 0 120 -50v260zM227 392.5q-24 -40.5 -24 -126.5q0 -92 21.5 -129.5t60.5 -37.5q50 0 87 61v229q-17 22 -35.5 33t-42.5 11q-43 0 -67 -40.5z" />
    <glyph glyph-name="eth" unicode="&#xf0;" 
d="M184 631q-40 15 -91 24l31 103q85 -12 146 -37l73 76l81 -70l-53 -54q95 -61 140 -160t45 -236q0 -83 -30.5 -150t-90 -105.5t-141.5 -38.5q-72 0 -130 30t-91 87t-33 134q0 72 29.5 128.5t78.5 88t107 31.5q43 0 74 -12.5t59 -38.5q-33 98 -106 151l-56 -57l-100 46z
M395 328q-38 43 -99 43q-45 0 -70 -34t-25 -101q0 -71 25 -104.5t71 -33.5q51 0 75 38.5t24 119.5q0 49 -1 72z" />
    <glyph glyph-name="dcaron" unicode="&#x10f;" 
d="M491 742v-742h-140l-8 58q-24 -34 -61 -54.5t-86 -20.5q-96 0 -145.5 76t-49.5 208q0 82 26 146t74 100t112 36q72 0 120 -50v260zM188 392.5q-24 -40.5 -24 -126.5q0 -92 21.5 -129.5t60.5 -37.5q50 0 87 61v229q-17 22 -35.5 33t-42.5 11q-43 0 -67 -40.5zM554 764
l139 -17l-78 -232l-98 16z" />
    <glyph glyph-name="dcroat" unicode="&#x111;" 
d="M592 593h-80v-593h-140l-8 58q-24 -34 -61 -54.5t-86 -20.5q-96 0 -145.5 76t-49.5 208q0 82 26 146t74 100t112 36q72 0 120 -50v94h-123v92h123v74l158 -17v-57h80v-92zM354 389q-17 22 -35.5 33t-42.5 11q-43 0 -67 -40.5t-24 -126.5q0 -92 21.5 -129.5t60.5 -37.5
q50 0 87 61v229z" />
    <glyph glyph-name="e" unicode="e" 
d="M335 98q68 0 136 44l63 -86q-39 -34 -93 -53.5t-119 -19.5q-89 0 -151 35.5t-93.5 99t-31.5 147.5q0 80 30.5 144.5t89 102t139.5 37.5q76 0 132 -32.5t86.5 -94t30.5 -146.5q0 -33 -3 -57h-344q15 -121 128 -121zM236 411.5q-26 -31.5 -31 -96.5h195q-2 128 -95 128
q-43 0 -69 -31.5z" />
    <glyph glyph-name="eacute" unicode="&#xe9;" 
d="M335 98q68 0 136 44l63 -86q-39 -34 -93 -53.5t-119 -19.5q-89 0 -151 35.5t-93.5 99t-31.5 147.5q0 80 30.5 144.5t89 102t139.5 37.5q76 0 132 -32.5t86.5 -94t30.5 -146.5q0 -33 -3 -57h-344q15 -121 128 -121zM236 411.5q-26 -31.5 -31 -96.5h195q-2 128 -95 128
q-43 0 -69 -31.5zM383 835l62 -119l-237 -94l-43 81z" />
    <glyph glyph-name="ebreve" unicode="&#x115;" 
d="M335 98q68 0 136 44l63 -86q-39 -34 -93 -53.5t-119 -19.5q-89 0 -151 35.5t-93.5 99t-31.5 147.5q0 80 30.5 144.5t89 102t139.5 37.5q76 0 132 -32.5t86.5 -94t30.5 -146.5q0 -33 -3 -57h-344q15 -121 128 -121zM236 411.5q-26 -31.5 -31 -96.5h195q-2 128 -95 128
q-43 0 -69 -31.5zM185.5 662.5q-43.5 50.5 -50.5 123.5l87 15q9 -38 30.5 -59.5t54.5 -21.5t54.5 21.5t30.5 59.5l87 -15q-7 -72 -51 -123t-121 -51q-78 0 -121.5 50.5z" />
    <glyph glyph-name="ecaron" unicode="&#x11b;" 
d="M335 98q68 0 136 44l63 -86q-39 -34 -93 -53.5t-119 -19.5q-89 0 -151 35.5t-93.5 99t-31.5 147.5q0 80 30.5 144.5t89 102t139.5 37.5q76 0 132 -32.5t86.5 -94t30.5 -146.5q0 -33 -3 -57h-344q15 -121 128 -121zM236 411.5q-26 -31.5 -31 -96.5h195q-2 128 -95 128
q-43 0 -69 -31.5zM440 815l56 -64l-141 -140h-96l-142 140l57 64l133 -94z" />
    <glyph glyph-name="ecircumflex" unicode="&#xea;" 
d="M335 98q68 0 136 44l63 -86q-39 -34 -93 -53.5t-119 -19.5q-89 0 -151 35.5t-93.5 99t-31.5 147.5q0 80 30.5 144.5t89 102t139.5 37.5q76 0 132 -32.5t86.5 -94t30.5 -146.5q0 -33 -3 -57h-344q15 -121 128 -121zM236 411.5q-26 -31.5 -31 -96.5h195q-2 128 -95 128
q-43 0 -69 -31.5zM174 611l-57 65l142 139h96l141 -139l-56 -65l-133 94z" />
    <glyph glyph-name="edieresis" unicode="&#xeb;" 
d="M335 98q68 0 136 44l63 -86q-39 -34 -93 -53.5t-119 -19.5q-89 0 -151 35.5t-93.5 99t-31.5 147.5q0 80 30.5 144.5t89 102t139.5 37.5q76 0 132 -32.5t86.5 -94t30.5 -146.5q0 -33 -3 -57h-344q15 -121 128 -121zM236 411.5q-26 -31.5 -31 -96.5h195q-2 128 -95 128
q-43 0 -69 -31.5zM133 660.5q-24 23.5 -24 57.5q0 33 24 56t58 23q35 0 59 -23t24 -56q0 -34 -24 -57.5t-59 -23.5q-34 0 -58 23.5zM364.5 660.5q-24.5 23.5 -24.5 57.5q0 33 24.5 56t58.5 23t58 -23t24 -56q0 -34 -23.5 -57.5t-58.5 -23.5q-34 0 -58.5 23.5z" />
    <glyph glyph-name="edotaccent" unicode="&#x117;" 
d="M335 98q68 0 136 44l63 -86q-39 -34 -93 -53.5t-119 -19.5q-89 0 -151 35.5t-93.5 99t-31.5 147.5q0 80 30.5 144.5t89 102t139.5 37.5q76 0 132 -32.5t86.5 -94t30.5 -146.5q0 -33 -3 -57h-344q15 -121 128 -121zM236 411.5q-26 -31.5 -31 -96.5h195q-2 128 -95 128
q-43 0 -69 -31.5zM374 783.5q26 -25.5 26 -63.5q0 -39 -26 -64t-67 -25t-67.5 25.5t-26.5 63.5t26.5 63.5t67.5 25.5t67 -25.5z" />
    <glyph glyph-name="egrave" unicode="&#xe8;" 
d="M335 98q68 0 136 44l63 -86q-39 -34 -93 -53.5t-119 -19.5q-89 0 -151 35.5t-93.5 99t-31.5 147.5q0 80 30.5 144.5t89 102t139.5 37.5q76 0 132 -32.5t86.5 -94t30.5 -146.5q0 -33 -3 -57h-344q15 -121 128 -121zM236 411.5q-26 -31.5 -31 -96.5h195q-2 128 -95 128
q-43 0 -69 -31.5zM406 622l-236 94l61 119l218 -133z" />
    <glyph glyph-name="emacron" unicode="&#x113;" 
d="M335 98q68 0 136 44l63 -86q-39 -34 -93 -53.5t-119 -19.5q-89 0 -151 35.5t-93.5 99t-31.5 147.5q0 80 30.5 144.5t89 102t139.5 37.5q76 0 132 -32.5t86.5 -94t30.5 -146.5q0 -33 -3 -57h-344q15 -121 128 -121zM236 411.5q-26 -31.5 -31 -96.5h195q-2 128 -95 128
q-43 0 -69 -31.5zM460 658h-306v109h306v-109z" />
    <glyph glyph-name="eogonek" unicode="&#x119;" 
d="M551 219h-344q15 -121 128 -121q68 0 136 44l63 -86q-45 -38 -99 -55v-1q-65 -22 -90 -49t-25 -61q0 -24 15.5 -36.5t42.5 -12.5q24 0 54 7l-12 -93q-29 -8 -59 -8q-66 0 -108.5 32.5t-42.5 90.5q0 70 69 115q-113 12 -173 87.5t-60 192.5q0 80 30.5 144.5t89 102
t139.5 37.5q76 0 132 -32.5t86.5 -94t30.5 -146.5q0 -33 -3 -57zM400 315q-2 128 -95 128q-43 0 -69 -31.5t-31 -96.5h195z" />
    <glyph glyph-name="f" unicode="f" 
d="M590 725l-44 -103q-51 20 -113 20q-47 0 -67.5 -17t-20.5 -56v-71h173l-18 -110h-155v-388h-157v388h-112v110h112v76q0 82 57.5 133.5t162.5 51.5q102 0 182 -34z" />
    <glyph glyph-name="g" unicode="g" 
d="M578 500q-52 -21 -153 -21q52 -23 77.5 -55t25.5 -82q0 -51 -28 -91.5t-79 -63.5t-118 -23q-33 0 -62 6q-8 -4 -12.5 -12.5t-4.5 -17.5q0 -15 11.5 -23.5t46.5 -8.5h88q60 0 106 -20t71 -55t25 -79q0 -83 -72.5 -129.5t-211.5 -46.5q-99 0 -155.5 20.5t-79 57.5t-22.5 93
h140q0 -25 9.5 -39t35.5 -21t76 -7q70 0 96.5 16t26.5 45q0 24 -19.5 38.5t-57.5 14.5h-84q-82 0 -123 29.5t-41 75.5q0 30 15.5 56.5t43.5 44.5q-50 27 -72 63.5t-22 88.5q0 59 30 103t84 67.5t123 23.5q80 -2 136 15.5t114 52.5zM236.5 421q-21.5 -24 -21.5 -65
q0 -43 22 -67t59 -24q39 0 60 23.5t21 69.5q0 87 -81 87q-38 0 -59.5 -24z" />
    <glyph glyph-name="gbreve" unicode="&#x11f;" 
d="M578 500q-52 -21 -153 -21q52 -23 77.5 -55t25.5 -82q0 -51 -28 -91.5t-79 -63.5t-118 -23q-33 0 -62 6q-8 -4 -12.5 -12.5t-4.5 -17.5q0 -15 11.5 -23.5t46.5 -8.5h88q60 0 106 -20t71 -55t25 -79q0 -83 -72.5 -129.5t-211.5 -46.5q-99 0 -155.5 20.5t-79 57.5t-22.5 93
h140q0 -25 9.5 -39t35.5 -21t76 -7q70 0 96.5 16t26.5 45q0 24 -19.5 38.5t-57.5 14.5h-84q-82 0 -123 29.5t-41 75.5q0 30 15.5 56.5t43.5 44.5q-50 27 -72 63.5t-22 88.5q0 59 30 103t84 67.5t123 23.5q80 -2 136 15.5t114 52.5zM236.5 421q-21.5 -24 -21.5 -65
q0 -43 22 -67t59 -24q39 0 60 23.5t21 69.5q0 87 -81 87q-38 0 -59.5 -24zM179.5 662.5q-43.5 50.5 -50.5 123.5l87 15q9 -38 30.5 -59.5t54.5 -21.5t54.5 21.5t30.5 59.5l87 -15q-7 -72 -51 -123t-121 -51q-78 0 -121.5 50.5z" />
    <glyph glyph-name="gcircumflex" unicode="&#x11d;" 
d="M578 500q-52 -21 -153 -21q52 -23 77.5 -55t25.5 -82q0 -51 -28 -91.5t-79 -63.5t-118 -23q-33 0 -62 6q-8 -4 -12.5 -12.5t-4.5 -17.5q0 -15 11.5 -23.5t46.5 -8.5h88q60 0 106 -20t71 -55t25 -79q0 -83 -72.5 -129.5t-211.5 -46.5q-99 0 -155.5 20.5t-79 57.5t-22.5 93
h140q0 -25 9.5 -39t35.5 -21t76 -7q70 0 96.5 16t26.5 45q0 24 -19.5 38.5t-57.5 14.5h-84q-82 0 -123 29.5t-41 75.5q0 30 15.5 56.5t43.5 44.5q-50 27 -72 63.5t-22 88.5q0 59 30 103t84 67.5t123 23.5q80 -2 136 15.5t114 52.5zM236.5 421q-21.5 -24 -21.5 -65
q0 -43 22 -67t59 -24q39 0 60 23.5t21 69.5q0 87 -81 87q-38 0 -59.5 -24zM168 611l-57 65l142 139h96l141 -139l-56 -65l-133 94z" />
    <glyph glyph-name="gcommaaccent" unicode="&#x123;" 
d="M245 618q-22 22 -22 56q0 36 23 82l49 97h80l-27 -115q32 -27 32 -64q0 -33 -22.5 -55.5t-56.5 -22.5t-56 22zM578 500q-52 -21 -153 -21q52 -23 77.5 -55t25.5 -82q0 -51 -28 -91.5t-79 -63.5t-118 -23q-33 0 -62 6q-8 -4 -12.5 -12.5t-4.5 -17.5q0 -15 11.5 -23.5
t46.5 -8.5h88q60 0 106 -20t71 -55t25 -79q0 -83 -72.5 -129.5t-211.5 -46.5q-99 0 -155.5 20.5t-79 57.5t-22.5 93h140q0 -25 9.5 -39t35.5 -21t76 -7q70 0 96.5 16t26.5 45q0 24 -19.5 38.5t-57.5 14.5h-84q-82 0 -123 29.5t-41 75.5q0 30 15.5 56.5t43.5 44.5
q-50 27 -72 63.5t-22 88.5q0 59 30 103t84 67.5t123 23.5q80 -2 136 15.5t114 52.5zM236.5 421q-21.5 -24 -21.5 -65q0 -43 22 -67t59 -24q39 0 60 23.5t21 69.5q0 87 -81 87q-38 0 -59.5 -24z" />
    <glyph glyph-name="gdotaccent" unicode="&#x121;" 
d="M578 500q-52 -21 -153 -21q52 -23 77.5 -55t25.5 -82q0 -51 -28 -91.5t-79 -63.5t-118 -23q-33 0 -62 6q-8 -4 -12.5 -12.5t-4.5 -17.5q0 -15 11.5 -23.5t46.5 -8.5h88q60 0 106 -20t71 -55t25 -79q0 -83 -72.5 -129.5t-211.5 -46.5q-99 0 -155.5 20.5t-79 57.5t-22.5 93
h140q0 -25 9.5 -39t35.5 -21t76 -7q70 0 96.5 16t26.5 45q0 24 -19.5 38.5t-57.5 14.5h-84q-82 0 -123 29.5t-41 75.5q0 30 15.5 56.5t43.5 44.5q-50 27 -72 63.5t-22 88.5q0 59 30 103t84 67.5t123 23.5q80 -2 136 15.5t114 52.5zM236.5 421q-21.5 -24 -21.5 -65
q0 -43 22 -67t59 -24q39 0 60 23.5t21 69.5q0 87 -81 87q-38 0 -59.5 -24zM368 783.5q26 -25.5 26 -63.5q0 -39 -26 -64t-67 -25t-67.5 25.5t-26.5 63.5t26.5 63.5t67.5 25.5t67 -25.5z" />
    <glyph glyph-name="h" unicode="h" 
d="M228 478q67 71 156 71q70 0 108 -41.5t38 -117.5v-390h-158v346q0 48 -11 67t-40 19q-24 0 -46.5 -16.5t-46.5 -48.5v-367h-158v742l158 16v-280z" />
    <glyph glyph-name="hbar" unicode="&#x127;" 
d="M492 507.5q38 -41.5 38 -117.5v-390h-158v346q0 48 -11 67t-40 19q-24 0 -46.5 -16.5t-46.5 -48.5v-367h-158v593h-62v92h62v57l158 16v-73h141v-92h-141v-115q67 71 156 71q70 0 108 -41.5z" />
    <glyph glyph-name="hcircumflex" unicode="&#x125;" 
d="M228 478q67 71 156 71q70 0 108 -41.5t38 -117.5v-390h-158v346q0 48 -11 67t-40 19q-24 0 -46.5 -16.5t-46.5 -48.5v-367h-158v742l158 16v-280zM348 992l141 -130l-56 -65l-133 85l-133 -85l-57 65l142 130h96z" />
    <glyph glyph-name="i" unicode="i" 
d="M366 783.5q26 -25.5 26 -63.5q0 -39 -26 -64t-67 -25t-67.5 25.5t-26.5 63.5t26.5 63.5t67.5 25.5t67 -25.5zM394 531v-423h136v-108h-444v108h150v315h-145v108h303z" />
    <glyph glyph-name="dotlessi" unicode="&#x131;" 
d="M394 531v-423h136v-108h-444v108h150v315h-145v108h303z" />
    <glyph glyph-name="iacute" unicode="&#xed;" 
d="M394 531v-423h136v-108h-444v108h150v315h-145v108h303zM375 835l62 -119l-237 -94l-43 81z" />
    <glyph glyph-name="ibreve" unicode="&#x12d;" 
d="M394 531v-423h136v-108h-444v108h150v315h-145v108h303zM177.5 662.5q-43.5 50.5 -50.5 123.5l87 15q9 -38 30.5 -59.5t54.5 -21.5t54.5 21.5t30.5 59.5l87 -15q-7 -72 -51 -123t-121 -51q-78 0 -121.5 50.5z" />
    <glyph glyph-name="icircumflex" unicode="&#xee;" 
d="M394 531v-423h136v-108h-444v108h150v315h-145v108h303zM166 611l-57 65l142 139h96l141 -139l-56 -65l-133 94z" />
    <glyph glyph-name="idieresis" unicode="&#xef;" 
d="M394 531v-423h136v-108h-444v108h150v315h-145v108h303zM125 660.5q-24 23.5 -24 57.5q0 33 24 56t58 23q35 0 59 -23t24 -56q0 -34 -24 -57.5t-59 -23.5q-34 0 -58 23.5zM356.5 660.5q-24.5 23.5 -24.5 57.5q0 33 24.5 56t58.5 23t58 -23t24 -56q0 -34 -23.5 -57.5
t-58.5 -23.5q-34 0 -58.5 23.5z" />
    <glyph glyph-name="i.loclTRK" 
d="M394 531v-423h136v-108h-444v108h150v315h-145v108h303zM366 783.5q26 -25.5 26 -63.5q0 -39 -26 -64t-67 -25t-67.5 25.5t-26.5 63.5t26.5 63.5t67.5 25.5t67 -25.5z" />
    <glyph glyph-name="igrave" unicode="&#xec;" 
d="M394 531v-423h136v-108h-444v108h150v315h-145v108h303zM398 622l-236 94l61 119l218 -133z" />
    <glyph glyph-name="ij" unicode="&#x133;" 
d="M250.5 783.5q26.5 -25.5 26.5 -63.5q0 -39 -26.5 -64t-68.5 -25q-40 0 -66.5 25.5t-26.5 63.5t26.5 63.5t66.5 25.5q42 0 68.5 -25.5zM523 783.5q27 -25.5 27 -63.5t-27 -63.5t-67 -25.5q-41 0 -67.5 25.5t-26.5 63.5t26.5 63.5t67.5 25.5q40 0 67 -25.5zM545 122
q0 -101 -34 -166.5t-98.5 -106t-167.5 -71.5l-52 117q71 22 112 46t62 63.5t21 103.5v316h-128v-316h52v-108h-277v108h69v316h-64v107h505v-409z" />
    <glyph glyph-name="imacron" unicode="&#x12b;" 
d="M394 531v-423h136v-108h-444v108h150v315h-145v108h303zM452 658h-306v109h306v-109z" />
    <glyph glyph-name="iogonek" unicode="&#x12f;" 
d="M231.5 656.5q-26.5 25.5 -26.5 63.5t26.5 63.5t67.5 25.5t67 -25.5t26 -63.5q0 -39 -26 -64t-67 -25t-67.5 25.5zM530 108v-108h-136q-65 -22 -90 -49t-25 -61q0 -24 15.5 -36.5t42.5 -12.5q24 0 54 7l-12 -93q-29 -8 -59 -8q-66 0 -108.5 32.5t-42.5 90.5q0 83 80 130
h-163v108h150v315h-145v108h303v-423h136z" />
    <glyph glyph-name="itilde" unicode="&#x129;" 
d="M394 531v-423h136v-108h-444v108h150v315h-145v108h303zM317 642q-16 7 -35 20q-25 18 -41 18q-18 0 -29 -10t-24 -34l-79 38q21 53 53.5 85.5t75.5 32.5q23 0 39.5 -7t35.5 -20q13 -9 22 -13.5t19 -4.5q16 0 27 10t25 33l79 -38q-21 -53 -54 -85t-76 -32q-22 0 -38 7z
" />
    <glyph glyph-name="j" unicode="j" 
d="M436.5 783.5q26.5 -25.5 26.5 -63.5t-26.5 -63.5t-66.5 -25.5q-42 0 -68 25t-26 64q0 38 26.5 63.5t67.5 25.5q40 0 66.5 -25.5zM472 154q0 -113 -42 -187.5t-124.5 -119t-211.5 -69.5l-24 121q85 19 137.5 47t79.5 75.5t27 122.5v279h-190v108h348v-377z" />
    <glyph glyph-name="uni0237" unicode="&#x237;" 
d="M472 154q0 -113 -42 -187.5t-124.5 -119t-211.5 -69.5l-24 121q85 19 137.5 47t79.5 75.5t27 122.5v279h-190v108h348v-377z" />
    <glyph glyph-name="jcircumflex" unicode="&#x135;" 
d="M472 154q0 -113 -42 -187.5t-124.5 -119t-211.5 -69.5l-24 121q85 19 137.5 47t79.5 75.5t27 122.5v279h-190v108h348v-377zM237 611l-57 65l142 139h96l141 -139l-56 -65l-133 94z" />
    <glyph glyph-name="k" unicode="k" 
d="M228 759v-759h-158v742zM574 531l-175 -235l189 -296h-180l-174 291l175 240h165z" />
    <glyph glyph-name="kcommaaccent" unicode="&#x137;" 
d="M228 759v-759h-158v742zM574 531l-175 -235l189 -296h-180l-174 291l175 240h165zM356 -87q22 -22 22 -56q0 -36 -23 -82l-49 -97h-80l27 115q-32 27 -32 64q0 33 22.5 55.5t56.5 22.5t56 -22z" />
    <glyph glyph-name="kgreenlandic" unicode="&#x138;" 
d="M228 531v-531h-158v531h158zM574 531l-176 -244l190 -287h-180l-174 276l175 255h165z" />
    <glyph glyph-name="l" unicode="l" 
d="M347 167q0 -59 68 -59q37 0 76 16l37 -106q-64 -35 -153 -35q-93 0 -139.5 53.5t-46.5 150.5v447h-156v108h314v-575z" />
    <glyph glyph-name="lacute" unicode="&#x13a;" 
d="M347 167q0 -59 68 -59q37 0 76 16l37 -106q-64 -35 -153 -35q-93 0 -139.5 53.5t-46.5 150.5v447h-156v108h314v-575zM332 1046l62 -119l-237 -94l-43 81z" />
    <glyph glyph-name="lcaron" unicode="&#x13e;" 
d="M347 167q0 -59 68 -59q37 0 76 16l37 -106q-64 -35 -153 -35q-93 0 -139.5 53.5t-46.5 150.5v447h-156v108h314v-575zM419 764l139 -17l-78 -232l-98 16z" />
    <glyph glyph-name="lcommaaccent" unicode="&#x13c;" 
d="M347 167q0 -59 68 -59q37 0 76 16l37 -106q-64 -35 -153 -35q-93 0 -139.5 53.5t-46.5 150.5v447h-156v108h314v-575zM411 -87q22 -22 22 -56q0 -36 -23 -82l-49 -97h-80l27 115q-32 27 -32 64q0 33 22.5 55.5t56.5 22.5t56 -22z" />
    <glyph glyph-name="ldot" unicode="&#x140;" 
d="M347 167q0 -59 68 -59q37 0 76 16l37 -106q-64 -35 -153 -35q-93 0 -139.5 53.5t-46.5 150.5v447h-156v108h314v-575zM635 446.5q26 -25.5 26 -63.5q0 -39 -26 -64t-67 -25t-67.5 25.5t-26.5 63.5t26.5 63.5t67.5 25.5t67 -25.5z" />
    <glyph glyph-name="lslash" unicode="&#x142;" 
d="M528 18q-64 -35 -153 -35q-93 0 -139.5 53.5t-46.5 150.5v71l-45 -27l-55 88l100 61v254h-156v108h314v-265l65 40l56 -89l-121 -74v-187q0 -59 68 -59q37 0 76 16z" />
    <glyph glyph-name="m" unicode="m" 
d="M546.5 511.5q26.5 -37.5 26.5 -118.5v-393h-135v375q0 29 -5.5 40t-20.5 11q-28 0 -55 -35v-391h-112v375q0 29 -5.5 40t-20.5 11q-28 0 -55 -35v-391h-137v531h115l11 -51q26 36 51.5 52.5t59.5 16.5q31 0 52 -15.5t30 -47.5q54 63 117 63q57 0 83.5 -37.5z" />
    <glyph glyph-name="n" unicode="n" 
d="M70 531h138l11 -61q36 40 75.5 59.5t89.5 19.5q69 0 107.5 -42t38.5 -117v-390h-158v344q0 50 -11 69t-40 19q-24 0 -46.5 -15.5t-46.5 -45.5v-371h-158v531z" />
    <glyph glyph-name="nacute" unicode="&#x144;" 
d="M70 531h138l11 -61q36 40 75.5 59.5t89.5 19.5q69 0 107.5 -42t38.5 -117v-390h-158v344q0 50 -11 69t-40 19q-24 0 -46.5 -15.5t-46.5 -45.5v-371h-158v531zM377 835l62 -119l-237 -94l-43 81z" />
    <glyph glyph-name="napostrophe" unicode="&#x149;" 
d="M114 742.5q22 -21.5 22 -53.5q0 -18 -5.5 -34t-18.5 -40l-41 -80h-78l21 92q-31 26 -31 62q0 31 22 53t54 22q33 0 55 -21.5zM90 531h138l11 -61q36 40 75.5 59.5t89.5 19.5q69 0 107.5 -42t38.5 -117v-390h-158v344q0 50 -11 69t-40 19q-24 0 -46.5 -15.5t-46.5 -45.5
v-371h-158v531z" />
    <glyph glyph-name="ncaron" unicode="&#x148;" 
d="M70 531h138l11 -61q36 40 75.5 59.5t89.5 19.5q69 0 107.5 -42t38.5 -117v-390h-158v344q0 50 -11 69t-40 19q-24 0 -46.5 -15.5t-46.5 -45.5v-371h-158v531zM434 815l56 -64l-141 -140h-96l-142 140l57 64l133 -94z" />
    <glyph glyph-name="ncommaaccent" unicode="&#x146;" 
d="M70 531h138l11 -61q36 40 75.5 59.5t89.5 19.5q69 0 107.5 -42t38.5 -117v-390h-158v344q0 50 -11 69t-40 19q-24 0 -46.5 -15.5t-46.5 -45.5v-371h-158v531zM357 -87q22 -22 22 -56q0 -36 -23 -82l-49 -97h-80l27 115q-32 27 -32 64q0 33 22.5 55.5t56.5 22.5t56 -22z
" />
    <glyph glyph-name="eng" unicode="&#x14b;" 
d="M505 -76q-25 -53 -69.5 -84.5t-116.5 -61.5l-56 116q39 17 61.5 34.5t35 46.5t12.5 75v294q0 50 -10.5 69t-40.5 19q-24 0 -46.5 -16.5t-46.5 -48.5v-367h-158v531h138l11 -61q70 79 165 79q70 0 108 -41.5t38 -117.5v-330q0 -83 -25 -136z" />
    <glyph glyph-name="ntilde" unicode="&#xf1;" 
d="M70 531h138l11 -61q36 40 75.5 59.5t89.5 19.5q69 0 107.5 -42t38.5 -117v-390h-158v344q0 50 -11 69t-40 19q-24 0 -46.5 -15.5t-46.5 -45.5v-371h-158v531zM319 642q-16 7 -35 20q-25 18 -41 18q-18 0 -29 -10t-24 -34l-79 38q21 53 53.5 85.5t75.5 32.5q23 0 39.5 -7
t35.5 -20q13 -9 22 -13.5t19 -4.5q16 0 27 10t25 33l79 -38q-21 -53 -54 -85t-76 -32q-22 0 -38 7z" />
    <glyph glyph-name="o" unicode="o" 
d="M489.5 472.5q68.5 -76.5 68.5 -205.5q0 -134 -68 -209t-190 -75t-190 74.5t-68 208.5q0 85 30.5 148.5t89 99t138.5 35.5q121 0 189.5 -76.5zM228 392.5q-23 -39.5 -23 -126.5q0 -88 23 -127.5t72 -39.5t72 40t23 128q0 86 -23 125.5t-72 39.5t-72 -39.5z" />
    <glyph glyph-name="oacute" unicode="&#xf3;" 
d="M489.5 472.5q68.5 -76.5 68.5 -205.5q0 -134 -68 -209t-190 -75t-190 74.5t-68 208.5q0 85 30.5 148.5t89 99t138.5 35.5q121 0 189.5 -76.5zM228 392.5q-23 -39.5 -23 -126.5q0 -88 23 -127.5t72 -39.5t72 40t23 128q0 86 -23 125.5t-72 39.5t-72 -39.5zM376 835
l62 -119l-237 -94l-43 81z" />
    <glyph glyph-name="obreve" unicode="&#x14f;" 
d="M489.5 472.5q68.5 -76.5 68.5 -205.5q0 -134 -68 -209t-190 -75t-190 74.5t-68 208.5q0 85 30.5 148.5t89 99t138.5 35.5q121 0 189.5 -76.5zM228 392.5q-23 -39.5 -23 -126.5q0 -88 23 -127.5t72 -39.5t72 40t23 128q0 86 -23 125.5t-72 39.5t-72 -39.5zM178.5 662.5
q-43.5 50.5 -50.5 123.5l87 15q9 -38 30.5 -59.5t54.5 -21.5t54.5 21.5t30.5 59.5l87 -15q-7 -72 -51 -123t-121 -51q-78 0 -121.5 50.5z" />
    <glyph glyph-name="ocircumflex" unicode="&#xf4;" 
d="M489.5 472.5q68.5 -76.5 68.5 -205.5q0 -134 -68 -209t-190 -75t-190 74.5t-68 208.5q0 85 30.5 148.5t89 99t138.5 35.5q121 0 189.5 -76.5zM228 392.5q-23 -39.5 -23 -126.5q0 -88 23 -127.5t72 -39.5t72 40t23 128q0 86 -23 125.5t-72 39.5t-72 -39.5zM167 611l-57 65
l142 139h96l141 -139l-56 -65l-133 94z" />
    <glyph glyph-name="odieresis" unicode="&#xf6;" 
d="M489.5 472.5q68.5 -76.5 68.5 -205.5q0 -134 -68 -209t-190 -75t-190 74.5t-68 208.5q0 85 30.5 148.5t89 99t138.5 35.5q121 0 189.5 -76.5zM228 392.5q-23 -39.5 -23 -126.5q0 -88 23 -127.5t72 -39.5t72 40t23 128q0 86 -23 125.5t-72 39.5t-72 -39.5zM126 660.5
q-24 23.5 -24 57.5q0 33 24 56t58 23q35 0 59 -23t24 -56q0 -34 -24 -57.5t-59 -23.5q-34 0 -58 23.5zM357.5 660.5q-24.5 23.5 -24.5 57.5q0 33 24.5 56t58.5 23t58 -23t24 -56q0 -34 -23.5 -57.5t-58.5 -23.5q-34 0 -58.5 23.5z" />
    <glyph glyph-name="ograve" unicode="&#xf2;" 
d="M489.5 472.5q68.5 -76.5 68.5 -205.5q0 -134 -68 -209t-190 -75t-190 74.5t-68 208.5q0 85 30.5 148.5t89 99t138.5 35.5q121 0 189.5 -76.5zM228 392.5q-23 -39.5 -23 -126.5q0 -88 23 -127.5t72 -39.5t72 40t23 128q0 86 -23 125.5t-72 39.5t-72 -39.5zM399 622
l-236 94l61 119l218 -133z" />
    <glyph glyph-name="ohungarumlaut" unicode="&#x151;" 
d="M489.5 472.5q68.5 -76.5 68.5 -205.5q0 -134 -68 -209t-190 -75t-190 74.5t-68 208.5q0 85 30.5 148.5t89 99t138.5 35.5q121 0 189.5 -76.5zM228 392.5q-23 -39.5 -23 -126.5q0 -88 23 -127.5t72 -39.5t72 40t23 128q0 86 -23 125.5t-72 39.5t-72 -39.5zM160 661l99 196
l107 -49l-124 -183zM323 663l100 194l106 -51l-125 -182z" />
    <glyph glyph-name="omacron" unicode="&#x14d;" 
d="M489.5 472.5q68.5 -76.5 68.5 -205.5q0 -134 -68 -209t-190 -75t-190 74.5t-68 208.5q0 85 30.5 148.5t89 99t138.5 35.5q121 0 189.5 -76.5zM228 392.5q-23 -39.5 -23 -126.5q0 -88 23 -127.5t72 -39.5t72 40t23 128q0 86 -23 125.5t-72 39.5t-72 -39.5zM453 658h-306
v109h306v-109z" />
    <glyph glyph-name="oslash" unicode="&#xf8;" 
d="M529 412.5q29 -62.5 29 -145.5q0 -134 -68 -209t-190 -75q-21 0 -32 1l-36 -121l-116 34l40 122q-55 34 -84.5 97t-29.5 150q0 85 30.5 148.5t89 99t138.5 35.5l32 -1l38 115l114 -34l-39 -119q55 -35 84 -97.5zM225.5 395q-23.5 -40 -23.5 -129q0 -94 18 -131l96 299
q-5 1 -16 1q-51 0 -74.5 -40zM374.5 136q23.5 40 23.5 131q0 89 -17 126l-94 -297h13q51 0 74.5 40z" />
    <glyph glyph-name="oslashacute" unicode="&#x1ff;" 
d="M529 412.5q29 -62.5 29 -145.5q0 -134 -68 -209t-190 -75q-21 0 -32 1l-36 -121l-116 34l40 122q-55 34 -84.5 97t-29.5 150q0 85 30.5 148.5t89 99t138.5 35.5l32 -1l38 115l114 -34l-39 -119q55 -35 84 -97.5zM225.5 395q-23.5 -40 -23.5 -129q0 -94 18 -131l96 299
q-5 1 -16 1q-51 0 -74.5 -40zM374.5 136q23.5 40 23.5 131q0 89 -17 126l-94 -297h13q51 0 74.5 40zM376 835l62 -119l-237 -94l-43 81z" />
    <glyph glyph-name="otilde" unicode="&#xf5;" 
d="M489.5 472.5q68.5 -76.5 68.5 -205.5q0 -134 -68 -209t-190 -75t-190 74.5t-68 208.5q0 85 30.5 148.5t89 99t138.5 35.5q121 0 189.5 -76.5zM228 392.5q-23 -39.5 -23 -126.5q0 -88 23 -127.5t72 -39.5t72 40t23 128q0 86 -23 125.5t-72 39.5t-72 -39.5zM318 642
q-16 7 -35 20q-25 18 -41 18q-18 0 -29 -10t-24 -34l-79 38q21 53 53.5 85.5t75.5 32.5q23 0 39.5 -7t35.5 -20q13 -9 22 -13.5t19 -4.5q16 0 27 10t25 33l79 -38q-21 -53 -54 -85t-76 -32q-22 0 -38 7z" />
    <glyph glyph-name="oe" unicode="&#x153;" 
d="M567 481q39 -68 39 -205q0 -26 -3 -50h-234q6 -72 29 -105.5t64 -33.5q22 0 41.5 7.5t42.5 24.5l60 -79q-67 -57 -152 -57q-102 0 -152 80q-19 -39 -49 -59.5t-77 -20.5q-93 0 -138.5 73t-45.5 210q0 132 45.5 207.5t138.5 75.5q49 0 79.5 -21.5t49.5 -62.5q45 84 133 84
q90 0 129 -68zM387 419q-15 -31 -19 -107h119q-1 75 -12 106.5t-43 31.5q-30 0 -45 -31zM136 394.5q-13 -37.5 -13 -128.5q0 -64 5.5 -100t18.5 -51.5t35 -15.5t34.5 15.5t18.5 51.5t6 101q0 90 -13.5 127.5t-45.5 37.5q-33 0 -46 -37.5z" />
    <glyph glyph-name="p" unicode="p" 
d="M511 475.5q47 -73.5 47 -208.5q0 -82 -24.5 -146.5t-70.5 -101t-109 -36.5q-77 0 -126 55v-243l-158 -17v753h140l7 -59q31 39 69.5 58t77.5 19q100 0 147 -73.5zM228 370v-224q17 -24 35.5 -35.5t42.5 -11.5q44 0 66.5 39.5t22.5 126.5q0 94 -20 130.5t-60 36.5
q-50 0 -87 -62z" />
    <glyph glyph-name="thorn" unicode="&#xfe;" 
d="M228 478q24 34 59 52.5t77 18.5q100 0 147 -73.5t47 -208.5q0 -82 -24.5 -146.5t-70.5 -101t-109 -36.5q-77 0 -126 55v-243l-158 -17v964l158 17v-281zM228 370v-224q17 -24 35.5 -35.5t42.5 -11.5q44 0 66.5 39.5t22.5 126.5q0 94 -20 130.5t-60 36.5q-50 0 -87 -62z
" />
    <glyph glyph-name="q" unicode="q" 
d="M327.5 533.5q33.5 -15.5 57.5 -45.5l7 43h138v-753l-158 17v250q-52 -62 -136 -62q-99 0 -146.5 75t-47.5 209q0 82 25 146t73 100t115 36q39 0 72.5 -15.5zM228 393q-23 -40 -23 -127q0 -93 20.5 -129.5t60.5 -36.5q51 0 86 60v229q-16 22 -34.5 33t-41.5 11
q-45 0 -68 -40z" />
    <glyph glyph-name="r" unicode="r" 
d="M563 531l-29 -222h-100v97q-44 -7 -78 -47t-53 -101v-152h105v-106h-333v106h70v320h-70v105h191l28 -119q29 68 73 101.5t108 33.5q48 0 88 -16z" />
    <glyph glyph-name="racute" unicode="&#x155;" 
d="M563 531l-29 -222h-100v97q-44 -7 -78 -47t-53 -101v-152h105v-106h-333v106h70v320h-70v105h191l28 -119q29 68 73 101.5t108 33.5q48 0 88 -16zM401 835l62 -119l-237 -94l-43 81z" />
    <glyph glyph-name="rcaron" unicode="&#x159;" 
d="M563 531l-29 -222h-100v97q-44 -7 -78 -47t-53 -101v-152h105v-106h-333v106h70v320h-70v105h191l28 -119q29 68 73 101.5t108 33.5q48 0 88 -16zM458 815l56 -64l-141 -140h-96l-142 140l57 64l133 -94z" />
    <glyph glyph-name="rcommaaccent" unicode="&#x157;" 
d="M563 531l-29 -222h-100v97q-44 -7 -78 -47t-53 -101v-152h105v-106h-333v106h70v320h-70v105h191l28 -119q29 68 73 101.5t108 33.5q48 0 88 -16zM280 -87q22 -22 22 -56q0 -36 -23 -82l-49 -97h-80l27 115q-32 27 -32 64q0 33 22.5 55.5t56.5 22.5t56 -22z" />
    <glyph glyph-name="s" unicode="s" 
d="M347.5 108.5q23.5 12.5 23.5 37.5q0 18 -9.5 29t-35.5 21.5t-81 25.5q-80 21 -122 58.5t-42 103.5q0 73 60.5 119t169.5 46q126 0 215 -65l-63 -93q-73 45 -147 45q-39 0 -57.5 -10t-18.5 -31q0 -14 9.5 -23.5t36 -19.5t79.5 -25q57 -16 93.5 -35t56.5 -51t20 -82
q0 -56 -34 -96t-91 -60t-126 -20q-74 0 -134 21t-102 59l79 89q72 -56 156 -56q41 0 64.5 12.5z" />
    <glyph glyph-name="sacute" unicode="&#x15b;" 
d="M347.5 108.5q23.5 12.5 23.5 37.5q0 18 -9.5 29t-35.5 21.5t-81 25.5q-80 21 -122 58.5t-42 103.5q0 73 60.5 119t169.5 46q126 0 215 -65l-63 -93q-73 45 -147 45q-39 0 -57.5 -10t-18.5 -31q0 -14 9.5 -23.5t36 -19.5t79.5 -25q57 -16 93.5 -35t56.5 -51t20 -82
q0 -56 -34 -96t-91 -60t-126 -20q-74 0 -134 21t-102 59l79 89q72 -56 156 -56q41 0 64.5 12.5zM389 835l62 -119l-237 -94l-43 81z" />
    <glyph glyph-name="scaron" unicode="&#x161;" 
d="M347.5 108.5q23.5 12.5 23.5 37.5q0 18 -9.5 29t-35.5 21.5t-81 25.5q-80 21 -122 58.5t-42 103.5q0 73 60.5 119t169.5 46q126 0 215 -65l-63 -93q-73 45 -147 45q-39 0 -57.5 -10t-18.5 -31q0 -14 9.5 -23.5t36 -19.5t79.5 -25q57 -16 93.5 -35t56.5 -51t20 -82
q0 -56 -34 -96t-91 -60t-126 -20q-74 0 -134 21t-102 59l79 89q72 -56 156 -56q41 0 64.5 12.5zM446 815l56 -64l-141 -140h-96l-142 140l57 64l133 -94z" />
    <glyph glyph-name="scedilla" unicode="&#x15f;" 
d="M478 40q-57 -45 -147 -55v-33q51 -6 77 -32t26 -67q0 -51 -41 -83t-108 -32q-34 0 -64.5 8.5t-52.5 21.5l36 73q34 -17 64 -17q53 0 53 31q0 19 -22 26t-70 7l11 97q-117 11 -192 78l79 89q72 -56 156 -56q41 0 64.5 12.5t23.5 37.5q0 18 -9.5 29t-35.5 21.5t-81 25.5
q-80 21 -122 58.5t-42 103.5q0 73 60.5 119t169.5 46q126 0 215 -65l-63 -93q-73 45 -147 45q-39 0 -57.5 -10t-18.5 -31q0 -14 9.5 -23.5t36 -19.5t79.5 -25q57 -16 93.5 -35t56.5 -51t20 -82q0 -74 -57 -119z" />
    <glyph glyph-name="scircumflex" unicode="&#x15d;" 
d="M347.5 108.5q23.5 12.5 23.5 37.5q0 18 -9.5 29t-35.5 21.5t-81 25.5q-80 21 -122 58.5t-42 103.5q0 73 60.5 119t169.5 46q126 0 215 -65l-63 -93q-73 45 -147 45q-39 0 -57.5 -10t-18.5 -31q0 -14 9.5 -23.5t36 -19.5t79.5 -25q57 -16 93.5 -35t56.5 -51t20 -82
q0 -56 -34 -96t-91 -60t-126 -20q-74 0 -134 21t-102 59l79 89q72 -56 156 -56q41 0 64.5 12.5zM180 611l-57 65l142 139h96l141 -139l-56 -65l-133 94z" />
    <glyph glyph-name="scommaaccent" unicode="&#x219;" 
d="M347.5 108.5q23.5 12.5 23.5 37.5q0 18 -9.5 29t-35.5 21.5t-81 25.5q-80 21 -122 58.5t-42 103.5q0 73 60.5 119t169.5 46q126 0 215 -65l-63 -93q-73 45 -147 45q-39 0 -57.5 -10t-18.5 -31q0 -14 9.5 -23.5t36 -19.5t79.5 -25q57 -16 93.5 -35t56.5 -51t20 -82
q0 -56 -34 -96t-91 -60t-126 -20q-74 0 -134 21t-102 59l79 89q72 -56 156 -56q41 0 64.5 12.5zM357 -87q22 -22 22 -56q0 -36 -23 -82l-49 -97h-80l27 115q-32 27 -32 64q0 33 22.5 55.5t56.5 22.5t56 -22z" />
    <glyph glyph-name="germandbls" unicode="&#xdf;" 
d="M399.5 738.5q45.5 -20.5 69.5 -56t24 -79.5q0 -33 -13 -55t-39 -49q-19 -20 -28.5 -34.5t-9.5 -32.5q0 -20 15 -36t46 -39q35 -26 57.5 -48t39 -57t16.5 -84q0 -86 -56 -135.5t-145 -49.5q-70 0 -127 31l50 106q32 -15 57 -15q29 0 44 16t15 46q0 35 -17.5 57.5
t-52.5 48.5q-27 22 -42.5 37t-26.5 38.5t-11 55.5t10.5 55.5t30.5 52.5q18 27 26 44.5t8 39.5q0 25 -14 38.5t-39 13.5q-36 0 -52.5 -27t-16.5 -83v-538h-158v531q0 109 59 168.5t172 59.5q63 0 108.5 -20.5z" />
    <glyph glyph-name="t" unicode="t" 
d="M374 -17q-102 0 -153.5 52t-51.5 146v241h-111v109h111v115l158 19v-134h171l-16 -109h-155v-241q0 -39 18 -56t58 -17q50 0 93 24l52 -101q-75 -48 -174 -48z" />
    <glyph glyph-name="tbar" unicode="&#x167;" 
d="M548 31q-75 -48 -174 -48q-102 0 -153.5 52t-51.5 146v81h-99v99h99v61h-111v109h111v115l158 19v-134h171l-16 -109h-155v-61h154v-99h-154v-81q0 -39 18 -56t58 -17q50 0 93 24z" />
    <glyph glyph-name="tcaron" unicode="&#x165;" 
d="M374 -17q-102 0 -153.5 52t-51.5 146v241h-111v109h111v115l158 19v-134h171l-16 -109h-155v-241q0 -39 18 -56t58 -17q50 0 93 24l52 -101q-75 -48 -174 -48zM396 832l139 -17l-78 -232l-98 16z" />
    <glyph glyph-name="uni0163" unicode="&#x163;" 
d="M467 -80q26 -26 26 -67q0 -51 -41 -83t-108 -32q-34 0 -64.5 8.5t-52.5 21.5l36 73q34 -17 64 -17q53 0 53 31q0 19 -22 26t-70 7l11 104q-65 17 -97.5 65.5t-32.5 123.5v241h-111v109h111v115l158 19v-134h171l-16 -109h-155v-241q0 -39 18 -56t58 -17q50 0 93 24
l52 -101q-69 -44 -158 -48v-31q51 -6 77 -32z" />
    <glyph glyph-name="uni021B" unicode="&#x21b;" 
d="M374 -17q-102 0 -153.5 52t-51.5 146v241h-111v109h111v115l158 19v-134h171l-16 -109h-155v-241q0 -39 18 -56t58 -17q50 0 93 24l52 -101q-75 -48 -174 -48zM416 -87q22 -22 22 -56q0 -36 -23 -82l-49 -97h-80l27 115q-32 27 -32 64q0 33 22.5 55.5t56.5 22.5t56 -22z
" />
    <glyph glyph-name="u" unicode="u" 
d="M228 168q0 -37 13.5 -52.5t40.5 -15.5q24 0 49 15.5t41 42.5v373h158v-531h-138l-7 62q-26 -38 -70 -58.5t-93 -20.5q-75 0 -113.5 43.5t-38.5 121.5v383h158v-363z" />
    <glyph glyph-name="uacute" unicode="&#xfa;" 
d="M228 168q0 -37 13.5 -52.5t40.5 -15.5q24 0 49 15.5t41 42.5v373h158v-531h-138l-7 62q-26 -38 -70 -58.5t-93 -20.5q-75 0 -113.5 43.5t-38.5 121.5v383h158v-363zM376 835l62 -119l-237 -94l-43 81z" />
    <glyph glyph-name="ubreve" unicode="&#x16d;" 
d="M228 168q0 -37 13.5 -52.5t40.5 -15.5q24 0 49 15.5t41 42.5v373h158v-531h-138l-7 62q-26 -38 -70 -58.5t-93 -20.5q-75 0 -113.5 43.5t-38.5 121.5v383h158v-363zM178.5 662.5q-43.5 50.5 -50.5 123.5l87 15q9 -38 30.5 -59.5t54.5 -21.5t54.5 21.5t30.5 59.5l87 -15
q-7 -72 -51 -123t-121 -51q-78 0 -121.5 50.5z" />
    <glyph glyph-name="ucircumflex" unicode="&#xfb;" 
d="M228 168q0 -37 13.5 -52.5t40.5 -15.5q24 0 49 15.5t41 42.5v373h158v-531h-138l-7 62q-26 -38 -70 -58.5t-93 -20.5q-75 0 -113.5 43.5t-38.5 121.5v383h158v-363zM167 611l-57 65l142 139h96l141 -139l-56 -65l-133 94z" />
    <glyph glyph-name="udieresis" unicode="&#xfc;" 
d="M228 168q0 -37 13.5 -52.5t40.5 -15.5q24 0 49 15.5t41 42.5v373h158v-531h-138l-7 62q-26 -38 -70 -58.5t-93 -20.5q-75 0 -113.5 43.5t-38.5 121.5v383h158v-363zM126 660.5q-24 23.5 -24 57.5q0 33 24 56t58 23q35 0 59 -23t24 -56q0 -34 -24 -57.5t-59 -23.5
q-34 0 -58 23.5zM357.5 660.5q-24.5 23.5 -24.5 57.5q0 33 24.5 56t58.5 23t58 -23t24 -56q0 -34 -23.5 -57.5t-58.5 -23.5q-34 0 -58.5 23.5z" />
    <glyph glyph-name="ugrave" unicode="&#xf9;" 
d="M228 168q0 -37 13.5 -52.5t40.5 -15.5q24 0 49 15.5t41 42.5v373h158v-531h-138l-7 62q-26 -38 -70 -58.5t-93 -20.5q-75 0 -113.5 43.5t-38.5 121.5v383h158v-363zM399 622l-236 94l61 119l218 -133z" />
    <glyph glyph-name="uhungarumlaut" unicode="&#x171;" 
d="M228 168q0 -37 13.5 -52.5t40.5 -15.5q24 0 49 15.5t41 42.5v373h158v-531h-138l-7 62q-26 -38 -70 -58.5t-93 -20.5q-75 0 -113.5 43.5t-38.5 121.5v383h158v-363zM160 661l99 196l107 -49l-124 -183zM323 663l100 194l106 -51l-125 -182z" />
    <glyph glyph-name="umacron" unicode="&#x16b;" 
d="M228 168q0 -37 13.5 -52.5t40.5 -15.5q24 0 49 15.5t41 42.5v373h158v-531h-138l-7 62q-26 -38 -70 -58.5t-93 -20.5q-75 0 -113.5 43.5t-38.5 121.5v383h158v-363zM453 658h-306v109h306v-109z" />
    <glyph glyph-name="uogonek" unicode="&#x173;" 
d="M440 -49q-25 -27 -25 -61q0 -24 15.5 -36.5t42.5 -12.5q24 0 54 7l-12 -93q-29 -8 -59 -8q-66 0 -108.5 32.5t-42.5 90.5q0 46 22.5 78t64.5 56l-7 58q-26 -38 -70 -58.5t-93 -20.5q-75 0 -113.5 43.5t-38.5 121.5v383h158v-363q0 -37 13.5 -52.5t40.5 -15.5
q24 0 49 15.5t41 42.5v373h158v-531q-65 -22 -90 -49z" />
    <glyph glyph-name="uring" unicode="&#x16f;" 
d="M228 168q0 -37 13.5 -52.5t40.5 -15.5q24 0 49 15.5t41 42.5v373h158v-531h-138l-7 62q-26 -38 -70 -58.5t-93 -20.5q-75 0 -113.5 43.5t-38.5 121.5v383h158v-363zM400 827q38 -38 38 -93t-38.5 -94t-100.5 -39q-41 0 -72.5 18t-48.5 48.5t-17 66.5q0 54 38 92.5
t100 38.5q63 0 101 -38zM267 770.5q-12 -12.5 -12 -36.5q0 -25 12 -38t32 -13q21 0 33 13t12 38q0 24 -12 36.5t-33 12.5q-20 0 -32 -12.5z" />
    <glyph glyph-name="utilde" unicode="&#x169;" 
d="M228 168q0 -37 13.5 -52.5t40.5 -15.5q24 0 49 15.5t41 42.5v373h158v-531h-138l-7 62q-26 -38 -70 -58.5t-93 -20.5q-75 0 -113.5 43.5t-38.5 121.5v383h158v-363zM318 642q-16 7 -35 20q-25 18 -41 18q-18 0 -29 -10t-24 -34l-79 38q21 53 53.5 85.5t75.5 32.5
q23 0 39.5 -7t35.5 -20q13 -9 22 -13.5t19 -4.5q16 0 27 10t25 33l79 -38q-21 -53 -54 -85t-76 -32q-22 0 -38 7z" />
    <glyph glyph-name="v" unicode="v" 
d="M571 531l-177 -531h-186l-179 531h171l103 -410l108 410h160z" />
    <glyph glyph-name="w" unicode="w" 
d="M521 0h-174l-46 357l-48 -357h-171l-79 531h145l35 -432l55 365h134l49 -365l36 432h140z" />
    <glyph glyph-name="wacute" unicode="&#x1e83;" 
d="M521 0h-174l-46 357l-48 -357h-171l-79 531h145l35 -432l55 365h134l49 -365l36 432h140zM376 835l62 -119l-237 -94l-43 81z" />
    <glyph glyph-name="wcircumflex" unicode="&#x175;" 
d="M521 0h-174l-46 357l-48 -357h-171l-79 531h145l35 -432l55 365h134l49 -365l36 432h140zM167 611l-57 65l142 139h96l141 -139l-56 -65l-133 94z" />
    <glyph glyph-name="wdieresis" unicode="&#x1e85;" 
d="M521 0h-174l-46 357l-48 -357h-171l-79 531h145l35 -432l55 365h134l49 -365l36 432h140zM126 660.5q-24 23.5 -24 57.5q0 33 24 56t58 23q35 0 59 -23t24 -56q0 -34 -24 -57.5t-59 -23.5q-34 0 -58 23.5zM357.5 660.5q-24.5 23.5 -24.5 57.5q0 33 24.5 56t58.5 23
t58 -23t24 -56q0 -34 -23.5 -57.5t-58.5 -23.5q-34 0 -58.5 23.5z" />
    <glyph glyph-name="wgrave" unicode="&#x1e81;" 
d="M521 0h-174l-46 357l-48 -357h-171l-79 531h145l35 -432l55 365h134l49 -365l36 432h140zM399 622l-236 94l61 119l218 -133z" />
    <glyph glyph-name="x" unicode="x" 
d="M193 0h-171l182 279l-165 252h177l85 -170l82 170h168l-156 -246l183 -285h-179l-105 199z" />
    <glyph glyph-name="y" unicode="y" 
d="M395 0q-36 -107 -107 -161.5t-190 -61.5l-18 112q76 10 112.5 34t58.5 77h-55l-168 531h167l103 -430l112 430h162z" />
    <glyph glyph-name="yacute" unicode="&#xfd;" 
d="M395 0q-36 -107 -107 -161.5t-190 -61.5l-18 112q76 10 112.5 34t58.5 77h-55l-168 531h167l103 -430l112 430h162zM376 835l62 -119l-237 -94l-43 81z" />
    <glyph glyph-name="ycircumflex" unicode="&#x177;" 
d="M395 0q-36 -107 -107 -161.5t-190 -61.5l-18 112q76 10 112.5 34t58.5 77h-55l-168 531h167l103 -430l112 430h162zM167 611l-57 65l142 139h96l141 -139l-56 -65l-133 94z" />
    <glyph glyph-name="ydieresis" unicode="&#xff;" 
d="M395 0q-36 -107 -107 -161.5t-190 -61.5l-18 112q76 10 112.5 34t58.5 77h-55l-168 531h167l103 -430l112 430h162zM126 660.5q-24 23.5 -24 57.5q0 33 24 56t58 23q35 0 59 -23t24 -56q0 -34 -24 -57.5t-59 -23.5q-34 0 -58 23.5zM357.5 660.5q-24.5 23.5 -24.5 57.5
q0 33 24.5 56t58.5 23t58 -23t24 -56q0 -34 -23.5 -57.5t-58.5 -23.5q-34 0 -58.5 23.5z" />
    <glyph glyph-name="ygrave" unicode="&#x1ef3;" 
d="M395 0q-36 -107 -107 -161.5t-190 -61.5l-18 112q76 10 112.5 34t58.5 77h-55l-168 531h167l103 -430l112 430h162zM399 622l-236 94l61 119l218 -133z" />
    <glyph glyph-name="z" unicode="z" 
d="M259 120h265l-15 -120h-437v112l264 300h-242v119h425v-111z" />
    <glyph glyph-name="zacute" unicode="&#x17a;" 
d="M259 120h265l-15 -120h-437v112l264 300h-242v119h425v-111zM383 835l62 -119l-237 -94l-43 81z" />
    <glyph glyph-name="zcaron" unicode="&#x17e;" 
d="M259 120h265l-15 -120h-437v112l264 300h-242v119h425v-111zM440 815l56 -64l-141 -140h-96l-142 140l57 64l133 -94z" />
    <glyph glyph-name="zdotaccent" unicode="&#x17c;" 
d="M259 120h265l-15 -120h-437v112l264 300h-242v119h425v-111zM374 783.5q26 -25.5 26 -63.5q0 -39 -26 -64t-67 -25t-67.5 25.5t-26.5 63.5t26.5 63.5t67.5 25.5t67 -25.5z" />
    <glyph glyph-name="cacute.loclPLK" 
d="M410 119.5q28 11.5 60 33.5l70 -100q-38 -32 -88 -51t-109 -19q-85 0 -146.5 35t-94.5 98t-33 146t34 148t96.5 102t146.5 37q59 0 106 -16.5t88 -50.5l-68 -95q-58 40 -119 40q-119 0 -119 -165q0 -83 31 -118.5t87 -35.5q30 0 58 11.5zM372 812l122 -78l-147 -166
l-76 48z" />
    <glyph glyph-name="nacute.loclPLK" 
d="M70 531h138l11 -61q36 40 75.5 59.5t89.5 19.5q69 0 107.5 -42t38.5 -117v-390h-158v344q0 50 -11 69t-40 19q-24 0 -46.5 -15.5t-46.5 -45.5v-371h-158v531zM329 825l122 -78l-147 -166l-76 48z" />
    <glyph glyph-name="oacute.loclPLK" 
d="M489.5 472.5q68.5 -76.5 68.5 -205.5q0 -134 -68 -209t-190 -75t-190 74.5t-68 208.5q0 85 30.5 148.5t89 99t138.5 35.5q121 0 189.5 -76.5zM228 392.5q-23 -39.5 -23 -126.5q0 -88 23 -127.5t72 -39.5t72 40t23 128q0 86 -23 125.5t-72 39.5t-72 -39.5zM328 825
l122 -78l-147 -166l-76 48z" />
    <glyph glyph-name="sacute.loclPLK" 
d="M347.5 108.5q23.5 12.5 23.5 37.5q0 18 -9.5 29t-35.5 21.5t-81 25.5q-80 21 -122 58.5t-42 103.5q0 73 60.5 119t169.5 46q126 0 215 -65l-63 -93q-73 45 -147 45q-39 0 -57.5 -10t-18.5 -31q0 -14 9.5 -23.5t36 -19.5t79.5 -25q57 -16 93.5 -35t56.5 -51t20 -82
q0 -56 -34 -96t-91 -60t-126 -20q-74 0 -134 21t-102 59l79 89q72 -56 156 -56q41 0 64.5 12.5zM341 825l122 -78l-147 -166l-76 48z" />
    <glyph glyph-name="zacute.loclPLK" 
d="M259 120h265l-15 -120h-437v112l264 300h-242v119h425v-111zM335 825l122 -78l-147 -166l-76 48z" />
    <glyph glyph-name="x.multiply" 
d="M432 545l88 -88l-135 -131l135 -133l-88 -88l-132 136l-132 -136l-88 88l135 133l-135 131l88 88l132 -134z" />
    <glyph glyph-name="w_w_w.liga" 
d="M379 531h144l-78 -531h-172l-51 357l-63 -357h-133l-64 357l-62 -357h-134l-64 357l-64 -357h-134l-62 357l-64 -357h-134l-62 357l-52 -357h-171l-79 531h145l35 -432l56 365h133l59 -365l69 365h134l56 -365l71 365h128l71 -365l56 365h134l69 -365l60 365h133l55 -365
z" />
    <glyph glyph-name="ordfeminine" unicode="&#xaa;" 
d="M437 721q45 -38 45 -115v-164q0 -21 7 -32t23 -16l-30 -88q-44 5 -70.5 18t-41.5 40q-25 -29 -59.5 -44.5t-74.5 -15.5q-68 0 -110 38.5t-42 100.5q0 69 57 108t160 39h53v12q0 34 -18.5 46.5t-64.5 12.5q-21 0 -52.5 -6t-64.5 -17l-33 90q44 15 89 23t81 8
q101 0 146 -38zM322 507q-52 0 -74 -14t-22 -45q0 -51 50 -51q22 0 42.5 12.5t35.5 34.5v63h-32zM514 108v-108h-414v108h414z" />
    <glyph glyph-name="ordmasculine" unicode="&#xba;" 
d="M418 729.5q50 -29.5 77 -81t27 -116.5q0 -67 -27 -119t-77 -80.5t-118 -28.5q-103 0 -162.5 62.5t-59.5 165.5q0 65 27 116.5t77.5 81t117.5 29.5q68 0 118 -29.5zM217 532q0 -68 21 -98.5t62 -30.5t62 30.5t21 98.5q0 129 -83 129t-83 -129zM507 108v-108h-414v108h414z
" />
    <glyph glyph-name="uni207F" unicode="&#x207f;" 
d="M423.5 696q25.5 -27 25.5 -76v-242h-115v215q0 24 -4.5 34.5t-16.5 10.5q-21 0 -47 -34v-226h-115v335h102l5 -35q19 25 42 35t51 10q47 0 72.5 -27z" />
    <glyph glyph-name="uni052C" unicode="&#x52c;" 
d="M586 122v-296h-125l-20 174h-242l-20 -174h-125v296h45q29 40 50 81t36 97q-89 19 -128 77.5t-39 158.5v157h130v-155q0 -51 13 -80t46 -41q3 28 7 81l12 195h313v-571h47zM345 492q-4 -55 -7 -85h65v176h-52zM403 122v168l-83 1q-12 -50 -33 -91t-55 -78h171z" />
    <glyph glyph-name="uni052A" unicode="&#x52a;" 
d="M616 0h-103l-62 320h-25v-320h-70v-174h-77l-12 174h-190l-14 -174h-78v271h29q21 40 32.5 121.5t21.5 255.5l14 219h212v-291h41v291h91v-291h24l60 291h97l-72 -314zM201 606h-34l-6 -138q-4 -114 -12 -182.5t-21 -110.5t-35 -78h108v509zM335 320h-41v-223h41v223z
" />
    <glyph glyph-name="uni052E" unicode="&#x52e;" 
d="M571 122v-296h-125l-20 174h-67v568h-79l-11 -111q-16 -169 -38.5 -258.5t-61.5 -136.5t-112 -82l-65 108q38 28 59 61t36.5 106.5t28.5 217.5l21 220h386v-571h48z" />
    <glyph glyph-name="uni0528" unicode="&#x528;" 
d="M548 693v-693h-164v292h-168v-318q0 -97 -52.5 -149t-147.5 -52q-43 0 -75 11.5t-61 33.5l60 92q20 -9 31.5 -13t28.5 -4q26 0 39 15.5t13 51.5v733h164v-266h168v266h164z" />
    <glyph glyph-name="uni0410" unicode="&#x410;" 
d="M400 150h-203l-36 -150h-172l212 693h199l212 -693h-176zM223 268h150l-75 307z" />
    <glyph glyph-name="uni0411" unicode="&#x411;" 
d="M477 568h-256v-125h70q133 0 205 -53.5t72 -161.5q0 -111 -74 -169.5t-195 -58.5h-242v693h436zM221 326v-203h61q59 0 88.5 24.5t29.5 79.5q0 50 -29.5 74.5t-90.5 24.5h-59z" />
    <glyph glyph-name="uni0412" unicode="&#x412;" 
d="M492.5 46q-78.5 -46 -206.5 -46h-230v693h220q119 0 192 -41.5t73 -135.5q0 -59 -36 -97t-91 -52q66 -11 111.5 -49.5t45.5 -114.5q0 -111 -78.5 -157zM350.5 558.5q-25.5 18.5 -80.5 18.5h-50v-161h56q52 0 76 19.5t24 63.5q0 41 -25.5 59.5zM372.5 284
q-29.5 22 -85.5 22h-67v-186h60q57 0 89.5 19t32.5 71t-29.5 74z" />
    <glyph glyph-name="uni0413" unicode="&#x413;" 
d="M559 693l-16 -129h-289v-564h-164v693h469z" />
    <glyph glyph-name="uni0403" unicode="&#x403;" 
d="M559 693l-16 -129h-289v-564h-164v693h469zM410 953l59 -118l-237 -84l-38 80z" />
    <glyph glyph-name="uni0490" unicode="&#x490;" 
d="M407 848h152v-155l-16 -129h-289v-564h-164v693h317v155z" />
    <glyph glyph-name="uni0414" unicode="&#x414;" 
d="M577 122v-296h-125l-20 173l-297 1l-20 -174h-125v296h39q24 25 39 62t27.5 105t23.5 186l20 218h386v-571h52zM374 577h-98l-7 -88q-10 -116 -23 -186t-34 -111.5t-54 -69.5h216v455z" />
    <glyph glyph-name="uni0415" unicode="&#x415;" 
d="M257 576v-167h240v-114h-240v-177h289v-118h-453v693h453l-17 -117h-272z" />
    <glyph glyph-name="uni0400" unicode="&#x400;" 
d="M257 576v-167h240v-114h-240v-177h289v-118h-453v693h453l-17 -117h-272zM242 953l215 -122l-37 -80l-238 84z" />
    <glyph glyph-name="uni0401" unicode="&#x401;" 
d="M257 576v-167h240v-114h-240v-177h289v-118h-453v693h453l-17 -117h-272zM146 785.5q-24 23.5 -24 57.5q0 33 24 56t58 23q35 0 59 -23t24 -56q0 -34 -24 -57.5t-59 -23.5q-34 0 -58 23.5zM377.5 785.5q-24.5 23.5 -24.5 57.5q0 33 24.5 56t58.5 23t58 -23t24 -56
q0 -34 -23.5 -57.5t-58.5 -23.5q-34 0 -58.5 23.5z" />
    <glyph glyph-name="uni0416" unicode="&#x416;" 
d="M250 320h-30l-78 -320h-140l108 379l-98 314h135l76 -291h27v291h100v-291h27l76 291h135l-98 -314l108 -379h-142l-78 320h-28v-320h-100v320z" />
    <glyph glyph-name="uni0417" unicode="&#x417;" 
d="M418.5 687.5q58.5 -23.5 90.5 -65.5t32 -96q0 -63 -40.5 -102.5t-116.5 -54.5q83 -8 130.5 -52t47.5 -119q0 -65 -34 -113.5t-100 -75t-158 -26.5q-84 0 -150.5 25.5t-112.5 73.5l84 84q75 -63 176 -63q61 0 96 27t35 75q0 52 -34 78t-98 26h-116l19 116h96q54 0 84.5 22
t30.5 63q0 39 -30 60.5t-84 21.5q-94 0 -162 -54l-79 83q102 90 258 90q77 0 135.5 -23.5z" />
    <glyph glyph-name="uni0418" unicode="&#x418;" 
d="M52 693h150v-235q0 -98 -7 -168.5t-21 -146.5l193 550h181v-693h-150v230q0 164 27 319l-189 -549h-184v693z" />
    <glyph glyph-name="uni0419" unicode="&#x419;" 
d="M52 693h150v-235q0 -98 -7 -168.5t-21 -146.5l193 550h181v-693h-150v230q0 164 27 319l-189 -549h-184v693zM179 783q-44 45 -51 110l87 15q7 -29 29 -45t56 -16t56 16t29 45l87 -15q-7 -65 -51 -110t-121 -45t-121 45z" />
    <glyph glyph-name="uni040D" unicode="&#x40d;" 
d="M52 693h150v-235q0 -98 -7 -168.5t-21 -146.5l193 550h181v-693h-150v230q0 164 27 319l-189 -549h-184v693zM222 953l215 -122l-37 -80l-238 84z" />
    <glyph glyph-name="uni048A" unicode="&#x48a;" 
d="M179 783q-44 45 -51 110l87 15q7 -29 29 -45t56 -16t56 16t29 45l87 -15q-7 -65 -51 -110t-121 -45t-121 45zM638 152l-99 -326h-135l39 174h-45v230q0 164 27 319l-189 -549h-184v693h150v-235q0 -98 -7 -168.5t-21 -146.5l193 550h181v-541h90z" />
    <glyph glyph-name="uni041A" unicode="&#x41a;" 
d="M279 302h-63v-302h-164v693h164v-273h61l153 273h159l-176 -314l195 -379h-179z" />
    <glyph glyph-name="uni040C" unicode="&#x40c;" 
d="M279 302h-63v-302h-164v693h164v-273h61l153 273h159l-176 -314l195 -379h-179zM402 953l59 -118l-237 -84l-38 80z" />
    <glyph glyph-name="uni041B" unicode="&#x41b;" 
d="M548 0h-164v568h-109l-10 -111q-16 -169 -38.5 -258.5t-62 -136.5t-112.5 -82l-64 108q37 28 58 61t36.5 106.5t29.5 217.5l20 220h416v-693z" />
    <glyph glyph-name="uni041C" unicode="&#x41c;" 
d="M583 0h-144l-8 297q-1 22 -1 60q0 50 3 97.5t7 99.5l-78 -436h-124l-85 436q11 -115 11 -207l-1 -53l-5 -294h-141l39 693h169l77 -448l73 448h169z" />
    <glyph glyph-name="uni041D" unicode="&#x41d;" 
d="M384 0v292h-168v-292h-164v693h164v-266h168v266h164v-693h-164z" />
    <glyph glyph-name="uni041E" unicode="&#x41e;" 
d="M505.5 80.5q-71.5 -97.5 -205.5 -97.5q-135 0 -206 96.5t-71 267.5q0 169 71.5 266.5t205.5 97.5q135 0 206 -96.5t71 -267.5q0 -169 -71.5 -266.5zM383.5 533q-25.5 58 -83.5 58t-83.5 -58t-25.5 -186t25.5 -186t83.5 -58q59 0 84 58t25 186t-25.5 186z" />
    <glyph glyph-name="uni041F" unicode="&#x41f;" 
d="M384 0v567h-168v-567h-164v693h496v-693h-164z" />
    <glyph glyph-name="uni0420" unicode="&#x420;" 
d="M502.5 290.5q-73.5 -59.5 -200.5 -59.5h-76v-231h-164v693h218q144 0 220 -56.5t76 -169.5q0 -117 -73.5 -176.5zM283 576h-57v-227h65q56 0 86.5 29t30.5 89q0 109 -125 109z" />
    <glyph glyph-name="uni0421" unicode="&#x421;" 
d="M482 692q52 -19 98 -57l-80 -97q-63 51 -138 51q-71 0 -114.5 -60t-43.5 -181t43 -179.5t118 -58.5q46 0 79 16t71 46l74 -95q-92 -94 -233 -94q-95 0 -167.5 42t-113.5 124.5t-41 198.5q0 113 42 195t116 125t166 43q72 0 124 -19z" />
    <glyph glyph-name="uni0422" unicode="&#x422;" 
d="M381 567v-567h-164v567h-195v126h561l-16 -126h-186z" />
    <glyph glyph-name="uni0423" unicode="&#x423;" 
d="M431 236q-35 -92 -74 -143.5t-97 -76.5t-154 -33l-21 112q78 7 116 26.5t62 61.5h-53l-215 510h170l146 -416l130 416h166z" />
    <glyph glyph-name="uni040E" unicode="&#x40e;" 
d="M431 236q-35 -92 -74 -143.5t-97 -76.5t-154 -33l-21 112q78 7 116 26.5t62 61.5h-53l-215 510h170l146 -416l130 416h166zM189 793.5q-43 42.5 -51 111.5l87 16q10 -31 30 -45.5t55 -14.5t55 14.5t30 45.5l87 -16q-7 -68 -50.5 -111t-121.5 -43t-121 42.5z" />
    <glyph glyph-name="uni0424" unicode="&#x424;" 
d="M357 656q121 -8 180 -83.5t59 -222.5q0 -146 -59.5 -225.5t-179.5 -86.5v-77h-114v77q-120 7 -179.5 86t-59.5 226t58.5 222.5t180.5 83.5v74h114v-74zM196.5 541.5q-20.5 -22.5 -30 -68.5t-9.5 -123t8.5 -123.5t29.5 -70.5t58 -28v440q-36 -4 -56.5 -26.5zM347 128
q37 4 58 28t29.5 70.5t8.5 123.5t-9 123t-30 68.5t-57 26.5v-440z" />
    <glyph glyph-name="uni0425" unicode="&#x425;" 
d="M19 693h177l104 -222l107 222h173l-184 -318l201 -375h-177l-122 264l-120 -264h-174l196 368z" />
    <glyph glyph-name="uni0427" unicode="&#x427;" 
d="M548 693v-693h-164v243q-61 -45 -144 -45q-102 0 -158.5 60.5t-56.5 175.5v259h164v-254q0 -65 22.5 -92.5t74.5 -27.5q58 0 98 36v338h164z" />
    <glyph glyph-name="uni0426" unicode="&#x426;" 
d="M548 122h48v-296h-125l-20 174h-399v693h164v-565h168v565h164v-571z" />
    <glyph glyph-name="uni0428" unicode="&#x428;" 
d="M565 693v-693h-530v693h130v-581h78v581h115v-581h77v581h130z" />
    <glyph glyph-name="uni0429" unicode="&#x429;" 
d="M565 122h48v-296h-125l-20 174h-433v693h130v-581h78v581h115v-581h77v581h130v-571z" />
    <glyph glyph-name="uni040F" unicode="&#x40f;" 
d="M548 693v-693h-176v-174h-125l-20 174h-175v693h164v-565h168v565h164z" />
    <glyph glyph-name="uni042C" unicode="&#x42c;" 
d="M219 459h68q139 0 214 -55.5t75 -167.5q0 -117 -74.5 -176.5t-203.5 -59.5h-243v693h164v-234zM219 343v-223h68q60 0 90 27.5t30 87.5q0 55 -30.5 81.5t-95.5 26.5h-62z" />
    <glyph glyph-name="uni042A" unicode="&#x42a;" 
d="M245 459h52q139 0 214.5 -55.5t75.5 -167.5q0 -118 -75 -177t-203 -59h-218v573h-94v120h248v-234zM245 346v-229h34q70 0 105.5 26.5t35.5 91.5q0 56 -31.5 83.5t-96.5 27.5h-47z" />
    <glyph glyph-name="uni042B" unicode="&#x42b;" 
d="M155 462h9q123 0 188.5 -56.5t65.5 -168.5q0 -120 -66.5 -178.5t-185.5 -58.5h-145v693h134v-231zM579 693v-693h-134v693h134zM155 351v-238h14q55 0 82.5 27.5t27.5 95.5q0 115 -101 115h-23z" />
    <glyph glyph-name="uni0409" unicode="&#x409;" 
d="M364 459q114 0 175 -55.5t61 -167.5q0 -118 -62 -177t-173 -59h-126v589h-57l-13 -285q-6 -114 -20 -174.5t-37 -90t-68 -59.5l-59 94q16 14 26 36.5t17.5 72t12.5 139.5l20 371h303v-234zM364 356v-250h15q45 0 65.5 33t20.5 96q0 60 -21.5 90.5t-69.5 30.5h-10z" />
    <glyph glyph-name="uni040A" unicode="&#x40a;" 
d="M370 434q109 -1 169.5 -52t60.5 -155q0 -227 -240 -227h-119v322h-84v-322h-129v693h129v-259h84v259h129v-259zM370 325v-212h5q51 1 72 27.5t21 85.5q0 53 -22 75.5t-71 23.5h-5z" />
    <glyph glyph-name="uni0405" unicode="&#x405;" 
d="M534 88q-34 -50 -97.5 -77.5t-150.5 -27.5q-172 0 -274 100l83 92q79 -70 187 -70q52 0 83.5 22.5t31.5 62.5q0 38 -26.5 59.5t-98.5 43.5q-122 37 -173 87t-51 129q0 62 34.5 108t94 70t132.5 24q153 0 248 -90l-77 -89q-35 29 -75.5 43.5t-83.5 14.5q-48 0 -75.5 -17.5
t-27.5 -50.5q0 -22 12.5 -37t41.5 -28t87 -31q106 -32 157.5 -82.5t51.5 -140.5q0 -65 -34 -115z" />
    <glyph glyph-name="uni0404" unicode="&#x404;" 
d="M480 691.5q51 -19.5 100 -57.5l-77 -89q-34 23 -65.5 35t-68.5 12q-69 0 -115 -44t-53 -131h256v-125h-256q6 -92 50 -138.5t114 -46.5q46 0 80.5 14t71.5 40l72 -88q-92 -90 -235 -90q-96 0 -168 42t-112 124t-40 199q0 113 42 195t115.5 125t166.5 43q71 0 122 -19.5z
" />
    <glyph glyph-name="uni042D" unicode="&#x42d;" 
d="M481.5 618.5q78.5 -92.5 78.5 -267.5q0 -121 -39.5 -203.5t-110.5 -123.5t-167 -41q-69 0 -127.5 22.5t-101.5 65.5l76 89q36 -27 71 -40t80 -13q145 0 153 190h-257v115h257q-5 96 -41.5 138t-105.5 42q-45 0 -80 -14.5t-69 -39.5l-76 86q50 42 107.5 64.5t130.5 22.5
q143 0 221.5 -92.5z" />
    <glyph glyph-name="uni0406" unicode="&#x406;" 
d="M525 693v-120h-143v-452h143v-121h-450v121h143v452h-143v120h450z" />
    <glyph glyph-name="uni0407" unicode="&#x407;" 
d="M525 693v-120h-143v-452h143v-121h-450v121h143v452h-143v120h450zM126 785.5q-24 23.5 -24 57.5q0 33 24 56t58 23q35 0 59 -23t24 -56q0 -34 -24 -57.5t-59 -23.5q-34 0 -58 23.5zM357.5 785.5q-24.5 23.5 -24.5 57.5q0 33 24.5 56t58.5 23t58 -23t24 -56
q0 -34 -23.5 -57.5t-58.5 -23.5q-34 0 -58.5 23.5z" />
    <glyph glyph-name="uni0408" unicode="&#x408;" 
d="M527 249q0 -122 -73.5 -193t-205.5 -71q-64 0 -112.5 16t-96.5 49l62 101q36 -24 67 -34t71 -10q55 0 89.5 35.5t34.5 105.5v325h-212v120h376v-444z" />
    <glyph glyph-name="uni040B" unicode="&#x40b;" 
d="M423 576h-139v-150q52 44 119 44q88 0 133.5 -54.5t45.5 -163.5v-252h-154v266q0 47 -15.5 67t-52.5 20q-41 0 -76 -33v-320h-153v576h-139v117h448z" />
    <glyph glyph-name="uni042E" unicode="&#x42e;" 
d="M509 671q42 -40 60.5 -119t18.5 -205q0 -186 -44 -275t-150 -89q-101 0 -144.5 78.5t-47.5 241.5h-46v-303h-125v693h125v-280h47q6 148 51 223t140 75q73 0 115 -40zM358.5 581.5q-12.5 -21.5 -17.5 -75.5t-5 -158q0 -105 5 -159t17 -76t36 -22t36 22t17 76t5 158
q0 105 -5 159t-17 75.5t-36 21.5q-23 0 -35.5 -21.5z" />
    <glyph glyph-name="uni042F" unicode="&#x42f;" 
d="M548 0h-164v251h-85l-120 -251h-177l153 281q-59 27 -88.5 73.5t-29.5 118.5q0 110 71.5 165t212.5 55h227v-693zM324 578q-118 0 -118 -109q0 -57 30.5 -81.5t90.5 -24.5h57v215h-60z" />
    <glyph glyph-name="uni0402" unicode="&#x402;" 
d="M284 426q52 44 119 44q88 0 133.5 -54.5t45.5 -163.5v-153q0 -114 -55 -175t-154 -94l-43 112q41 17 62 37.5t28.5 49t7.5 73.5v164q0 47 -15.5 67t-52.5 20q-41 0 -76 -33v-320h-153v576h-139v117h448l-17 -117h-139v-150z" />
    <glyph glyph-name="uni0460" unicode="&#x460;" 
d="M570 512q19 -83 19 -208q0 -107 -23.5 -179.5t-63.5 -108.5t-90 -36q-51 0 -75.5 23.5t-37.5 71.5q-31 -95 -108 -95q-82 0 -131 82t-49 242q0 87 10 155.5t25 118t39 115.5h132l-13 -54q-22 -92 -33.5 -162.5t-11.5 -170.5q0 -107 13 -154t37 -47q13 0 21.5 14t8.5 41
v239h122v-239q0 -28 7.5 -41.5t23.5 -13.5q49 0 49 201q0 107 -12.5 182.5t-36.5 167.5l-9 37h131q37 -98 56 -181z" />
    <glyph glyph-name="uni0462" unicode="&#x462;" 
d="M514.5 389.5q72.5 -54.5 72.5 -159.5q0 -112 -71.5 -171t-187.5 -59h-202v519h-116v95h116v79h164v-79h123v-95h-123v-75h28q124 0 196.5 -54.5zM391.5 147.5q27.5 27.5 27.5 81.5q0 48 -28.5 73t-78.5 25h-22v-207h28q46 0 73.5 27.5z" />
    <glyph glyph-name="uni0464" unicode="&#x464;" 
d="M608 19q-59 -36 -136 -36q-231 0 -249 310h-46v-293h-155v696h155v-283h47q11 144 77.5 221t183.5 77q68 0 122 -33l-50 -95q-33 16 -70 16q-53 0 -79.5 -45.5t-28.5 -141.5h157v-115h-157q1 -104 25.5 -152t80.5 -48q44 0 78 17z" />
    <glyph glyph-name="uni0466" unicode="&#x466;" 
d="M456 0l-64 244h-32v-245h-120v245h-36l-63 -244h-152l212 693h199l212 -693h-156zM234 357h129l-65 247z" />
    <glyph glyph-name="uni0468" unicode="&#x468;" 
d="M498 0l-50 264h-16v-265h-101v265h-17l-50 -264h-123l54 264h-68v-266h-126v695h126v-336h88l69 336h199l142 -693h-127zM331 357h100l-50 262z" />
    <glyph glyph-name="uni046A" unicode="&#x46a;" 
d="M481 401l116 -401h-132l-75 310h-28v-310h-124v310h-30l-75 -310h-130l112 401h69l-117 203v89h459v-89l-115 -203h70zM198 601l101 -200l97 200h-198z" />
    <glyph glyph-name="uni046C" unicode="&#x46c;" 
d="M556 401l57 -401h-122l-26 310h-25v-310h-112v310h-25l-27 -310h-120l42 310h-67v-312h-126v695h126v-292h147l-90 205v87h386v-87l-87 -205h69zM303 606l81 -205l77 205h-158z" />
    <glyph glyph-name="uni046E" unicode="&#x46e;" 
d="M330 751h-96l-142 130l57 65l133 -85l133 85l56 -65zM486 337.5q53 -46.5 53 -141.5q0 -64 -30.5 -104t-73.5 -61t-112 -42q-59 -17 -77 -28t-18 -27q0 -17 15 -29t60 -37l-56 -94q-180 73 -180 176q0 54 35 85.5t124 59.5q56 18 84.5 30t45 31.5t16.5 50.5q0 80 -104 80
h-125v90l185 193h-267v123h442v-118l-184 -188q114 -3 167 -49.5z" />
    <glyph glyph-name="uni0470" unicode="&#x470;" 
d="M228 183q-217 30 -217 240v270h139v-274q0 -62 17.5 -91.5t71.5 -39.5v405h124v-404q51 11 69 40t18 90v274h139v-270q0 -100 -54 -161.5t-163 -77.5v-184h-144v183z" />
    <glyph glyph-name="uni0472" unicode="&#x472;" 
d="M505.5 80.5q-71.5 -97.5 -205.5 -97.5q-135 0 -206 96.5t-71 267.5q0 169 71.5 266.5t205.5 97.5q135 0 206 -96.5t71 -267.5q0 -169 -71.5 -266.5zM218.5 545.5q-27.5 -45.5 -32.5 -143.5h227q-5 98 -31.5 143.5t-81.5 45.5q-54 0 -81.5 -45.5zM383.5 151
q26.5 48 30.5 150h-228q3 -102 30.5 -150t83.5 -48q57 0 83.5 48z" />
    <glyph glyph-name="uni0474" unicode="&#x474;" 
d="M561 592q-12 0 -19 -6.5t-11 -21.5l-144 -564h-204l-173 693h173l105 -568l85 448q15 75 53 107.5t106 32.5q43 0 66 -9l-21 -114q-8 2 -16 2z" />
    <glyph glyph-name="uni0476" unicode="&#x476;" 
d="M561 592q-12 0 -19 -6.5t-11 -21.5l-144 -564h-204l-173 693h173l105 -568l85 448q15 75 53 107.5t106 32.5q43 0 66 -9l-21 -114q-8 2 -16 2zM265 825l-81 -39l-125 182l106 51zM428 823l-82 -36l-124 183l107 49z" />
    <glyph glyph-name="uni0478" unicode="&#x478;" 
d="M31.5 79q-41.5 96 -41.5 268q0 169 41.5 266.5t120.5 97.5q161 0 161 -364q0 -172 -39 -268t-122 -96q-79 0 -120.5 96zM192 144.5q12 61.5 12 202.5t-12.5 202.5t-39.5 61.5t-39 -61t-12 -203q0 -141 12 -202.5t39 -61.5q28 0 40 61.5zM323 -150q49 20 74.5 53t35.5 97
h-49l-71 531h100l40 -430l46 430h96l-76 -531q-27 -187 -173 -223z" />
    <glyph glyph-name="uni0492" unicode="&#x492;" 
d="M568 564h-289v-131h143v-98h-143v-335h-164v335h-77v98h77v260h469z" />
    <glyph glyph-name="uni0494" unicode="&#x494;" 
d="M566 1v-27q0 -97 -52.5 -149t-147.5 -52q-43 0 -75 11.5t-61 33.5l60 92q20 -9 31.5 -13t28.5 -4q26 0 39 15.5t13 51.5v40h-1v230q0 65 -21.5 92t-72.5 27q-61 0 -101 -38v-311h-164v693h444l-20 -125h-260v-147q66 49 147 49q105 0 158.5 -61t53.5 -178v-230h1z" />
    <glyph glyph-name="uni0496" unicode="&#x496;" 
d="M621 12v-29h-10v-157h-106l-20 174h-29l-78 320h-28v-320h-100v320h-30l-78 -320h-140l108 379l-98 314h135l76 -291h27v291h100v-291h27l76 291h135l-98 -314l73 -257h48v-110h10z" />
    <glyph glyph-name="uni0498" unicode="&#x498;" 
d="M498 51.5q-64 -56.5 -181 -66.5v-33q51 -6 77 -32t26 -67q0 -51 -41 -83t-108 -32q-34 0 -64.5 8.5t-52.5 21.5l36 73q34 -17 64 -17q53 0 53 31q0 19 -22 26t-70 7l11 97q-137 12 -219 97l84 84q75 -63 176 -63q61 0 96 27t35 75q0 52 -34 78t-98 26h-116l19 116h96
q54 0 84.5 22t30.5 63q0 39 -30 60.5t-84 21.5q-94 0 -162 -54l-79 83q102 90 258 90q77 0 135.5 -23.5t90.5 -65.5t32 -96q0 -63 -40.5 -102.5t-116.5 -54.5q83 -8 130.5 -52t47.5 -119q0 -90 -64 -146.5z" />
    <glyph glyph-name="uni049A" unicode="&#x49a;" 
d="M545 122h63v-296h-125l-20 174h-34l-150 302h-63v-302h-164v693h164v-273h61l153 273h159l-176 -314z" />
    <glyph glyph-name="uni049C" unicode="&#x49c;" 
d="M236 147v162h-36v-309h-148v693h148v-280h36v160h55v-160h16l120 280h158l-156 -314l175 -379h-172l-122 309h-19v-162h-55z" />
    <glyph glyph-name="uni049E" unicode="&#x49e;" 
d="M428 379l175 -379h-179l-130 302h-63v-302h-164v534h-57v95h57v64h164v-64h84v-95h-84v-114h61l133 273h159z" />
    <glyph glyph-name="uni04A0" unicode="&#x4a0;" 
d="M304 305h-58v-305h-152v573h-94v120h246v-275h56l129 275h156l-157 -314l175 -379h-173z" />
    <glyph glyph-name="uni04A2" unicode="&#x4a2;" 
d="M548 122h48v-296h-125l-20 174h-67v292h-168v-292h-164v693h164v-266h168v266h164v-571z" />
    <glyph glyph-name="uni04A4" unicode="&#x4a4;" 
d="M619 693l-20 -129h-119v-564h-164v290h-119v-290h-164v693h164v-264h119v264h303z" />
    <glyph glyph-name="uni04A6" unicode="&#x4a6;" 
d="M550 420q33 -41 33 -108v-357q0 -83 -47 -132.5t-124 -49.5q-43 0 -75 11.5t-60 33.5l55 81q30 -21 64 -21q53 0 53 67v356q0 24 -10 37.5t-28 13.5q-21 0 -41 -16v-336h-134v584h-78v-584h-135v693h347v-265q38 33 89 33q58 0 91 -41z" />
    <glyph glyph-name="uni0524" unicode="&#x524;" 
d="M548 122h48v-296h-125l-20 174h-67v567h-168v-567h-164v693h496v-571z" />
    <glyph glyph-name="uni04A8" unicode="&#x4a8;" 
d="M553 139q-29 -64 -82 -105q31 -47 85 -123l-82 -59q-63 87 -96 137q-33 -9 -71 -9q-84 0 -148.5 42.5t-100.5 125t-36 197.5q0 116 36 199t100 126t145 43q68 0 116 -20.5t96 -61.5l-77 -90q-35 27 -64.5 39.5t-63.5 12.5q-55 0 -86.5 -60.5t-31.5 -187.5q0 -129 31 -190
t83 -61h10q-46 97 -46 179q0 75 41 117t112 42q68 0 113.5 -40t45.5 -118q0 -71 -29 -135zM392.5 320q-10.5 -15 -10.5 -44q0 -65 35 -144q43 45 43 141q0 30 -9.5 46t-28.5 16t-29.5 -15z" />
    <glyph glyph-name="uni04AA" unicode="&#x4aa;" 
d="M406 -14q77 -46 77 -122q0 -56 -41 -89t-112 -33q-58 0 -105 25l31 79q28 -14 63 -14q28 0 42 13.5t14 35.5q0 59 -70 105q-124 16 -197.5 110t-73.5 252q0 113 42 195t116 125t166 43q72 0 124 -19t98 -57l-80 -97q-63 51 -138 51q-71 0 -114.5 -60t-43.5 -181
t43 -179.5t118 -58.5q46 0 79 16t71 46l74 -95q-75 -76 -183 -91z" />
    <glyph glyph-name="uni04AC" unicode="&#x4ac;" 
d="M567 567h-186v-445h48v-296h-125l-20 174h-67v567h-195v126h561z" />
    <glyph glyph-name="uni04AE" unicode="&#x4ae;" 
d="M382 260v-260h-164v259l-226 434h180l131 -298l132 298h173z" />
    <glyph glyph-name="uni04B0" unicode="&#x4b0;" 
d="M608 693l-208 -399h98v-93h-116v-201h-164v201h-116v93h98l-208 399h180l131 -298l132 298h173z" />
    <glyph glyph-name="uni04B2" unicode="&#x4b2;" 
d="M532 122h65v-296h-125l-20 174h-33v1l-121 263l-120 -264h-174l196 368l-181 325h177l104 -222l107 222h173l-184 -318z" />
    <glyph glyph-name="uni04B4" unicode="&#x4b4;" 
d="M518 122h48v-296h-106l-20 174h-349v587h-91v106h328l-15 -106h-77v-459h137v565h145v-571z" />
    <glyph glyph-name="uni04B6" unicode="&#x4b6;" 
d="M596 122v-296h-125l-20 174h-67v243q-61 -45 -144 -45q-102 0 -158.5 60.5t-56.5 175.5v259h164v-254q0 -65 22.5 -92.5t74.5 -27.5q58 0 98 36v338h164v-571h48z" />
    <glyph glyph-name="uni04B8" unicode="&#x4b8;" 
d="M548 693v-693h-164v243q-27 -19 -59 -31v-87h-66v74q-6 -1 -19 -1q-102 0 -158.5 60.5t-56.5 175.5v259h164v-254q0 -56 16.5 -84t53.5 -34v234h66v-232q32 9 59 32v338h164z" />
    <glyph glyph-name="uni04BA" unicode="&#x4ba;" 
d="M521.5 409q53.5 -61 53.5 -178v-231h-164v230q0 65 -21.5 92t-72.5 27q-61 0 -101 -38v-311h-164v693h164v-272q66 49 147 49q105 0 158.5 -61z" />
    <glyph glyph-name="uni0526" unicode="&#x526;" 
d="M604 122v-296h-125l-20 174h-67v230q0 64 -21 91.5t-65 27.5q-50 0 -90 -38v-311h-164v693h164v-272q66 49 137 49q98 0 150.5 -61.5t52.5 -177.5v-109h48z" />
    <glyph glyph-name="uni04BC" unicode="&#x4bc;" 
d="M571 286h-289q1 -103 26.5 -148t74.5 -45q28 0 52 11t54 32l59 -79q-38 -36 -82.5 -55t-91.5 -19q-111 0 -168.5 77t-65.5 230q-69 1 -107 41.5t-38 105.5q0 31 7 54.5t21 47.5l86 -34q-1 -3 -7.5 -20.5t-6.5 -39.5q0 -26 11 -39t34 -14q8 155 65.5 237t159.5 82
q211 0 211 -354q0 -38 -5 -71zM420.5 556q-17.5 46 -55.5 46q-41 0 -60.5 -46t-22.5 -164h154q2 118 -15.5 164z" />
    <glyph glyph-name="uni04BE" unicode="&#x4be;" 
d="M571 286h-289q1 -103 26.5 -148t74.5 -45q28 0 52 11t54 32l59 -79q-41 -38 -87 -57l-4 -1l-8 -3q-58 -22 -80.5 -48t-22.5 -58q0 -24 15.5 -36.5t42.5 -12.5q24 0 54 7l-12 -93q-29 -8 -59 -8q-66 0 -108.5 32.5t-42.5 90.5q0 77 68 122q-77 22 -117 96.5t-47 201.5
q-69 1 -107 41.5t-38 105.5q0 31 7 54.5t21 47.5l86 -34q-1 -3 -7.5 -20.5t-6.5 -39.5q0 -26 11 -39t34 -14q8 155 65.5 237t159.5 82q211 0 211 -354q0 -38 -5 -71zM420.5 556q-17.5 46 -55.5 46q-41 0 -60.5 -46t-22.5 -164h154q2 118 -15.5 164z" />
    <glyph glyph-name="uni04C0" unicode="&#x4c0;" 
d="M525 693v-120h-143v-452h143v-121h-450v121h143v452h-143v120h450z" />
    <glyph glyph-name="uni04C1" unicode="&#x4c1;" 
d="M250 320h-30l-78 -320h-140l108 379l-98 314h135l76 -291h27v291h100v-291h27l76 291h135l-98 -314l108 -379h-142l-78 320h-28v-320h-100v320zM179 783q-44 45 -51 110l87 15q7 -29 29 -45t56 -16t56 16t29 45l87 -15q-7 -65 -51 -110t-121 -45t-121 45z" />
    <glyph glyph-name="uni04C3" unicode="&#x4c3;" 
d="M533.5 341q34.5 -49 34.5 -139v-228q0 -97 -52.5 -149t-147.5 -52q-43 0 -75 11.5t-61 33.5l60 92q20 -9 31.5 -13t28.5 -4q26 0 39 15.5t13 51.5v240q0 47 -19 69.5t-61 22.5h-108v-292h-164v693h164v-283h65l148 283h160l-161 -289q71 -14 105.5 -63z" />
    <glyph glyph-name="uni04C5" unicode="&#x4c5;" 
d="M610 152l-99 -326h-135l39 174h-59v568h-79l-10 -111q-16 -169 -38.5 -258.5t-62 -136.5t-112.5 -82l-64 108q37 28 58 61t36.5 106.5t29.5 217.5l20 220h386v-541h90z" />
    <glyph glyph-name="uni04C7" unicode="&#x4c7;" 
d="M548 693v-719q0 -97 -52.5 -149t-147.5 -52q-43 0 -75 11.5t-61 33.5l60 92q20 -9 31.5 -13t28.5 -4q26 0 39 15.5t13 51.5v332h-168v-292h-164v693h164v-266h168v266h164z" />
    <glyph glyph-name="uni04C9" unicode="&#x4c9;" 
d="M509 152h90l-99 -326h-135l39 174h-59v290h-138v-290h-164v693h164v-264h138v264h164v-541z" />
    <glyph glyph-name="uni04CB" unicode="&#x4cb;" 
d="M548 693v-693h-164v243q-61 -45 -144 -45q-102 0 -158.5 60.5t-56.5 175.5v259h164v-254q0 -65 22.5 -92.5t74.5 -27.5q58 0 98 36v338h164zM136 122h137l41 -122h-33l-20 -174h-125v296z" />
    <glyph glyph-name="uni04CD" unicode="&#x4cd;" 
d="M630 152l-99 -326h-116l40 174h-52l-8 297q-1 22 -1 61q0 49 3 98t7 104l-59 -442h-124l-64 442q11 -123 11 -213l-1 -53l-6 -294h-140l39 693h169l57 -448l53 448h169l30 -541h92z" />
    <glyph glyph-name="uni04D0" unicode="&#x4d0;" 
d="M400 150h-203l-36 -150h-172l212 693h199l212 -693h-176zM223 268h150l-75 307zM179 783q-44 45 -51 110l87 15q7 -29 29 -45t56 -16t56 16t29 45l87 -15q-7 -65 -51 -110t-121 -45t-121 45z" />
    <glyph glyph-name="uni04D2" unicode="&#x4d2;" 
d="M400 150h-203l-36 -150h-172l212 693h199l212 -693h-176zM223 268h150l-75 307zM126 785.5q-24 23.5 -24 57.5q0 33 24 56t58 23q35 0 59 -23t24 -56q0 -34 -24 -57.5t-59 -23.5q-34 0 -58 23.5zM357.5 785.5q-24.5 23.5 -24.5 57.5q0 33 24.5 56t58.5 23t58 -23t24 -56
q0 -34 -23.5 -57.5t-58.5 -23.5q-34 0 -58.5 23.5z" />
    <glyph glyph-name="uni04D4" unicode="&#x4d4;" 
d="M313 153h-140l-28 -153h-157l175 693h402l-17 -111h-182l33 -176h157v-110h-137l36 -185h148v-111h-265zM191 265h105l-51 318z" />
    <glyph glyph-name="uni04D6" unicode="&#x4d6;" 
d="M257 576v-167h240v-114h-240v-177h289v-118h-453v693h453l-17 -117h-272zM199 783q-44 45 -51 110l87 15q7 -29 29 -45t56 -16t56 16t29 45l87 -15q-7 -65 -51 -110t-121 -45t-121 45z" />
    <glyph glyph-name="uni04D8" unicode="&#x4d8;" 
d="M25 403h388q-3 98 -37 144t-99 46q-43 0 -73.5 -13.5t-68.5 -41.5l-75 86q50 43 105.5 65t126.5 22q138 0 211 -91.5t73 -268.5t-73.5 -272.5t-206.5 -95.5q-138 0 -207 93t-69 261q0 33 5 66zM380.5 146q29.5 45 32.5 146h-238q1 -101 32 -146t89 -45q55 0 84.5 45z" />
    <glyph glyph-name="uni04DA" unicode="&#x4da;" 
d="M25 403h388q-3 98 -37 144t-99 46q-43 0 -73.5 -13.5t-68.5 -41.5l-75 86q50 43 105.5 65t126.5 22q138 0 211 -91.5t73 -268.5t-73.5 -272.5t-206.5 -95.5q-138 0 -207 93t-69 261q0 33 5 66zM380.5 146q29.5 45 32.5 146h-238q1 -101 32 -146t89 -45q55 0 84.5 45z
M118 786.5q-24 23.5 -24 57.5q0 33 24 56t58 23q35 0 59 -23t24 -56q0 -34 -24 -57.5t-59 -23.5q-34 0 -58 23.5zM349.5 786.5q-24.5 23.5 -24.5 57.5q0 33 24.5 56t58.5 23t58 -23t24 -56q0 -34 -23.5 -57.5t-58.5 -23.5q-34 0 -58.5 23.5z" />
    <glyph glyph-name="uni04DC" unicode="&#x4dc;" 
d="M250 320h-30l-78 -320h-140l108 379l-98 314h135l76 -291h27v291h100v-291h27l76 291h135l-98 -314l108 -379h-142l-78 320h-28v-320h-100v320zM126 785.5q-24 23.5 -24 57.5q0 33 24 56t58 23q35 0 59 -23t24 -56q0 -34 -24 -57.5t-59 -23.5q-34 0 -58 23.5z
M357.5 785.5q-24.5 23.5 -24.5 57.5q0 33 24.5 56t58.5 23t58 -23t24 -56q0 -34 -23.5 -57.5t-58.5 -23.5q-34 0 -58.5 23.5z" />
    <glyph glyph-name="uni04DE" unicode="&#x4de;" 
d="M418.5 687.5q58.5 -23.5 90.5 -65.5t32 -96q0 -63 -40.5 -102.5t-116.5 -54.5q83 -8 130.5 -52t47.5 -119q0 -65 -34 -113.5t-100 -75t-158 -26.5q-84 0 -150.5 25.5t-112.5 73.5l84 84q75 -63 176 -63q61 0 96 27t35 75q0 52 -34 78t-98 26h-116l19 116h96q54 0 84.5 22
t30.5 63q0 39 -30 60.5t-84 21.5q-94 0 -162 -54l-79 83q102 90 258 90q77 0 135.5 -23.5zM115 785.5q-24 23.5 -24 57.5q0 33 24 56t58 23q35 0 59 -23t24 -56q0 -34 -24 -57.5t-59 -23.5q-34 0 -58 23.5zM346.5 785.5q-24.5 23.5 -24.5 57.5q0 33 24.5 56t58.5 23t58 -23
t24 -56q0 -34 -23.5 -57.5t-58.5 -23.5q-34 0 -58.5 23.5z" />
    <glyph glyph-name="uni04E0" unicode="&#x4e0;" 
d="M503 353.5q56 -48.5 56 -140.5q0 -65 -34 -118t-97 -84t-147 -31q-83 0 -137 23t-103 67l76 87q40 -31 76 -44t81 -13q53 0 84 27t31 84q0 53 -33 74.5t-97 21.5h-97v86l186 177h-268v123h442v-118l-179 -173h6q98 0 154 -48.5z" />
    <glyph glyph-name="uni04E2" unicode="&#x4e2;" 
d="M52 693h150v-235q0 -98 -7 -168.5t-21 -146.5l193 550h181v-693h-150v230q0 164 27 319l-189 -549h-184v693zM453 783h-306v109h306v-109z" />
    <glyph glyph-name="uni04E4" unicode="&#x4e4;" 
d="M52 693h150v-235q0 -98 -7 -168.5t-21 -146.5l193 550h181v-693h-150v230q0 164 27 319l-189 -549h-184v693zM126 785.5q-24 23.5 -24 57.5q0 33 24 56t58 23q35 0 59 -23t24 -56q0 -34 -24 -57.5t-59 -23.5q-34 0 -58 23.5zM357.5 785.5q-24.5 23.5 -24.5 57.5
q0 33 24.5 56t58.5 23t58 -23t24 -56q0 -34 -23.5 -57.5t-58.5 -23.5q-34 0 -58.5 23.5z" />
    <glyph glyph-name="uni04E6" unicode="&#x4e6;" 
d="M505.5 80.5q-71.5 -97.5 -205.5 -97.5q-135 0 -206 96.5t-71 267.5q0 169 71.5 266.5t205.5 97.5q135 0 206 -96.5t71 -267.5q0 -169 -71.5 -266.5zM383.5 533q-25.5 58 -83.5 58t-83.5 -58t-25.5 -186t25.5 -186t83.5 -58q59 0 84 58t25 186t-25.5 186zM126 785.5
q-24 23.5 -24 57.5q0 33 24 56t58 23q35 0 59 -23t24 -56q0 -34 -24 -57.5t-59 -23.5q-34 0 -58 23.5zM357.5 785.5q-24.5 23.5 -24.5 57.5q0 33 24.5 56t58.5 23t58 -23t24 -56q0 -34 -23.5 -57.5t-58.5 -23.5q-34 0 -58.5 23.5z" />
    <glyph glyph-name="uni04E8" unicode="&#x4e8;" 
d="M505.5 80.5q-71.5 -97.5 -205.5 -97.5q-135 0 -206 96.5t-71 267.5q0 169 71.5 266.5t205.5 97.5q135 0 206 -96.5t71 -267.5q0 -169 -71.5 -266.5zM218.5 545.5q-27.5 -45.5 -32.5 -143.5h227q-5 98 -31.5 143.5t-81.5 45.5q-54 0 -81.5 -45.5zM383.5 151
q26.5 48 30.5 150h-228q3 -102 30.5 -150t83.5 -48q57 0 83.5 48z" />
    <glyph glyph-name="uni04EA" unicode="&#x4ea;" 
d="M505.5 80.5q-71.5 -97.5 -205.5 -97.5q-135 0 -206 96.5t-71 267.5q0 169 71.5 266.5t205.5 97.5q135 0 206 -96.5t71 -267.5q0 -169 -71.5 -266.5zM218.5 545.5q-27.5 -45.5 -32.5 -143.5h227q-5 98 -31.5 143.5t-81.5 45.5q-54 0 -81.5 -45.5zM383.5 151
q26.5 48 30.5 150h-228q3 -102 30.5 -150t83.5 -48q57 0 83.5 48zM126 785.5q-24 23.5 -24 57.5q0 33 24 56t58 23q35 0 59 -23t24 -56q0 -34 -24 -57.5t-59 -23.5q-34 0 -58 23.5zM357.5 785.5q-24.5 23.5 -24.5 57.5q0 33 24.5 56t58.5 23t58 -23t24 -56
q0 -34 -23.5 -57.5t-58.5 -23.5q-34 0 -58.5 23.5z" />
    <glyph glyph-name="uni04EC" unicode="&#x4ec;" 
d="M481.5 618.5q78.5 -92.5 78.5 -267.5q0 -121 -39.5 -203.5t-110.5 -123.5t-167 -41q-69 0 -127.5 22.5t-101.5 65.5l76 89q36 -27 71 -40t80 -13q145 0 153 190h-257v115h257q-5 96 -41.5 138t-105.5 42q-45 0 -80 -14.5t-69 -39.5l-76 86q50 42 107.5 64.5t130.5 22.5
q143 0 221.5 -92.5zM104 781.5q-24 23.5 -24 57.5q0 33 24 56t58 23q35 0 59 -23t24 -56q0 -34 -24 -57.5t-59 -23.5q-34 0 -58 23.5zM335.5 781.5q-24.5 23.5 -24.5 57.5q0 33 24.5 56t58.5 23t58 -23t24 -56q0 -34 -23.5 -57.5t-58.5 -23.5q-34 0 -58.5 23.5z" />
    <glyph glyph-name="uni04EE" unicode="&#x4ee;" 
d="M431 236q-35 -92 -74 -143.5t-97 -76.5t-154 -33l-21 112q78 7 116 26.5t62 61.5h-53l-215 510h170l146 -416l130 416h166zM463 783h-306v109h306v-109z" />
    <glyph glyph-name="uni04F0" unicode="&#x4f0;" 
d="M431 236q-35 -92 -74 -143.5t-97 -76.5t-154 -33l-21 112q78 7 116 26.5t62 61.5h-53l-215 510h170l146 -416l130 416h166zM136 785.5q-24 23.5 -24 57.5q0 33 24 56t58 23q35 0 59 -23t24 -56q0 -34 -24 -57.5t-59 -23.5q-34 0 -58 23.5zM367.5 785.5
q-24.5 23.5 -24.5 57.5q0 33 24.5 56t58.5 23t58 -23t24 -56q0 -34 -23.5 -57.5t-58.5 -23.5q-34 0 -58.5 23.5z" />
    <glyph glyph-name="uni04F2" unicode="&#x4f2;" 
d="M431 236q-35 -92 -74 -143.5t-97 -76.5t-154 -33l-21 112q78 7 116 26.5t62 61.5h-53l-215 510h170l146 -416l130 416h166zM169 786l99 196l107 -49l-124 -183zM332 788l100 194l106 -51l-125 -182z" />
    <glyph glyph-name="uni04F4" unicode="&#x4f4;" 
d="M548 693v-693h-164v243q-61 -45 -144 -45q-102 0 -158.5 60.5t-56.5 175.5v259h164v-254q0 -65 22.5 -92.5t74.5 -27.5q58 0 98 36v338h164zM112 785.5q-24 23.5 -24 57.5q0 33 24 56t58 23q35 0 59 -23t24 -56q0 -34 -24 -57.5t-59 -23.5q-34 0 -58 23.5zM343.5 785.5
q-24.5 23.5 -24.5 57.5q0 33 24.5 56t58.5 23t58 -23t24 -56q0 -34 -23.5 -57.5t-58.5 -23.5q-34 0 -58.5 23.5z" />
    <glyph glyph-name="uni04F6" unicode="&#x4f6;" 
d="M543 564h-289v-442h68v-296h-125l-20 174h-87v693h469z" />
    <glyph glyph-name="uni04F8" unicode="&#x4f8;" 
d="M155 462h9q123 0 188.5 -56.5t65.5 -168.5q0 -120 -66.5 -178.5t-185.5 -58.5h-145v693h134v-231zM579 693v-693h-134v693h134zM155 351v-238h14q55 0 82.5 27.5t27.5 95.5q0 115 -101 115h-23zM126 785.5q-24 23.5 -24 57.5q0 33 24 56t58 23q35 0 59 -23t24 -56
q0 -34 -24 -57.5t-59 -23.5q-34 0 -58 23.5zM357.5 785.5q-24.5 23.5 -24.5 57.5q0 33 24.5 56t58.5 23t58 -23t24 -56q0 -34 -23.5 -57.5t-58.5 -23.5q-34 0 -58.5 23.5z" />
    <glyph glyph-name="uni04FA" unicode="&#x4fa;" 
d="M323 564v-131h143v-98h-143v-213h74v-148q0 -97 -52.5 -149t-147.5 -52q-43 0 -75 11.5t-61 33.5l60 92q20 -9 31.5 -13t28.5 -4q26 0 39 15.5t13 51.5v40h-74v335h-77v98h77v260h469l-16 -129h-289z" />
    <glyph glyph-name="uni04FC" unicode="&#x4fc;" 
d="M609 122v-148q0 -97 -52.5 -149t-147.5 -52q-43 0 -75 11.5t-61 33.5l60 92q20 -9 31.5 -13t28.5 -4q26 0 39 15.5t13 51.5v40h-29l-122 264l-120 -264h-174l196 368l-181 325h177l104 -222l107 222h173l-184 -318l136 -253h81z" />
    <glyph glyph-name="uni04FE" unicode="&#x4fe;" 
d="M426 319l171 -319h-177l-122 264l-120 -264h-174l170 319h-155v98h154l-154 276h177l104 -222l107 222h173l-160 -276h163v-98h-157z" />
    <glyph glyph-name="uni0500" unicode="&#x500;" 
d="M97.5 57q-73.5 57 -73.5 173q0 109 77 169t212 60h68v234h164v-693h-244q-130 0 -203.5 57zM381 120v222h-62q-64 0 -95 -27.5t-31 -84.5q0 -58 30 -84t90 -26h68z" />
    <glyph glyph-name="uni0502" unicode="&#x502;" 
d="M583 246q0 -133 -45 -198t-135 -65q-81 0 -121 65q-22 -31 -48.5 -47t-63.5 -16q-44 0 -80 25.5t-58 76.5t-22 122q0 72 27 125t73.5 81t103.5 28h38v250h124v-554q0 -25 9 -37t23 -12q25 0 37 37.5t12 117.5q0 67 -5 134h125q6 -58 6 -133zM225 99.5q14 9.5 27 32.5v209
h-32q-42 0 -63.5 -31t-21.5 -100q0 -120 58 -120q18 0 32 9.5z" />
    <glyph glyph-name="uni0504" unicode="&#x504;" 
d="M584 256q0 -273 -203 -273q-75 0 -122.5 33t-79.5 100l-69 149h-73v111h75q55 0 82.5 25.5t27.5 80.5q0 51 -29 74.5t-88 23.5h-89v113h89q143 0 214 -52t71 -159q0 -68 -35.5 -114t-95.5 -73l73 -150q10 -22 21 -30.5t27 -8.5q27 0 39.5 34t12.5 115q0 57 -5 124h151
q6 -58 6 -123z" />
    <glyph glyph-name="uni0506" unicode="&#x506;" 
d="M566 122v-296h-125l-20 174h-52l-150 265h-132v113h147q109 0 109 104q0 50 -28.5 73t-87.5 23h-170v115h169q143 0 214.5 -52t71.5 -159q0 -70 -38 -117.5t-101 -72.5l106 -170h87z" />
    <glyph glyph-name="uni0508" unicode="&#x508;" 
d="M598 246q0 -263 -180 -263q-67 0 -110 43.5t-43 122.5v437h-53l-9 -169q-8 -153 -23.5 -233.5t-43.5 -123.5t-83 -80l-58 94q27 23 43 57.5t27 108t19 213.5l14 240h292v-554q0 -25 9 -37t24 -12q49 0 49 155q0 67 -5 134h125q6 -58 6 -133z" />
    <glyph glyph-name="uni050A" unicode="&#x50a;" 
d="M592 246q0 -134 -46 -198.5t-140 -64.5q-44 0 -80.5 19t-58.5 56.5t-22 90.5v141h-82v-290h-132v693h132v-286h82v286h133v-554q0 -25 9 -37t23 -12q25 0 37 37.5t12 117.5q0 67 -5 134h132q6 -58 6 -133z" />
    <glyph glyph-name="uni050C" unicode="&#x50c;" 
d="M100.5 76.5q-77.5 93.5 -77.5 271.5q0 115 42 197t115.5 124t164.5 42q71 0 123.5 -22.5t96.5 -63.5l-86 -89q-33 29 -61.5 42t-64.5 13q-75 0 -118 -59.5t-43 -184.5q0 -134 32 -189t103 -55q47 0 86 21v159h-87l-16 114h258v-344q-114 -70 -242 -70q-148 0 -225.5 93.5
z" />
    <glyph glyph-name="uni050E" unicode="&#x50e;" 
d="M580 246q0 -130 -59 -196.5t-159 -66.5q-87 0 -140.5 52.5t-53.5 154.5v172h-1v208h-155v123h492l-17 -123h-156v-420q0 -50 36 -50q30 0 43.5 35.5t13.5 109.5q0 67 -5 134h155q6 -58 6 -133z" />
    <glyph glyph-name="uni0510" unicode="&#x510;" 
d="M461.5 689q60.5 -22 113.5 -68l-79 -83q-68 54 -159 54q-55 0 -86 -22t-31 -61q0 -41 31 -62.5t84 -21.5h114l-19 -116h-96q-64 0 -98 -26t-34 -78q0 -48 34.5 -75t93.5 -27q103 0 181 63l82 -84q-105 -99 -270 -99q-88 0 -152.5 27t-98.5 75.5t-34 113.5
q0 74 47.5 117.5t130.5 52.5q-78 14 -117.5 49.5t-39.5 97.5q0 57 34 101t94 69t136 25q78 0 138.5 -22z" />
    <glyph glyph-name="uni0512" unicode="&#x512;" 
d="M548 693v-719q0 -97 -52.5 -149t-147.5 -52q-43 0 -75 11.5t-61 33.5l60 92q20 -9 31.5 -13t28.5 -4q26 0 39 15.5t13 51.5v608h-109l-10 -111q-16 -169 -38.5 -258.5t-62 -136.5t-112.5 -82l-64 108q37 28 58 61t36.5 106.5t29.5 217.5l20 220h416z" />
    <glyph glyph-name="uni0514" unicode="&#x514;" 
d="M606 0h-130l-71 274l-71 -274h-127l108 368l-66 218h-49l-10 -169q-9 -153 -24 -233.5t-43.5 -123.5t-82.5 -80l-57 94q27 23 42.5 57.5t26.5 108.5t19 213l15 240h260l60 -232l62 232h128l-110 -318z" />
    <glyph glyph-name="uni0516" unicode="&#x516;" 
d="M452 0l-107 301q-55 -70 -144 -70h-35v-231h-144v693h168q91 0 144.5 -48.5t61.5 -144.5l73 193h131l-132 -324l140 -369h-156zM267 467q0 114 -75 114h-26v-236h25q76 0 76 122z" />
    <glyph glyph-name="uni0518" unicode="&#x518;" 
d="M418 115h180v-115h-324v251h-31l-84 -251h-160l118 281q-50 32 -76.5 77t-26.5 112t32 117.5t87 78t123 27.5h342l-17 -112h-163v-174h140v-111h-140v-181zM274 583h-20q-41 0 -64.5 -29t-23.5 -85q0 -55 23 -82t62 -27h23v223z" />
    <glyph glyph-name="uni051A" unicode="&#x51a;" 
d="M429 40q84 -14 130.5 -50t74.5 -117l-134 -46q-24 57 -49 90.5t-63.5 51t-97.5 17.5q-128 0 -193 94.5t-65 266.5q0 170 69 267t202 97q134 0 202.5 -96t68.5 -268q0 -233 -145 -307zM395 487.5q-9 52.5 -31 77.5t-61 25t-61 -25.5t-31 -78t-9 -139.5q0 -130 22.5 -187
t78.5 -57q40 0 61.5 25.5t30.5 78t9 140.5t-9 140.5z" />
    <glyph glyph-name="uni051C" unicode="&#x51c;" 
d="M603 693l-81 -693h-170l-51 496l-56 -496h-173l-75 693h153l24 -553l57 473h142l53 -473l34 553h143z" />
    <glyph glyph-name="uni051E" unicode="&#x51e;" 
d="M413 379l195 -379h-179l-150 302h-63v-302h-164v693h164v-273h61l59 105l-93 43l39 84l99 -46l49 87h159l-81 -145l96 -44l-39 -84l-103 47z" />
    <glyph glyph-name="uni0520" unicode="&#x520;" 
d="M552.5 421q28.5 -40 28.5 -109v-357q0 -55 -21 -96t-58 -63.5t-83 -22.5q-42 0 -71.5 11.5t-59.5 33.5l52 77q32 -21 64 -21q26 0 39 15.5t13 51.5v360q0 24 -9.5 37.5t-28.5 13.5q-20 0 -40 -16v-336h-125v586h-54l-9 -169q-8 -153 -23.5 -233.5t-43.5 -123.5t-83 -80
l-58 94q27 23 43 57.5t27 108t19 213.5l14 240h293v-265q38 33 89 33q57 0 85.5 -40z" />
    <glyph glyph-name="uni0522" unicode="&#x522;" 
d="M548.5 420q32.5 -41 32.5 -108v-357q0 -83 -46.5 -132.5t-122.5 -49.5q-43 0 -75 11.5t-60 33.5l55 81q30 -21 64 -21q53 0 53 67v356q0 24 -10 37.5t-28 13.5q-22 0 -40 -16v-336h-132v290h-82v-290h-133v693h133v-286h82v286h132v-264q39 32 88 32q57 0 89.5 -41z" />
    <glyph glyph-name="uni048C" unicode="&#x48c;" 
d="M505 389.5q73 -54.5 73 -159.5q0 -112 -71.5 -171t-187.5 -59h-233v521h-56v92h56v80h164v-80h119v-92h-119v-77h58q124 0 197 -54.5zM381.5 147.5q27.5 27.5 27.5 81.5q0 48 -28.5 73t-78.5 25h-52v-207h58q46 0 73.5 27.5z" />
    <glyph glyph-name="uni048E" unicode="&#x48e;" 
d="M546 349.5q-30 -50.5 -83 -80.5l62 -101h-79l-46 76q-43 -13 -98 -13h-76v-231h-164v693h218q144 0 220 -56.5t76 -169.5q0 -67 -30 -117.5zM334 351l-78 128h79l59 -97q23 29 23 85q0 55 -31 82t-94 27h-66v-227h75q13 0 33 2z" />
    <glyph glyph-name="uni0430" unicode="&#x430;" 
d="M525 110q8 -14 27 -21l-33 -104q-48 5 -80 21.5t-50 48.5q-30 -35 -76 -53.5t-98 -18.5q-82 0 -131 46.5t-49 120.5q0 86 68 133.5t191 47.5h71v19q0 82 -105 82q-27 0 -67.5 -7.5t-78.5 -20.5l-36 105q51 19 106.5 29.5t100.5 10.5q232 0 232 -188v-208q0 -29 8 -43z
M323.5 111.5q27.5 15.5 41.5 42.5v87h-39q-128 0 -128 -80q0 -31 18.5 -48t52.5 -17q27 0 54.5 15.5z" />
    <glyph glyph-name="uni0431" unicode="&#x431;" 
d="M455.5 470.5q46.5 -30.5 73 -88.5t26.5 -137q0 -84 -32.5 -143t-90 -89t-132.5 -30q-256 0 -256 317q0 115 18.5 188.5t64.5 120t130 71.5q61 18 99 34t90 45l57 -100q-39 -27 -76 -42t-104 -36q-43 -14 -68.5 -31.5t-38.5 -46t-18 -76.5q58 74 153 74q58 0 104.5 -30.5z
M372.5 128.5q26.5 32.5 26.5 114.5q0 79 -23 112.5t-72 33.5q-58 0 -102 -64v-63q0 -83 24 -124.5t74 -41.5q46 0 72.5 32.5z" />
    <glyph glyph-name="uni0432" unicode="&#x432;" 
d="M523 249q35 -34 35 -89q0 -82 -67.5 -121t-176.5 -39h-235v526q123 23 219 23q106 0 171 -37t65 -105q0 -44 -29 -73t-82 -42q65 -9 100 -43zM237 444v-120h67q78 0 78 61q0 63 -86 63q-38 0 -59 -4zM399 173q0 32 -22 50t-64 18h-76v-137h73q89 0 89 69z" />
    <glyph glyph-name="uni0433" unicode="&#x433;" 
d="M280 0h-158v531h417l-18 -122h-241v-409z" />
    <glyph glyph-name="uni0453" unicode="&#x453;" 
d="M280 0h-158v531h417l-18 -122h-241v-409zM414 835l62 -119l-237 -94l-43 81z" />
    <glyph glyph-name="uni0491" unicode="&#x491;" 
d="M395 683h144v-152l-18 -122h-241v-409h-158v531h273v152z" />
    <glyph glyph-name="uni0434" unicode="&#x434;" 
d="M573 117v-291h-119l-19 174h-284l-19 -174h-119v291h42q28 28 42.5 77t23.5 167l14 170h387v-414h51zM375 421h-101l-4 -54q-7 -84 -17 -130.5t-25.5 -72.5t-42.5 -47h190v304z" />
    <glyph glyph-name="uni0435" unicode="&#x435;" 
d="M335 98q68 0 136 44l63 -86q-39 -34 -93 -53.5t-119 -19.5q-89 0 -151 35.5t-93.5 99t-31.5 147.5q0 80 30.5 144.5t89 102t139.5 37.5q76 0 132 -32.5t86.5 -94t30.5 -146.5q0 -33 -3 -57h-344q15 -121 128 -121zM236 411.5q-26 -31.5 -31 -96.5h195q-2 128 -95 128
q-43 0 -69 -31.5z" />
    <glyph glyph-name="uni0450" unicode="&#x450;" 
d="M335 98q68 0 136 44l63 -86q-39 -34 -93 -53.5t-119 -19.5q-89 0 -151 35.5t-93.5 99t-31.5 147.5q0 80 30.5 144.5t89 102t139.5 37.5q76 0 132 -32.5t86.5 -94t30.5 -146.5q0 -33 -3 -57h-344q15 -121 128 -121zM236 411.5q-26 -31.5 -31 -96.5h195q-2 128 -95 128
q-43 0 -69 -31.5zM406 622l-236 94l61 119l218 -133z" />
    <glyph glyph-name="uni0451" unicode="&#x451;" 
d="M335 98q68 0 136 44l63 -86q-39 -34 -93 -53.5t-119 -19.5q-89 0 -151 35.5t-93.5 99t-31.5 147.5q0 80 30.5 144.5t89 102t139.5 37.5q76 0 132 -32.5t86.5 -94t30.5 -146.5q0 -33 -3 -57h-344q15 -121 128 -121zM236 411.5q-26 -31.5 -31 -96.5h195q-2 128 -95 128
q-43 0 -69 -31.5zM133 660.5q-24 23.5 -24 57.5q0 33 24 56t58 23q35 0 59 -23t24 -56q0 -34 -24 -57.5t-59 -23.5q-34 0 -58 23.5zM364.5 660.5q-24.5 23.5 -24.5 57.5q0 33 24.5 56t58.5 23t58 -23t24 -56q0 -34 -23.5 -57.5t-58.5 -23.5q-34 0 -58.5 23.5z" />
    <glyph glyph-name="uni0436" unicode="&#x436;" 
d="M246 0v232h-25l-85 -232h-141l122 285l-119 246h137l84 -211h27v211h108v-211h27l88 211h133l-118 -246l122 -285h-138l-89 232h-25v-232h-108z" />
    <glyph glyph-name="uni0437" unicode="&#x437;" 
d="M265 324q41 0 63 15.5t22 43.5t-23 42t-66 14q-41 0 -79.5 -10t-70.5 -29l-68 84q46 32 104.5 48.5t123.5 16.5q106 0 172 -39t66 -109q0 -87 -127 -120q76 -9 115 -39t39 -88q0 -82 -74 -126.5t-194 -44.5q-149 0 -242 70l68 91q42 -25 83 -36.5t89 -11.5
q53 0 79.5 17.5t26.5 48.5q0 29 -24.5 45t-72.5 16h-115l9 101h96z" />
    <glyph glyph-name="uni0438" unicode="&#x438;" 
d="M530 0h-149v169q0 125 26 224l-174 -393h-163v531h149v-171q0 -121 -27 -223l174 394h164v-531z" />
    <glyph glyph-name="uni0439" unicode="&#x439;" 
d="M530 0h-149v169q0 125 26 224l-174 -393h-163v531h149v-171q0 -121 -27 -223l174 394h164v-531zM179 657q-44 45 -51 110l87 15q7 -29 29 -45t56 -16t56 16t29 45l87 -15q-7 -65 -51 -110t-121 -45t-121 45z" />
    <glyph glyph-name="uni045D" unicode="&#x45d;" 
d="M530 0h-149v169q0 125 26 224l-174 -393h-163v531h149v-171q0 -121 -27 -223l174 394h164v-531zM399 622l-236 94l61 119l218 -133z" />
    <glyph glyph-name="uni048B" unicode="&#x48b;" 
d="M164 657q-44 45 -51 110l87 15q7 -29 29 -45t56 -16t56 16t29 45l87 -15q-7 -65 -51 -110t-121 -45t-121 45zM607 140l-99 -314h-129l40 174h-63v169q0 119 22 215l-152 -384h-161v531h149v-171q0 -121 -27 -223l157 394h161v-391h102z" />
    <glyph glyph-name="uni043A" unicode="&#x43a;" 
d="M73 0v531h158v-202h73l115 202h153l-147 -246l162 -285h-168l-119 224h-69v-224h-158z" />
    <glyph glyph-name="uni045C" unicode="&#x45c;" 
d="M73 0v531h158v-202h73l115 202h153l-147 -246l162 -285h-168l-119 224h-69v-224h-158zM396 835l62 -119l-237 -94l-43 81z" />
    <glyph glyph-name="uni043B" unicode="&#x43b;" 
d="M528 0h-158v415h-114l-3 -65q-6 -123 -23 -191.5t-51 -107.5t-99 -71l-66 100q28 20 44 44.5t27 74.5t18 145l14 187h411v-531z" />
    <glyph glyph-name="uni043C" unicode="&#x43c;" 
d="M579 0h-140l-7 181q-2 58 -2 89q0 65 4 118h-4l-72 -304h-115l-78 304h-4q6 -55 6 -110q0 -21 -2 -65l-1 -38l-6 -175h-137l35 531h170l76 -327l66 327h175z" />
    <glyph glyph-name="uni043D" unicode="&#x43d;" 
d="M372 0v212h-144v-212h-158v531h158v-203h144v203h158v-531h-158z" />
    <glyph glyph-name="uni043E" unicode="&#x43e;" 
d="M489.5 472.5q68.5 -76.5 68.5 -205.5q0 -134 -68 -209t-190 -75t-190 74.5t-68 208.5q0 85 30.5 148.5t89 99t138.5 35.5q121 0 189.5 -76.5zM228 392.5q-23 -39.5 -23 -126.5q0 -88 23 -127.5t72 -39.5t72 40t23 128q0 86 -23 125.5t-72 39.5t-72 -39.5z" />
    <glyph glyph-name="uni043F" unicode="&#x43f;" 
d="M373 0v414h-146v-414h-157v531h460v-531h-157z" />
    <glyph glyph-name="uni0440" unicode="&#x440;" 
d="M511 475.5q47 -73.5 47 -208.5q0 -82 -24.5 -146.5t-70.5 -101t-109 -36.5q-77 0 -126 55v-243l-158 -17v753h140l7 -59q31 39 69.5 58t77.5 19q100 0 147 -73.5zM228 370v-224q17 -24 35.5 -35.5t42.5 -11.5q44 0 66.5 39.5t22.5 126.5q0 94 -20 130.5t-60 36.5
q-50 0 -87 -62z" />
    <glyph glyph-name="uni0441" unicode="&#x441;" 
d="M410 119.5q28 11.5 60 33.5l70 -100q-38 -32 -88 -51t-109 -19q-85 0 -146.5 35t-94.5 98t-33 146t34 148t96.5 102t146.5 37q59 0 106 -16.5t88 -50.5l-68 -95q-58 40 -119 40q-119 0 -119 -165q0 -83 31 -118.5t87 -35.5q30 0 58 11.5z" />
    <glyph glyph-name="uni0442" unicode="&#x442;" 
d="M563 531l-18 -117h-166v-414h-158v414h-178v117h520z" />
    <glyph glyph-name="uni0443" unicode="&#x443;" 
d="M395 0q-36 -107 -107 -161.5t-190 -61.5l-18 112q76 10 112.5 34t58.5 77h-55l-168 531h167l103 -430l112 430h162z" />
    <glyph glyph-name="uni045E" unicode="&#x45e;" 
d="M395 0q-36 -107 -107 -161.5t-190 -61.5l-18 112q76 10 112.5 34t58.5 77h-55l-168 531h167l103 -430l112 430h162zM179 657q-44 45 -51 110l87 15q7 -29 29 -45t56 -16t56 16t29 45l87 -15q-7 -65 -51 -110t-121 -45t-121 45z" />
    <glyph glyph-name="uni0444" unicode="&#x444;" 
d="M357 746v-246q20 26 43.5 37.5t53.5 11.5q54 0 82.5 -33t39 -94t10.5 -157q0 -282 -143 -282q-52 0 -86 46v-238l-113 -13v250q-36 -45 -88 -45q-142 0 -142 282q0 141 31.5 212.5t108.5 71.5q28 0 49.5 -11.5t40.5 -36.5v258zM172 424q-10 -17 -14 -54t-4 -105
q0 -66 4 -103.5t14 -54.5t29 -17q12 0 20.5 7t22.5 24v290q-11 17 -20 23.5t-23 6.5q-19 0 -29 -17zM380 434q-11 -7 -23 -23v-290q12 -17 21.5 -24t22.5 -7q25 0 35 38t10 137q0 68 -3 105.5t-11.5 54t-25.5 16.5q-15 0 -26 -7z" />
    <glyph glyph-name="uni0445" unicode="&#x445;" 
d="M193 0h-171l182 279l-165 252h177l85 -170l82 170h168l-156 -246l183 -285h-179l-105 199z" />
    <glyph glyph-name="uni0447" unicode="&#x447;" 
d="M526 0h-158v198q-62 -50 -152 -50q-81 0 -124.5 44t-43.5 121v218h158v-198q0 -36 17.5 -52t50.5 -16q25 0 50.5 9.5t43.5 25.5v231h158v-531z" />
    <glyph glyph-name="uni0446" unicode="&#x446;" 
d="M515 117h70v-291h-119l-19 174h-392v531h157v-414h146v414h157v-414z" />
    <glyph glyph-name="uni0448" unicode="&#x448;" 
d="M575 531v-531h-550v531h134v-414h83v414h116v-414h82v414h135z" />
    <glyph glyph-name="uni0449" unicode="&#x449;" 
d="M575 117h51v-291h-119l-19 174h-463v531h134v-414h83v414h116v-414h82v414h135v-414z" />
    <glyph glyph-name="uni045F" unicode="&#x45f;" 
d="M530 531v-531h-163v-174h-119l-19 174h-159v531h157v-414h146v414h157z" />
    <glyph glyph-name="uni044C" unicode="&#x44c;" 
d="M246 373h55q128 0 191.5 -46t63.5 -139q0 -103 -66.5 -145.5t-184.5 -42.5h-217v531h158v-158zM246 269v-160h62q43 0 64 18.5t21 63.5q0 41 -21.5 59.5t-68.5 18.5h-57z" />
    <glyph glyph-name="uni044A" unicode="&#x44a;" 
d="M276 371h41q254 0 254 -184q0 -94 -61.5 -140.5t-175.5 -46.5h-216v418h-104v113h262v-160zM276 267v-158h47q43 0 64 18.5t21 62.5q0 40 -21.5 58.5t-68.5 18.5h-42z" />
    <glyph glyph-name="uni044B" unicode="&#x44b;" 
d="M161 369h9q119 0 177 -44.5t58 -137.5q0 -92 -57 -139.5t-161 -47.5h-161v531h135v-162zM574 531v-531h-135v531h135zM161 275v-177h23q39 0 59 21.5t20 69.5q0 45 -20 65.5t-64 20.5h-18z" />
    <glyph glyph-name="uni0459" unicode="&#x459;" 
d="M382 366h9q109 0 160 -44.5t51 -137.5q0 -90 -53.5 -137t-146.5 -47h-148v426h-59l-5 -106q-5 -116 -19 -178.5t-43 -97.5t-86 -64l-51 98q23 17 36.5 39t22 71.5t12.5 143.5l8 199h312v-165zM382 273v-177h10q39 0 56 20t17 70q0 47 -16.5 67t-57.5 20h-9z" />
    <glyph glyph-name="uni045A" unicode="&#x45a;" 
d="M385 344h10q210 0 210 -171q0 -86 -55.5 -129.5t-159.5 -43.5h-134v246h-94v-246h-129v531h129v-187h94v187h129v-187zM385 249v-149h3q43 0 63 17t20 58q0 38 -17 56t-54 18h-15z" />
    <glyph glyph-name="uni0455" unicode="&#x455;" 
d="M347.5 108.5q23.5 12.5 23.5 37.5q0 18 -9.5 29t-35.5 21.5t-81 25.5q-80 21 -122 58.5t-42 103.5q0 73 60.5 119t169.5 46q126 0 215 -65l-63 -93q-73 45 -147 45q-39 0 -57.5 -10t-18.5 -31q0 -14 9.5 -23.5t36 -19.5t79.5 -25q57 -16 93.5 -35t56.5 -51t20 -82
q0 -56 -34 -96t-91 -60t-126 -20q-74 0 -134 21t-102 59l79 89q72 -56 156 -56q41 0 64.5 12.5z" />
    <glyph glyph-name="uni0454" unicode="&#x454;" 
d="M540 482l-66 -88q-59 40 -121 40q-109 0 -124 -113h210v-100h-210q12 -123 126 -123q62 0 118 40l67 -91q-39 -30 -90.5 -47t-107.5 -17q-85 0 -147 35t-94 98t-32 146t34 148t96.5 102t144.5 37q117 0 196 -67z" />
    <glyph glyph-name="uni044D" unicode="&#x44d;" 
d="M418.5 513q59.5 -36 90.5 -100.5t31 -148.5q0 -83 -32.5 -146.5t-95 -99t-149.5 -35.5q-61 0 -108 17t-86 52l70 84q29 -20 56.5 -29t63.5 -9q53 0 83.5 29t37.5 94h-196v100h194q-13 113 -114 113q-34 0 -62.5 -9t-58.5 -28l-67 87q45 34 91 49.5t110 15.5
q82 0 141.5 -36z" />
    <glyph glyph-name="uni0456" unicode="&#x456;" 
d="M366 783.5q26 -25.5 26 -63.5q0 -39 -26 -64t-67 -25t-67.5 25.5t-26.5 63.5t26.5 63.5t67.5 25.5t67 -25.5zM394 531v-423h136v-108h-444v108h150v315h-145v108h303z" />
    <glyph glyph-name="uni0457" unicode="&#x457;" 
d="M394 531v-423h136v-108h-444v108h150v315h-145v108h303zM125 660.5q-24 23.5 -24 57.5q0 33 24 56t58 23q35 0 59 -23t24 -56q0 -34 -24 -57.5t-59 -23.5q-34 0 -58 23.5zM356.5 660.5q-24.5 23.5 -24.5 57.5q0 33 24.5 56t58.5 23t58 -23t24 -56q0 -34 -23.5 -57.5
t-58.5 -23.5q-34 0 -58.5 23.5z" />
    <glyph glyph-name="uni0458" unicode="&#x458;" 
d="M436.5 783.5q26.5 -25.5 26.5 -63.5t-26.5 -63.5t-66.5 -25.5q-42 0 -68 25t-26 64q0 38 26.5 63.5t67.5 25.5q40 0 66.5 -25.5zM472 154q0 -113 -42 -187.5t-124.5 -119t-211.5 -69.5l-24 121q85 19 137.5 47t79.5 75.5t27 122.5v279h-190v108h348v-377z" />
    <glyph glyph-name="uni045B" unicode="&#x45b;" 
d="M492 507.5q38 -41.5 38 -117.5v-390h-158v346q0 48 -11 67t-40 19q-24 0 -46.5 -16.5t-46.5 -48.5v-367h-158v593h-62v92h62v57l158 16v-73h141v-92h-141v-115q67 71 156 71q70 0 108 -41.5z" />
    <glyph glyph-name="uni044E" unicode="&#x44e;" 
d="M587 267q0 -138 -44.5 -211t-144.5 -73q-90 0 -134.5 59.5t-51.5 173.5h-48v-216h-132v531h132v-208h49q8 107 52.5 166.5t132.5 59.5q189 0 189 -282zM365.5 427q-11.5 -18 -15.5 -56t-4 -105q0 -68 4 -105.5t15 -55.5t33 -18t33.5 18t15.5 56t4 106q0 96 -11.5 137
t-41.5 41q-21 0 -32.5 -18z" />
    <glyph glyph-name="uni044F" unicode="&#x44f;" 
d="M525 531v-531h-158v186h-80l-100 -186h-167l130 219q-43 21 -66.5 55t-23.5 80q0 81 64 129t190 48h211zM367 282v150h-55q-47 0 -68.5 -18.5t-21.5 -54.5q0 -77 93 -77h52z" />
    <glyph glyph-name="uni0452" unicode="&#x452;" 
d="M228 685h141v-92h-141v-116q69 72 156 72q70 0 108 -41.5t38 -117.5v-309q0 -93 -23.5 -149.5t-68 -90t-119.5 -63.5l-56 116q56 25 82.5 56t26.5 93v328q0 33 -13 47t-38 14q-24 0 -46.5 -16.5t-46.5 -48.5v-367h-158v593h-62v92h62v57l158 16v-73z" />
    <glyph glyph-name="uni0461" unicode="&#x461;" 
d="M571.5 380q14.5 -71 14.5 -138q0 -128 -39 -193.5t-114 -65.5q-54 0 -86.5 24t-47.5 80q-16 -55 -47 -79.5t-81 -24.5q-77 0 -117 65t-40 194q0 118 53 289h124q-19 -78 -28.5 -145t-9.5 -135q0 -82 10 -117t38 -35q18 0 26.5 13t12 41t3.5 81v108l115 20v-123
q0 -56 3.5 -85t12.5 -42t28 -13q28 0 36.5 33.5t8.5 118.5q0 66 -9.5 133t-28.5 147h124q24 -80 38.5 -151z" />
    <glyph glyph-name="uni0463" unicode="&#x463;" 
d="M257 548h133l-14 -93h-119v-86h50q128 0 191 -45.5t63 -137.5q0 -91 -58 -138.5t-170 -47.5h-234v455h-63v93h63v110l158 16v-126zM257 265v-156h56q43 0 64 18.5t21 61.5q0 40 -21.5 58t-68.5 18h-51z" />
    <glyph glyph-name="uni0465" unicode="&#x465;" 
d="M480 93.5q16 7.5 35 21.5l60 -68q-27 -30 -63 -47t-77 -17q-96 0 -149.5 62t-62.5 171h-47v-216h-133v531h133v-208h49q12 104 67.5 165t147.5 61q79 0 135 -58l-64 -70q-16 12 -31 18t-34 6q-38 0 -59 -29.5t-26 -94.5h144v-100h-144q4 -135 80 -135q23 0 39 7.5z" />
    <glyph glyph-name="uni0467" unicode="&#x467;" 
d="M441 0l-58 182h-29v-182h-111v182h-30l-54 -182h-142l184 531h199l184 -531h-143zM243 283h108l-56 177z" />
    <glyph glyph-name="uni0469" unicode="&#x469;" 
d="M507 0l-47 179h-26v-179h-95v179h-22l-45 -179h-116l49 179h-68v-179h-123v531h123v-258h94l71 258h169l151 -531h-115zM340 273h96l-49 187z" />
    <glyph glyph-name="uni046B" unicode="&#x46b;" 
d="M493 301l103 -301h-133l-49 202h-48v-202h-130v202h-48l-50 -202h-133l104 301h73l-109 156v74h448v-74l-108 -156h80zM212 442l86 -141l85 141h-171z" />
    <glyph glyph-name="uni046D" unicode="&#x46d;" 
d="M560 305l72 -305h-119l-33 210h-31v-210h-114v210h-34l-33 -210h-120l51 210h-76v-210h-124v531h124v-226h156l-94 152v74h403v-74l-94 -152h66zM314 446l74 -141l72 141h-146z" />
    <glyph glyph-name="uni046F" unicode="&#x46f;" 
d="M425 815l56 -64l-141 -140h-96l-142 140l57 64l133 -94zM62 -74q0 52 38.5 85t130.5 56q56 14 85 25t40.5 23t11.5 29q0 19 -13.5 27.5t-44.5 8.5h-161v92l175 145h-248v114h432v-111l-176 -135h37q79 0 123.5 -38t44.5 -105q0 -51 -23.5 -84t-66 -53.5t-110.5 -37.5
q-51 -13 -76 -22t-33 -17t-8 -19q0 -12 9 -21.5t28 -20.5l-43 -94q-152 56 -152 153z" />
    <glyph glyph-name="uni0471" unicode="&#x471;" 
d="M361 91q36 8 54 25.5t25 50.5t7 93q0 62 -5.5 122t-16.5 149h127q28 -133 28 -275q0 -125 -50.5 -187.5t-168.5 -81.5v-192l-121 -17v209q-115 12 -163.5 67.5t-48.5 148.5v328h132v-326q0 -52 19 -79.5t61 -34.5v440h121v-440z" />
    <glyph glyph-name="uni0473" unicode="&#x473;" 
d="M489.5 472.5q68.5 -76.5 68.5 -205.5q0 -134 -68 -209t-190 -75t-190 74.5t-68 208.5q0 85 30.5 148.5t89 99t138.5 35.5q121 0 189.5 -76.5zM229 405.5q-25 -29.5 -31 -92.5h203q-6 63 -31 92.5t-70 29.5q-46 0 -71 -29.5zM197 223q6 -67 31 -96.5t72 -29.5
q46 0 71 29.5t31 96.5h-205z" />
    <glyph glyph-name="uni0475" unicode="&#x475;" 
d="M19 531h171l95 -410l67 316q16 76 51.5 108t97.5 32q40 0 81 -12l-26 -113q-10 4 -24 4q-13 0 -21 -8t-14 -28l-121 -420h-186z" />
    <glyph glyph-name="uni0477" unicode="&#x477;" 
d="M19 531h171l95 -410l67 316q16 76 51.5 108t97.5 32q40 0 81 -12l-26 -113q-10 4 -24 4q-13 0 -21 -8t-14 -28l-121 -420h-186zM260 663l-81 -39l-125 182l106 51zM423 661l-82 -36l-124 183l107 49z" />
    <glyph glyph-name="uni0479" unicode="&#x479;" 
d="M38 57.5q-44 74.5 -44 208.5q0 84 20 148t57.5 99.5t88.5 35.5q83 0 124.5 -75t41.5 -207q0 -136 -41.5 -210t-124.5 -74q-78 0 -122 74.5zM338 -150q49 20 75 53t37 97h-50l-71 531h100l41 -430l45 430h97l-77 -531q-27 -187 -174 -223zM209 111.5q15 46.5 15 155.5
q0 108 -15 153.5t-49 45.5q-33 0 -48.5 -46.5t-15.5 -153.5q0 -109 15 -155t49 -46t49 46.5z" />
    <glyph glyph-name="uni0493" unicode="&#x493;" 
d="M547 409h-241v-97h116v-99h-116v-213h-158v213h-75v99h75v219h417z" />
    <glyph glyph-name="uni0495" unicode="&#x495;" 
d="M498.5 303q39.5 -43 39.5 -125v-204q0 -98 -50.5 -149.5t-143.5 -51.5q-43 0 -75 11.5t-61 33.5l60 89q20 -9 31.5 -13t28.5 -4q26 0 39 15.5t13 51.5v211q0 34 -12.5 47.5t-38.5 13.5q-47 0 -89 -52v-177h-158v531h385l-23 -115h-204v-133q28 30 65.5 46.5t80.5 16.5
q73 0 112.5 -43z" />
    <glyph glyph-name="uni0497" unicode="&#x497;" 
d="M550 117h67v-291h-99l-20 174h-40l-79 232h-25v-232h-108v232h-25l-75 -232h-141l112 285l-109 246h137l74 -211h27v211h108v-211h27l78 211h133l-108 -246z" />
    <glyph glyph-name="uni0499" unicode="&#x499;" 
d="M478.5 39.5q-57.5 -43.5 -153.5 -53.5v-34q51 -6 77 -32t26 -67q0 -51 -41 -83t-108 -32q-34 0 -64.5 8.5t-52.5 21.5l36 73q34 -17 64 -17q53 0 53 31q0 19 -22 26t-70 7l10 96q-124 7 -207 69l68 91q42 -25 83 -36.5t89 -11.5q53 0 79.5 17.5t26.5 48.5q0 29 -24.5 45
t-72.5 16h-115l9 101h96q41 0 63 15.5t22 43.5t-23 42t-66 14q-41 0 -79.5 -10t-70.5 -29l-68 84q46 32 104.5 48.5t123.5 16.5q106 0 172 -39t66 -109q0 -87 -127 -120q76 -9 115 -39t39 -88q0 -71 -57.5 -114.5z" />
    <glyph glyph-name="uni049B" unicode="&#x49b;" 
d="M520 117h77v-291h-119l-19 174h-40l-119 224h-69v-224h-158v531h158v-202h73l115 202h153l-147 -246z" />
    <glyph glyph-name="uni049D" unicode="&#x49d;" 
d="M73 0v531h149v-213h34v115h52v-115h19l93 213h152l-122 -246l137 -285h-165l-95 234h-19v-117h-52v117h-34v-234h-149z" />
    <glyph glyph-name="uni049F" unicode="&#x49f;" 
d="M425 285l161 -285h-167l-119 224h-50v-224h-158v565h-79v92h79v85l158 17v-102h122v-92h-122v-236h54l115 202h153z" />
    <glyph glyph-name="uni04A1" unicode="&#x4a1;" 
d="M448 285l152 -285h-168l-109 224h-60v-224h-158v418h-105v113h263v-202h64l105 202h153z" />
    <glyph glyph-name="uni04A3" unicode="&#x4a3;" 
d="M510 117h71v-291h-119l-19 174h-91v212h-144v-212h-158v531h158v-203h144v203h158v-414z" />
    <glyph glyph-name="uni04A5" unicode="&#x4a5;" 
d="M608 531l-24 -118h-110v-413h-158v212h-115v-212h-158v531h158v-203h115v203h292z" />
    <glyph glyph-name="uni0525" unicode="&#x525;" 
d="M520 117h71v-291h-119l-19 174h-90v414h-146v-414h-157v531h460v-414z" />
    <glyph glyph-name="uni04A7" unicode="&#x4a7;" 
d="M568.5 304q36.5 -42 36.5 -115v-225q0 -90 -48 -140.5t-127 -50.5q-41 0 -72 11.5t-60 33.5l55 81q18 -11 31 -15.5t34 -4.5q23 0 36 15t13 46v249q0 48 -40 48q-23 0 -45 -14v-223h-137v421h-89v-421h-138v531h364v-215q39 30 92 30q58 0 94.5 -42z" />
    <glyph glyph-name="uni04A9" unicode="&#x4a9;" 
d="M547.5 109q-27.5 -50 -76.5 -82q33 -48 88 -119l-67 -56q-64 76 -108 138q-28 -7 -66 -7q-84 0 -146 35t-95 98t-33 146t34 148t96.5 102t144.5 37q72 0 132 -33l-52 -108q-36 19 -73 19q-55 0 -87 -39.5t-32 -125.5q0 -78 28 -114t78 -40q-27 62 -27 109
q0 64 38.5 100.5t105.5 36.5q65 0 105 -36.5t40 -106.5q0 -52 -27.5 -102zM403.5 253q-8.5 -12 -8.5 -33q0 -45 19 -91q47 30 47 92q0 44 -33 44q-16 0 -24.5 -12z" />
    <glyph glyph-name="uni04AB" unicode="&#x4ab;" 
d="M540 53q-61 -53 -148 -66q39 -22 58.5 -52t19.5 -71q0 -56 -41 -89t-112 -33q-58 0 -105 25l31 79q28 -14 63 -14q28 0 42 13.5t14 35.5q0 58 -70 106q-105 15 -164 88.5t-59 186.5q0 83 34 148t96.5 102t146.5 37q59 0 106 -16.5t88 -50.5l-68 -95q-58 40 -119 40
q-119 0 -119 -165q0 -83 31 -118.5t87 -35.5q30 0 58 11.5t60 33.5z" />
    <glyph glyph-name="uni04AD" unicode="&#x4ad;" 
d="M545 414h-166v-297h70v-291h-119l-19 174h-90v414h-178v117h520z" />
    <glyph glyph-name="uni04AF" unicode="&#x4af;" 
d="M223 -222v226l-199 527h172l107 -393l112 393h161l-199 -526v-210z" />
    <glyph glyph-name="uni04B1" unicode="&#x4b1;" 
d="M576 531l-174 -459h71v-88h-96v-189l-154 -17v206h-95v88h69l-173 459h172l107 -393l112 393h161z" />
    <glyph glyph-name="uni04B3" unicode="&#x4b3;" 
d="M578 0h-179l-32 61v-235h-119l-19 174h-207l182 279l-165 252h177l85 -170l82 170h168l-156 -246zM252 117h85l-43 82z" />
    <glyph glyph-name="uni04B5" unicode="&#x4b5;" 
d="M507 117h60v-291h-113l-20 174h-348v429h-86v102h324l-24 -102h-67v-312h126v414h148v-414z" />
    <glyph glyph-name="uni04B7" unicode="&#x4b7;" 
d="M585 117v-291h-119l-19 174h-89v198q-62 -50 -152 -50q-81 0 -124.5 44t-43.5 121v218h158v-198q0 -36 17.5 -52t50.5 -16q25 0 50.5 9.5t43.5 25.5v231h158v-414h69z" />
    <glyph glyph-name="uni04B9" unicode="&#x4b9;" 
d="M526 531v-531h-158v198q-18 -16 -54 -32v-85h-60v70q-18 -3 -38 -3q-81 0 -124.5 44t-43.5 121v218h158v-198q0 -58 48 -66v133h60v-129q31 9 54 29v231h158z" />
    <glyph glyph-name="uni04BB" unicode="&#x4bb;" 
d="M488 452.5q40 -43.5 40 -124.5v-328h-158v318q0 34 -12 47.5t-39 13.5q-47 0 -89 -52v-327h-158v742l158 16v-327q28 31 66 48t80 17q72 0 112 -43.5z" />
    <glyph glyph-name="uni0527" unicode="&#x527;" 
d="M592 117v-291h-119l-19 174h-91v318q0 34 -12 47.5t-39 13.5q-47 0 -89 -52v-327h-158v742l158 16v-327q28 31 66 48t80 17q72 0 112 -43.5t40 -124.5v-211h71z" />
    <glyph glyph-name="uni04BD" unicode="&#x4bd;" 
d="M572 219h-278q4 -127 99 -127q33 0 58 9.5t50 26.5l61 -78q-77 -67 -174 -67q-109 0 -167 62.5t-68 171.5q-69 2 -108.5 38t-39.5 101q0 28 8 50.5t22 45.5l84 -34q-14 -34 -14 -60q0 -43 48 -43h1q11 104 66.5 169t147.5 65q101 0 154 -71.5t53 -201.5q0 -33 -3 -57z
M434 315q-1 65 -16.5 98t-50.5 33t-53.5 -31.5t-21.5 -99.5h142z" />
    <glyph glyph-name="uni04BF" unicode="&#x4bf;" 
d="M572 219h-278q4 -127 99 -127q33 0 58 9.5t50 26.5l61 -78q-35 -32 -80 -50q-65 -22 -90 -49t-25 -61q0 -24 15.5 -36.5t42.5 -12.5q24 0 54 7l-12 -93q-29 -8 -59 -8q-66 0 -108.5 32.5t-42.5 90.5q0 74 65 120q-77 17 -118.5 76.5t-50.5 150.5q-69 2 -108.5 38
t-39.5 101q0 28 8 50.5t22 45.5l84 -34q-14 -34 -14 -60q0 -43 48 -43h1q11 104 66.5 169t147.5 65q101 0 154 -71.5t53 -201.5q0 -33 -3 -57zM434 315q-1 65 -16.5 98t-50.5 33t-53.5 -31.5t-21.5 -99.5h142z" />
    <glyph glyph-name="uni04CF" unicode="&#x4cf;" 
d="M347 167q0 -59 68 -59q37 0 76 16l37 -106q-64 -35 -153 -35q-93 0 -139.5 53.5t-46.5 150.5v447h-156v108h314v-575z" />
    <glyph glyph-name="uni04C2" unicode="&#x4c2;" 
d="M246 0v232h-25l-85 -232h-141l122 285l-119 246h137l84 -211h27v211h108v-211h27l88 211h133l-118 -246l122 -285h-138l-89 232h-25v-232h-108zM179 657q-44 45 -51 110l87 15q7 -29 29 -45t56 -16t56 16t29 45l87 -15q-7 -65 -51 -110t-121 -45t-121 45z" />
    <glyph glyph-name="uni04C4" unicode="&#x4c4;" 
d="M514.5 251q29.5 -40 29.5 -105v-146h-1v-26q0 -98 -50.5 -149.5t-143.5 -51.5q-43 0 -75 11.5t-61 33.5l60 89q20 -9 31.5 -13t28.5 -4q26 0 39 15.5t13 51.5v44h1v152q0 55 -56 55h-102v-208h-158v531h158v-218h62l119 218h149l-129 -229q56 -11 85.5 -51z" />
    <glyph glyph-name="uni04C6" unicode="&#x4c6;" 
d="M591 140l-99 -314h-129l40 174h-69v415h-84l-3 -65q-6 -123 -23 -191.5t-51 -107.5t-99 -71l-66 100q28 20 44 44.5t27 74.5t18 145l14 187h381v-391h99z" />
    <glyph glyph-name="uni04C8" unicode="&#x4c8;" 
d="M530 531v-557q0 -98 -50.5 -149.5t-143.5 -51.5q-43 0 -75 11.5t-61 33.5l60 89q20 -9 31.5 -13t28.5 -4q26 0 39 15.5t13 51.5v255h-144v-212h-158v531h158v-203h144v203h158z" />
    <glyph glyph-name="uni04CA" unicode="&#x4ca;" 
d="M497 140h98l-99 -314h-129l40 174h-68v212h-115v-212h-158v531h158v-203h115v203h158v-391z" />
    <glyph glyph-name="uni04CC" unicode="&#x4cc;" 
d="M526 531v-531h-96l-19 -174h-119v291h76v110q-60 -49 -152 -49q-81 0 -124.5 44t-43.5 121v188h158v-169q0 -68 68 -68q25 0 50 9.5t44 25.5v202h158z" />
    <glyph glyph-name="uni04CE" unicode="&#x4ce;" 
d="M616 140l-100 -314h-108l39 174h-57l-8 181q-4 86 -7 223l-47 -320h-114l-52 320q1 -30 1 -84q0 -71 -3 -145l-7 -175h-132l35 531h170l47 -327l36 327h180l27 -391h100z" />
    <glyph glyph-name="uni04D1" unicode="&#x4d1;" 
d="M525 110q8 -14 27 -21l-33 -104q-48 5 -80 21.5t-50 48.5q-30 -35 -76 -53.5t-98 -18.5q-82 0 -131 46.5t-49 120.5q0 86 68 133.5t191 47.5h71v19q0 82 -105 82q-27 0 -67.5 -7.5t-78.5 -20.5l-36 105q51 19 106.5 29.5t100.5 10.5q232 0 232 -188v-208q0 -29 8 -43z
M323.5 111.5q27.5 15.5 41.5 42.5v87h-39q-128 0 -128 -80q0 -31 18.5 -48t52.5 -17q27 0 54.5 15.5zM172 657q-44 45 -51 110l87 15q7 -29 29 -45t56 -16t56 16t29 45l87 -15q-7 -65 -51 -110t-121 -45t-121 45z" />
    <glyph glyph-name="uni04D3" unicode="&#x4d3;" 
d="M525 110q8 -14 27 -21l-33 -104q-48 5 -80 21.5t-50 48.5q-30 -35 -76 -53.5t-98 -18.5q-82 0 -131 46.5t-49 120.5q0 86 68 133.5t191 47.5h71v19q0 82 -105 82q-27 0 -67.5 -7.5t-78.5 -20.5l-36 105q51 19 106.5 29.5t100.5 10.5q232 0 232 -188v-208q0 -29 8 -43z
M323.5 111.5q27.5 15.5 41.5 42.5v87h-39q-128 0 -128 -80q0 -31 18.5 -48t52.5 -17q27 0 54.5 15.5zM119 660.5q-24 23.5 -24 57.5q0 33 24 56t58 23q35 0 59 -23t24 -56q0 -34 -24 -57.5t-59 -23.5q-34 0 -58 23.5zM350.5 660.5q-24.5 23.5 -24.5 57.5q0 33 24.5 56
t58.5 23t58 -23t24 -56q0 -34 -23.5 -57.5t-58.5 -23.5q-34 0 -58.5 23.5z" />
    <glyph glyph-name="uni04D5" unicode="&#x4d5;" 
d="M559.5 480.5q40.5 -68.5 40.5 -204.5q0 -26 -3 -50h-241q13 -139 97 -139q23 0 43.5 8t43.5 24l60 -79q-67 -57 -156 -57q-106 0 -160 84q-30 -45 -61 -64.5t-80 -19.5q-69 0 -109 47t-40 122q0 86 50 130.5t152 44.5h41v23q0 101 -89 101q-24 0 -43.5 -5.5t-49.5 -19.5
l-36 87q42 19 75 27.5t70 8.5q52 0 85 -18.5t53 -52.5q19 33 50.5 52t75.5 19q91 0 131.5 -68.5zM375.5 419q-15.5 -31 -19.5 -107h125q-1 74 -13 106t-46 32q-31 0 -46.5 -31zM216 242q-48 0 -69 -21t-21 -62q0 -35 12 -54t34 -19q20 0 37 15t33 47q-5 50 -5 94h-21z" />
    <glyph glyph-name="uni04D7" unicode="&#x4d7;" 
d="M335 98q68 0 136 44l63 -86q-39 -34 -93 -53.5t-119 -19.5q-89 0 -151 35.5t-93.5 99t-31.5 147.5q0 80 30.5 144.5t89 102t139.5 37.5q76 0 132 -32.5t86.5 -94t30.5 -146.5q0 -33 -3 -57h-344q15 -121 128 -121zM236 411.5q-26 -31.5 -31 -96.5h195q-2 128 -95 128
q-43 0 -69 -31.5zM186 657q-44 45 -51 110l87 15q7 -29 29 -45t56 -16t56 16t29 45l87 -15q-7 -65 -51 -110t-121 -45t-121 45z" />
    <glyph glyph-name="uni04D9" unicode="&#x4d9;" 
d="M491 472.5q67 -76.5 67 -205.5q0 -80 -30.5 -144.5t-89 -102t-140.5 -37.5q-119 0 -187.5 72t-68.5 201q0 32 3 56h360q-2 63 -33 94t-86 31q-79 0 -141 -46l-65 88q87 70 213 70q131 0 198 -76.5zM375.5 124.5q27.5 29.5 29.5 92.5h-215v-5q2 -57 29 -87t79 -30
q50 0 77.5 29.5z" />
    <glyph glyph-name="uni04DB" unicode="&#x4db;" 
d="M491 472.5q67 -76.5 67 -205.5q0 -80 -30.5 -144.5t-89 -102t-140.5 -37.5q-119 0 -187.5 72t-68.5 201q0 32 3 56h360q-2 63 -33 94t-86 31q-79 0 -141 -46l-65 88q87 70 213 70q131 0 198 -76.5zM375.5 124.5q27.5 29.5 29.5 92.5h-215v-5q2 -57 29 -87t79 -30
q50 0 77.5 29.5zM137 660.5q-24 23.5 -24 57.5q0 33 24 56t58 23q35 0 59 -23t24 -56q0 -34 -24 -57.5t-59 -23.5q-34 0 -58 23.5zM368.5 660.5q-24.5 23.5 -24.5 57.5q0 33 24.5 56t58.5 23t58 -23t24 -56q0 -34 -23.5 -57.5t-58.5 -23.5q-34 0 -58.5 23.5z" />
    <glyph glyph-name="uni04DD" unicode="&#x4dd;" 
d="M246 0v232h-25l-85 -232h-141l122 285l-119 246h137l84 -211h27v211h108v-211h27l88 211h133l-118 -246l122 -285h-138l-89 232h-25v-232h-108zM126 660.5q-24 23.5 -24 57.5q0 33 24 56t58 23q35 0 59 -23t24 -56q0 -34 -24 -57.5t-59 -23.5q-34 0 -58 23.5z
M357.5 660.5q-24.5 23.5 -24.5 57.5q0 33 24.5 56t58.5 23t58 -23t24 -56q0 -34 -23.5 -57.5t-58.5 -23.5q-34 0 -58.5 23.5z" />
    <glyph glyph-name="uni04DF" unicode="&#x4df;" 
d="M265 324q41 0 63 15.5t22 43.5t-23 42t-66 14q-41 0 -79.5 -10t-70.5 -29l-68 84q46 32 104.5 48.5t123.5 16.5q106 0 172 -39t66 -109q0 -87 -127 -120q76 -9 115 -39t39 -88q0 -82 -74 -126.5t-194 -44.5q-149 0 -242 70l68 91q42 -25 83 -36.5t89 -11.5
q53 0 79.5 17.5t26.5 48.5q0 29 -24.5 45t-72.5 16h-115l9 101h96zM112 656.5q-24 23.5 -24 57.5q0 33 24 56t58 23q35 0 59 -23t24 -56q0 -34 -24 -57.5t-59 -23.5q-34 0 -58 23.5zM343.5 656.5q-24.5 23.5 -24.5 57.5q0 33 24.5 56t58.5 23t58 -23t24 -56
q0 -34 -23.5 -57.5t-58.5 -23.5q-34 0 -58.5 23.5z" />
    <glyph glyph-name="uni04E1" unicode="&#x4e1;" 
d="M482 164.5q62 -50.5 62 -146.5q0 -68 -33.5 -122.5t-96 -86t-144.5 -31.5q-81 0 -133.5 22t-100.5 64l75 87q35 -28 69.5 -42t80.5 -14q55 0 87 29t32 85t-33.5 81t-90.5 25h-105v96l188 203h-270v117h444v-107l-196 -209h7q96 0 158 -50.5z" />
    <glyph glyph-name="uni04E3" unicode="&#x4e3;" 
d="M530 0h-149v169q0 125 26 224l-174 -393h-163v531h149v-171q0 -121 -27 -223l174 394h164v-531zM453 658h-306v109h306v-109z" />
    <glyph glyph-name="uni04E5" unicode="&#x4e5;" 
d="M530 0h-149v169q0 125 26 224l-174 -393h-163v531h149v-171q0 -121 -27 -223l174 394h164v-531zM126 660.5q-24 23.5 -24 57.5q0 33 24 56t58 23q35 0 59 -23t24 -56q0 -34 -24 -57.5t-59 -23.5q-34 0 -58 23.5zM357.5 660.5q-24.5 23.5 -24.5 57.5q0 33 24.5 56t58.5 23
t58 -23t24 -56q0 -34 -23.5 -57.5t-58.5 -23.5q-34 0 -58.5 23.5z" />
    <glyph glyph-name="uni04E7" unicode="&#x4e7;" 
d="M489.5 472.5q68.5 -76.5 68.5 -205.5q0 -134 -68 -209t-190 -75t-190 74.5t-68 208.5q0 85 30.5 148.5t89 99t138.5 35.5q121 0 189.5 -76.5zM228 392.5q-23 -39.5 -23 -126.5q0 -88 23 -127.5t72 -39.5t72 40t23 128q0 86 -23 125.5t-72 39.5t-72 -39.5zM126 660.5
q-24 23.5 -24 57.5q0 33 24 56t58 23q35 0 59 -23t24 -56q0 -34 -24 -57.5t-59 -23.5q-34 0 -58 23.5zM357.5 660.5q-24.5 23.5 -24.5 57.5q0 33 24.5 56t58.5 23t58 -23t24 -56q0 -34 -23.5 -57.5t-58.5 -23.5q-34 0 -58.5 23.5z" />
    <glyph glyph-name="uni04E9" unicode="&#x4e9;" 
d="M489.5 472.5q68.5 -76.5 68.5 -205.5q0 -134 -68 -209t-190 -75t-190 74.5t-68 208.5q0 85 30.5 148.5t89 99t138.5 35.5q121 0 189.5 -76.5zM229 405.5q-25 -29.5 -31 -92.5h203q-6 63 -31 92.5t-70 29.5q-46 0 -71 -29.5zM197 223q6 -67 31 -96.5t72 -29.5
q46 0 71 29.5t31 96.5h-205z" />
    <glyph glyph-name="uni04EB" unicode="&#x4eb;" 
d="M489.5 472.5q68.5 -76.5 68.5 -205.5q0 -134 -68 -209t-190 -75t-190 74.5t-68 208.5q0 85 30.5 148.5t89 99t138.5 35.5q121 0 189.5 -76.5zM229 405.5q-25 -29.5 -31 -92.5h203q-6 63 -31 92.5t-70 29.5q-46 0 -71 -29.5zM197 223q6 -67 31 -96.5t72 -29.5
q46 0 71 29.5t31 96.5h-205zM127 660.5q-24 23.5 -24 57.5q0 33 24 56t58 23q35 0 59 -23t24 -56q0 -34 -24 -57.5t-59 -23.5q-34 0 -58 23.5zM358.5 660.5q-24.5 23.5 -24.5 57.5q0 33 24.5 56t58.5 23t58 -23t24 -56q0 -34 -23.5 -57.5t-58.5 -23.5q-34 0 -58.5 23.5z" />
    <glyph glyph-name="uni04ED" unicode="&#x4ed;" 
d="M418.5 513q59.5 -36 90.5 -100.5t31 -148.5q0 -83 -32.5 -146.5t-95 -99t-149.5 -35.5q-61 0 -108 17t-86 52l70 84q29 -20 56.5 -29t63.5 -9q53 0 83.5 29t37.5 94h-196v100h194q-13 113 -114 113q-34 0 -62.5 -9t-58.5 -28l-67 87q45 34 91 49.5t110 15.5
q82 0 141.5 -36zM127 660.5q-24 23.5 -24 57.5q0 33 24 56t58 23q35 0 59 -23t24 -56q0 -34 -24 -57.5t-59 -23.5q-34 0 -58 23.5zM358.5 660.5q-24.5 23.5 -24.5 57.5q0 33 24.5 56t58.5 23t58 -23t24 -56q0 -34 -23.5 -57.5t-58.5 -23.5q-34 0 -58.5 23.5z" />
    <glyph glyph-name="uni04EF" unicode="&#x4ef;" 
d="M395 0q-36 -107 -107 -161.5t-190 -61.5l-18 112q76 10 112.5 34t58.5 77h-55l-168 531h167l103 -430l112 430h162zM453 658h-306v109h306v-109z" />
    <glyph glyph-name="uni04F1" unicode="&#x4f1;" 
d="M395 0q-36 -107 -107 -161.5t-190 -61.5l-18 112q76 10 112.5 34t58.5 77h-55l-168 531h167l103 -430l112 430h162zM126 660.5q-24 23.5 -24 57.5q0 33 24 56t58 23q35 0 59 -23t24 -56q0 -34 -24 -57.5t-59 -23.5q-34 0 -58 23.5zM357.5 660.5q-24.5 23.5 -24.5 57.5
q0 33 24.5 56t58.5 23t58 -23t24 -56q0 -34 -23.5 -57.5t-58.5 -23.5q-34 0 -58.5 23.5z" />
    <glyph glyph-name="uni04F3" unicode="&#x4f3;" 
d="M395 0q-36 -107 -107 -161.5t-190 -61.5l-18 112q76 10 112.5 34t58.5 77h-55l-168 531h167l103 -430l112 430h162zM160 661l99 196l107 -49l-124 -183zM323 663l100 194l106 -51l-125 -182z" />
    <glyph glyph-name="uni04F5" unicode="&#x4f5;" 
d="M526 0h-158v198q-62 -50 -152 -50q-81 0 -124.5 44t-43.5 121v218h158v-198q0 -36 17.5 -52t50.5 -16q25 0 50.5 9.5t43.5 25.5v231h158v-531zM113 660.5q-24 23.5 -24 57.5q0 33 24 56t58 23q35 0 59 -23t24 -56q0 -34 -24 -57.5t-59 -23.5q-34 0 -58 23.5zM344.5 660.5
q-24.5 23.5 -24.5 57.5q0 33 24.5 56t58.5 23t58 -23t24 -56q0 -34 -23.5 -57.5t-58.5 -23.5q-34 0 -58.5 23.5z" />
    <glyph glyph-name="uni04F7" unicode="&#x4f7;" 
d="M521 409h-241v-292h70v-291h-119l-19 174h-90v531h417z" />
    <glyph glyph-name="uni04F9" unicode="&#x4f9;" 
d="M161 369h9q119 0 177 -44.5t58 -137.5q0 -92 -57 -139.5t-161 -47.5h-161v531h135v-162zM574 531v-531h-135v531h135zM161 275v-177h23q39 0 59 21.5t20 69.5q0 45 -20 65.5t-64 20.5h-18zM126 660.5q-24 23.5 -24 57.5q0 33 24 56t58 23q35 0 59 -23t24 -56
q0 -34 -24 -57.5t-59 -23.5q-34 0 -58 23.5zM357.5 660.5q-24.5 23.5 -24.5 57.5q0 33 24.5 56t58.5 23t58 -23t24 -56q0 -34 -23.5 -57.5t-58.5 -23.5q-34 0 -58.5 23.5z" />
    <glyph glyph-name="uni04FB" unicode="&#x4fb;" 
d="M306 409v-97h116v-99h-116v-96h68v-143q0 -98 -50.5 -149.5t-143.5 -51.5q-43 0 -75 11.5t-61 33.5l60 89q20 -9 31.5 -13t28.5 -4q26 0 39 15.5t13 51.5v43h-68v213h-75v99h75v219h417l-18 -122h-241z" />
    <glyph glyph-name="uni04FD" unicode="&#x4fd;" 
d="M584 117v-143q0 -98 -50.5 -149.5t-143.5 -51.5q-43 0 -75 11.5t-61 33.5l60 89q20 -9 31.5 -13t28.5 -4q26 0 39 15.5t13 51.5v43h-37l-105 199l-101 -199h-171l182 279l-165 252h177l85 -170l82 170h168l-156 -246l108 -168h91z" />
    <glyph glyph-name="uni04FF" unicode="&#x4ff;" 
d="M421 244l157 -244h-179l-101 209l-105 -209h-171l159 244h-141v86h131l-132 201h175l84 -183l87 183h166l-127 -201h136v-86h-139z" />
    <glyph glyph-name="uni0501" unicode="&#x501;" 
d="M530 742v-742h-140l-8 58q-24 -34 -61 -54.5t-86 -20.5q-96 0 -145.5 76t-49.5 208q0 82 26 146t74 100t112 36q72 0 120 -50v260zM227 392.5q-24 -40.5 -24 -126.5q0 -92 21.5 -129.5t60.5 -37.5q50 0 87 61v229q-17 22 -35.5 33t-42.5 11q-43 0 -67 -40.5z" />
    <glyph glyph-name="uni0503" unicode="&#x503;" 
d="M603 256q0 -138 -51 -205.5t-142 -67.5q-41 0 -76.5 19t-59.5 56q-20 -37 -44.5 -56t-61.5 -19q-78 0 -123 75.5t-45 208.5q0 80 22.5 144.5t60.5 101t83 36.5q48 0 77 -34v242l138 -15v-600q0 -53 35 -53q24 0 36 39.5t12 126.5q0 64 -6 124h139q6 -58 6 -123z
M219.5 100q11.5 11 23.5 35v282q-20 26 -44 26q-27 0 -41 -41.5t-14 -135.5q0 -101 12.5 -139t38.5 -38q13 0 24.5 11z" />
    <glyph glyph-name="uni0505" unicode="&#x505;" 
d="M583 256q0 -138 -54.5 -205.5t-154.5 -67.5q-70 0 -121.5 30.5t-90.5 105.5l-27 52h-88v113h70q84 0 84 70q0 34 -21.5 51t-60.5 17h-116l1 109h113q122 0 184 -45.5t62 -128.5q0 -54 -22.5 -88.5t-66.5 -58.5l34 -61q30 -54 68 -54q30 0 43 37t13 123q0 64 -6 124h151
q6 -58 6 -123z" />
    <glyph glyph-name="uni0507" unicode="&#x507;" 
d="M537 117v-291h-119l-19 174h-44l-100 171h-138v113h110q84 0 84 70q0 34 -21 51t-60 17h-157l1 109h154q121 0 183 -45t62 -129q0 -48 -18.5 -83t-61.5 -62l62 -95h82z" />
    <glyph glyph-name="uni0509" unicode="&#x509;" 
d="M596 256q0 -137 -50 -205t-136 -68q-72 0 -118 46.5t-46 130.5v259h-57l-8 -127q-7 -103 -23 -162t-40.5 -90t-67.5 -60l-67 87q26 24 42 75t24 154l18 235h314v-400q0 -20 8.5 -31t22.5 -11q24 0 35.5 39t11.5 127q0 64 -6 124h137q6 -58 6 -123z" />
    <glyph glyph-name="uni050B" unicode="&#x50b;" 
d="M596 256q0 -136 -51.5 -204.5t-137.5 -68.5q-72 0 -117.5 46.5t-45.5 130.5v54h-84v-214h-135v531h135v-206h84v206h136v-400q0 -20 7.5 -31t21.5 -11q26 0 38.5 39t12.5 127q0 64 -6 124h136q6 -58 6 -123z" />
    <glyph glyph-name="uni050D" unicode="&#x50d;" 
d="M428 530.5q46 -18.5 88 -53.5l-71 -89q-33 23 -59 33.5t-55 10.5q-116 0 -116 -173q0 -83 23.5 -122.5t70.5 -39.5q23 0 38.5 3.5t34.5 9.5v97h-53l-18 103h219v-268q-49 -28 -101.5 -44t-119.5 -16q-122 0 -189.5 71t-67.5 207q0 89 36.5 154.5t98 100t134.5 34.5
q61 0 107 -18.5z" />
    <glyph glyph-name="uni050F" unicode="&#x50f;" 
d="M557 227q0 -78 -29.5 -133t-82 -83t-120.5 -28q-88 0 -141 49t-53 140v245h-131v114h444l-19 -114h-136v-270q0 -26 11 -39t31 -13q33 0 54 33t21 98q0 73 -6 133h151q6 -58 6 -132z" />
    <glyph glyph-name="uni0511" unicode="&#x511;" 
d="M430 223h-105q-48 0 -72.5 -16t-24.5 -45q0 -31 27 -48.5t80 -17.5q48 0 88 11.5t82 35.5l69 -90q-97 -70 -242 -70q-120 0 -194 44t-74 125q0 59 40.5 91t113.5 38q-64 12 -95.5 40t-31.5 75q0 45 31.5 79.5t86 54t123.5 19.5q131 0 225 -65l-68 -84q-65 39 -147 39
q-43 0 -67.5 -14t-24.5 -42t22 -43.5t63 -15.5h104z" />
    <glyph glyph-name="uni0513" unicode="&#x513;" 
d="M528 0h-1v-26q0 -98 -50.5 -149.5t-143.5 -51.5q-43 0 -75 11.5t-61 33.5l60 89q20 -9 31.5 -13t28.5 -4q26 0 39 15.5t13 51.5v44h1v414h-114l-3 -65q-6 -123 -23 -191.5t-51 -107.5t-99 -71l-66 100q28 20 44 44.5t27 74.5t18 145l14 187h411v-531z" />
    <glyph glyph-name="uni0515" unicode="&#x515;" 
d="M608 0h-137l-72 199l-67 -199h-134l120 279l-62 144h-51l-10 -131q-7 -104 -23 -162.5t-40.5 -89.5t-66.5 -60l-67 87q26 24 42 75t24 154l18 235h263l59 -170l56 170h130l-103 -246z" />
    <glyph glyph-name="uni0517" unicode="&#x517;" 
d="M464 0l-82 202q-11 -101 -52 -160t-99 -59q-24 0 -44.5 11t-41.5 34v-236l-129 -14v753h111l7 -49q27 35 55 51t60 16q60 0 94 -58.5t40 -169.5l77 210h137l-115 -259l123 -272h-141zM239 133.5q13 39.5 13 131.5q0 68 -4.5 105t-14 52t-26.5 15q-31 0 -62 -36v-279
q25 -28 53 -28t41 39.5z" />
    <glyph glyph-name="uni0519" unicode="&#x519;" 
d="M597 219h-231q1 -66 19 -96t53 -30q23 0 42.5 8t44.5 27l63 -77q-70 -68 -159 -68q-79 0 -129 54.5t-65 148.5h-23l-72 -186h-140l95 213q-46 23 -68.5 58t-22.5 87q0 47 24 86.5t71.5 63t116.5 23.5h127q35 18 78 18q85 0 132 -72.5t47 -200.5q0 -33 -3 -57zM470 310
q-1 70 -13 104t-37 34t-38 -32t-18 -106h106zM158.5 417.5q-21.5 -20.5 -21.5 -59.5t19.5 -59t54.5 -20h18q3 96 32 159h-40q-41 0 -62.5 -20.5z" />
    <glyph glyph-name="uni051B" unicode="&#x51b;" 
d="M327.5 533.5q33.5 -15.5 57.5 -45.5l7 43h138v-753l-158 17v250q-52 -62 -136 -62q-99 0 -146.5 75t-47.5 209q0 82 25 146t73 100t115 36q39 0 72.5 -15.5zM228 393q-23 -40 -23 -127q0 -93 20.5 -129.5t60.5 -36.5q51 0 86 60v229q-16 22 -34.5 33t-41.5 11
q-45 0 -68 -40z" />
    <glyph glyph-name="uni051D" unicode="&#x51d;" 
d="M521 0h-174l-46 357l-48 -357h-171l-79 531h145l35 -432l55 365h134l49 -365l36 432h140z" />
    <glyph glyph-name="uni051F" unicode="&#x51f;" 
d="M426 285l162 -285h-168l-119 224h-69v-224h-158v531h158v-202h73l36 63l-73 33l36 77l79 -36l37 65h153l-72 -120l74 -34l-36 -76l-81 37z" />
    <glyph glyph-name="uni0521" unicode="&#x521;" 
d="M569.5 304q36.5 -42 36.5 -115v-225q0 -90 -48 -140.5t-127 -50.5q-41 0 -72 11.5t-60 33.5l55 81q18 -11 31 -15.5t34 -4.5q23 0 36 15t13 46v249q0 48 -40 48q-23 0 -45 -14v-223h-138v419h-63l-8 -127q-6 -103 -22 -162t-40.5 -90t-67.5 -60l-68 87q26 24 42 75
t25 154l18 235h322v-215q39 30 92 30q58 0 94.5 -42z" />
    <glyph glyph-name="uni0523" unicode="&#x523;" 
d="M568.5 304q36.5 -42 36.5 -115v-225q0 -90 -48 -140.5t-127 -50.5q-41 0 -72 11.5t-60 33.5l55 81q18 -11 31 -15.5t34 -4.5q23 0 36 15t13 46v249q0 48 -40 48q-23 0 -45 -14v-223h-135v214h-93v-214h-136v531h136v-206h93v206h135v-215q39 30 92 30q58 0 94.5 -42z" />
    <glyph glyph-name="uni048D" unicode="&#x48d;" 
d="M494 308.5q62 -44.5 62 -130.5q0 -96 -67 -137t-185 -41h-205v409h-63v80h63v42h158v-42h164l-10 -80h-154v-56h54q121 0 183 -44.5zM371.5 126q21.5 17 21.5 55q0 33 -20 50.5t-60 17.5h-56v-140h51q42 0 63.5 17z" />
    <glyph glyph-name="uni048F" unicode="&#x48f;" 
d="M513 116q-26 -66 -74 -100l66 -108h-79l-49 80q-22 -5 -42 -5q-77 0 -127 55v-243l-158 -17v753h141l7 -59q30 39 68.5 58t78.5 19q100 0 147 -73.5t47 -208.5q0 -85 -26 -151zM309 100l-73 119h79l50 -83q20 38 20 129q0 95 -21 131t-68 36q-27 0 -48 -15.5t-40 -46.5
v-224q18 -25 37.5 -36t50.5 -11q9 0 13 1z" />
    <glyph glyph-name="uni052D" unicode="&#x52d;" 
d="M569 107v-281h-109l-20 174h-236l-20 -174h-109v281h47q18 23 29.5 49t19.5 67q-75 14 -112.5 64.5t-37.5 118.5v125h120v-128q0 -37 10 -57t33 -28q2 14 4 42l14 171h320v-424h47zM314 366q-1 -23 -5 -56h87v130h-78zM396 219h-101q-9 -39 -23.5 -63.5t-38.5 -48.5h163
v112z" />
    <glyph glyph-name="uni052B" unicode="&#x52b;" 
d="M616 0h-100l-62 232h-23v-232h-72v-174h-82l-14 174h-184l-13 -174h-82v271h30q18 34 27 87t17 176l12 171h228v-211h45v211h88v-211h25l61 211h95l-80 -246zM205 450h-40l-3 -84q-4 -120 -17 -175t-42 -94h102v353zM343 232h-45v-135h45v135z" />
    <glyph glyph-name="uni052F" unicode="&#x52f;" 
d="M578 117v-291h-119l-19 174h-91v415h-93l-3 -65q-6 -123 -23 -191.5t-51 -107.5t-99 -71l-66 100q28 20 44 44.5t27 74.5t18 145l14 187h390v-414h71z" />
    <glyph glyph-name="uni0529" unicode="&#x529;" 
d="M530 531v-531h-158v212h-144v-239q0 -98 -50.5 -149.5t-143.5 -51.5q-43 0 -75 11.5t-61 33.5l60 89q20 -9 31.5 -13t28.5 -4q26 0 39 15.5t13 51.5v575h158v-203h144v203h158z" />
    <glyph glyph-name="uni037F" unicode="&#x37f;" 
d="M527 249q0 -122 -73.5 -193t-205.5 -71q-64 0 -112.5 16t-96.5 49l62 101q36 -24 67 -34t71 -10q55 0 89.5 35.5t34.5 105.5v325h-212v120h376v-444z" />
    <glyph glyph-name="Alpha" unicode="&#x391;" 
d="M400 150h-203l-36 -150h-172l212 693h199l212 -693h-176zM223 268h150l-75 307z" />
    <glyph glyph-name="Beta" unicode="&#x392;" 
d="M492.5 46q-78.5 -46 -206.5 -46h-230v693h220q119 0 192 -41.5t73 -135.5q0 -59 -36 -97t-91 -52q66 -11 111.5 -49.5t45.5 -114.5q0 -111 -78.5 -157zM350.5 558.5q-25.5 18.5 -80.5 18.5h-50v-161h56q52 0 76 19.5t24 63.5q0 41 -25.5 59.5zM372.5 284
q-29.5 22 -85.5 22h-67v-186h60q57 0 89.5 19t32.5 71t-29.5 74z" />
    <glyph glyph-name="Gamma" unicode="&#x393;" 
d="M559 693l-16 -129h-289v-564h-164v693h469z" />
    <glyph glyph-name="uni0394" unicode="&#x394;" 
d="M400 693l212 -693h-623l212 693h199zM298 575l-106 -442h212z" />
    <glyph glyph-name="Epsilon" unicode="&#x395;" 
d="M257 576v-167h240v-114h-240v-177h289v-118h-453v693h453l-17 -117h-272z" />
    <glyph glyph-name="Zeta" unicode="&#x396;" 
d="M232 131h330l-17 -131h-506v123l329 443h-293v127h479v-124z" />
    <glyph glyph-name="Eta" unicode="&#x397;" 
d="M384 0v292h-168v-292h-164v693h164v-266h168v266h164v-693h-164z" />
    <glyph glyph-name="Theta" unicode="&#x398;" 
d="M505.5 80.5q-71.5 -97.5 -205.5 -97.5q-135 0 -206 96.5t-71 267.5q0 169 71.5 266.5t205.5 97.5q135 0 206 -96.5t71 -267.5q0 -169 -71.5 -266.5zM387 533q-28 58 -87 58t-87 -57.5t-28 -186.5q0 -128 28 -186t87 -58q60 0 87.5 57.5t27.5 186.5q0 128 -28 186z
M375 307h-151v91h151v-91z" />
    <glyph glyph-name="Iota" unicode="&#x399;" 
d="M525 693v-120h-143v-452h143v-121h-450v121h143v452h-143v120h450z" />
    <glyph glyph-name="Kappa" unicode="&#x39a;" 
d="M223 0h-164v693h164v-693zM228 370l189 323h172l-196 -311l215 -382h-189z" />
    <glyph glyph-name="Lambda" unicode="&#x39b;" 
d="M400 693l207 -693h-176l-132 571l-133 -571h-173l208 693h199z" />
    <glyph glyph-name="Mu" unicode="&#x39c;" 
d="M583 0h-144l-8 297q-1 22 -1 60q0 50 3 97.5t7 99.5l-78 -436h-124l-85 436q11 -115 11 -207l-1 -53l-5 -294h-141l39 693h169l77 -448l73 448h169z" />
    <glyph glyph-name="Nu" unicode="&#x39d;" 
d="M167 557q10 -76 17 -146.5t7 -149.5v-261h-139v693h205l176 -555q-24 154 -24 290v265h139v-693h-199z" />
    <glyph glyph-name="Xi" unicode="&#x39e;" 
d="M547 693l-19 -130h-475v130h494zM484 413v-122h-372v122h372zM547 135v-135h-494v135h494z" />
    <glyph glyph-name="Omicron" unicode="&#x39f;" 
d="M505.5 80.5q-71.5 -97.5 -205.5 -97.5q-135 0 -206 96.5t-71 267.5q0 169 71.5 266.5t205.5 97.5q135 0 206 -96.5t71 -267.5q0 -169 -71.5 -266.5zM383.5 533q-25.5 58 -83.5 58t-83.5 -58t-25.5 -186t25.5 -186t83.5 -58q59 0 84 58t25 186t-25.5 186z" />
    <glyph glyph-name="Pi" unicode="&#x3a0;" 
d="M384 0v567h-168v-567h-164v693h496v-693h-164z" />
    <glyph glyph-name="Rho" unicode="&#x3a1;" 
d="M502.5 290.5q-73.5 -59.5 -200.5 -59.5h-76v-231h-164v693h218q144 0 220 -56.5t76 -169.5q0 -117 -73.5 -176.5zM283 576h-57v-227h65q56 0 86.5 29t30.5 89q0 109 -125 109z" />
    <glyph glyph-name="Sigma" unicode="&#x3a3;" 
d="M423 311l-189 -189h312v-122h-491v119l212 222l-212 233v119h491v-119h-310l187 -198v-65z" />
    <glyph glyph-name="Tau" unicode="&#x3a4;" 
d="M381 567v-567h-164v567h-195v126h561l-16 -126h-186z" />
    <glyph glyph-name="Upsilon" unicode="&#x3a5;" 
d="M382 260v-260h-164v259l-226 434h180l131 -298l132 298h173z" />
    <glyph glyph-name="Phi" unicode="&#x3a6;" 
d="M357 614q120 -5 179.5 -68t59.5 -196t-60 -199.5t-179 -70.5v-80h-114v80q-122 4 -180.5 70t-58.5 200t58 196.5t181 67.5v79h114v-79zM173 482.5q-23 -42.5 -23 -132.5q0 -92 22 -135.5t81 -44.5v356q-57 -1 -80 -43.5zM347 170q59 1 81 45t22 135q0 90 -23 132.5
t-80 43.5v-356z" />
    <glyph glyph-name="Chi" unicode="&#x3a7;" 
d="M19 693h177l104 -222l107 222h173l-184 -318l201 -375h-177l-122 264l-120 -264h-174l196 368z" />
    <glyph glyph-name="Psi" unicode="&#x3a8;" 
d="M228 183q-217 30 -217 240v270h139v-274q0 -62 17.5 -91.5t71.5 -39.5v405h124v-404q51 11 69 40t18 90v274h139v-270q0 -100 -54 -161.5t-163 -77.5v-184h-144v183z" />
    <glyph glyph-name="uni03A9" unicode="&#x3a9;" 
d="M217 538q-26 -52 -26 -161q0 -114 19 -175t63 -87v-115h-239v117h116q-127 66 -127 260q0 97 32.5 172.5t95 118.5t149.5 43t149.5 -43t95 -118.5t32.5 -172.5q0 -192 -128 -260h117v-117h-239v115q45 25 63.5 86t18.5 176q0 109 -26 161t-83 52t-83 -52z" />
    <glyph glyph-name="Alphatonos" unicode="&#x386;" 
d="M400 150h-203l-36 -150h-172l212 693h199l212 -693h-176zM223 268h150l-75 307zM14 724l150 -31l-87 -226l-101 18z" />
    <glyph glyph-name="Epsilontonos" unicode="&#x388;" 
d="M257 576v-167h240v-114h-240v-177h289v-118h-453v693h453l-17 -117h-272zM-83 724l150 -31l-87 -226l-101 18z" />
    <glyph glyph-name="Etatonos" unicode="&#x389;" 
d="M384 0v292h-168v-292h-164v693h164v-266h168v266h164v-693h-164zM-124 724l150 -31l-87 -226l-101 18z" />
    <glyph glyph-name="Iotatonos" unicode="&#x38a;" 
d="M525 693v-120h-143v-452h143v-121h-450v121h143v452h-143v120h450zM-101 724l150 -31l-87 -226l-101 18z" />
    <glyph glyph-name="Omicrontonos" unicode="&#x38c;" 
d="M505.5 80.5q-71.5 -97.5 -205.5 -97.5q-135 0 -206 96.5t-71 267.5q0 169 71.5 266.5t205.5 97.5q135 0 206 -96.5t71 -267.5q0 -169 -71.5 -266.5zM383.5 533q-25.5 58 -83.5 58t-83.5 -58t-25.5 -186t25.5 -186t83.5 -58q59 0 84 58t25 186t-25.5 186zM-72 724l150 -31
l-87 -226l-101 18z" />
    <glyph glyph-name="Upsilontonos" unicode="&#x38e;" 
d="M382 260v-260h-164v259l-226 434h180l131 -298l132 298h173zM-174 724l150 -31l-87 -226l-101 18z" />
    <glyph glyph-name="Omegatonos" unicode="&#x38f;" 
d="M217 538q-26 -52 -26 -161q0 -114 19 -175t63 -87v-115h-239v117h116q-127 66 -127 260q0 97 32.5 172.5t95 118.5t149.5 43t149.5 -43t95 -118.5t32.5 -172.5q0 -192 -128 -260h117v-117h-239v115q45 25 63.5 86t18.5 176q0 109 -26 161t-83 52t-83 -52zM-69 724
l150 -31l-87 -226l-101 18z" />
    <glyph glyph-name="Iotadieresis" unicode="&#x3aa;" 
d="M525 693v-120h-143v-452h143v-121h-450v121h143v452h-143v120h450zM126 785.5q-24 23.5 -24 57.5q0 33 24 56t58 23q35 0 59 -23t24 -56q0 -34 -24 -57.5t-59 -23.5q-34 0 -58 23.5zM357.5 785.5q-24.5 23.5 -24.5 57.5q0 33 24.5 56t58.5 23t58 -23t24 -56
q0 -34 -23.5 -57.5t-58.5 -23.5q-34 0 -58.5 23.5z" />
    <glyph glyph-name="Upsilondieresis" unicode="&#x3ab;" 
d="M382 260v-260h-164v259l-226 434h180l131 -298l132 298h173zM126 785.5q-24 23.5 -24 57.5q0 33 24 56t58 23q35 0 59 -23t24 -56q0 -34 -24 -57.5t-59 -23.5q-34 0 -58 23.5zM357.5 785.5q-24.5 23.5 -24.5 57.5q0 33 24.5 56t58.5 23t58 -23t24 -56q0 -34 -23.5 -57.5
t-58.5 -23.5q-34 0 -58.5 23.5z" />
    <glyph glyph-name="uni0370" unicode="&#x370;" 
d="M505 294h-246v-294h-163v693h163v-267h246v-132z" />
    <glyph glyph-name="uni0372" unicode="&#x372;" 
d="M17 693h567v-293h-121v169h-81v-569h-164v569h-80v-169h-121v293z" />
    <glyph glyph-name="uni0376" unicode="&#x376;" 
d="M52 693h150v-235q0 -98 -7 -168.5t-21 -146.5l193 550h181v-693h-150v230q0 164 27 319l-189 -549h-184v693z" />
    <glyph glyph-name="uni03D8" unicode="&#x3d8;" 
d="M526 112.5q-51 -92.5 -148 -119.5v-203h-156v203q-97 26 -148 118t-51 236q0 169 71.5 266.5t205.5 97.5q135 0 206 -96.5t71 -267.5q0 -142 -51 -234.5zM384 161q25 58 25 186t-25.5 186t-83.5 58t-83.5 -58t-25.5 -186t25.5 -186t83.5 -58q59 0 84 58z" />
    <glyph glyph-name="uni03DA" unicode="&#x3da;" 
d="M314 -129q41 23 59.5 39.5t18.5 37.5q0 19 -26 35t-104 49q-71 29 -118 66.5t-74 97.5t-27 149q0 101 42 180t123.5 123.5t195.5 44.5h181l-18 -131h-144q-109 0 -160.5 -56.5t-51.5 -156.5q0 -60 12.5 -96t47 -63.5t102.5 -55.5q62 -25 99 -47t57.5 -51.5t20.5 -70.5
q0 -59 -42.5 -104t-134.5 -84z" />
    <glyph glyph-name="uni03DC" unicode="&#x3dc;" 
d="M250 564v-168h130q39 0 67 -7t52 -22l-37 -106q-21 8 -41.5 12t-50.5 4h-120v-277h-164v693h469l-16 -129h-289z" />
    <glyph glyph-name="uni03DE" unicode="&#x3de;" 
d="M529 413l26 -128h-1l-215 -285h-173l216 285h-312l-25 128l215 280h173l-214 -280h310z" />
    <glyph glyph-name="uni03E0" unicode="&#x3e0;" 
d="M595 0h-141l-73 235l-68 -235l-100 1l119 391l-27 85l-153 -477h-147l244 632l-26 61h124z" />
    <glyph glyph-name="uni03CF" unicode="&#x3cf;" 
d="M50 0v693h164v-693h-164zM582 126v-152q0 -97 -52.5 -149t-147.5 -52q-43 0 -75 11.5t-61 33.5l60 92q20 -9 31.5 -13t28.5 -4q26 0 39 15.5t13 51.5v40h-28l-171 370l169 323h168l-171 -311l127 -256h70z" />
    <glyph glyph-name="uni03D2" unicode="&#x3d2;" 
d="M555 592q-15 0 -25.5 -10t-21.5 -36l-125 -286v-260h-165v259l-205 434h179l110 -298l75 197q24 64 58.5 91.5t98.5 27.5q38 0 66 -10l-24 -112q-10 3 -21 3z" />
    <glyph glyph-name="uni03D3" unicode="&#x3d3;" 
d="M555 592q-15 0 -25.5 -10t-21.5 -36l-125 -286v-260h-165v259l-205 434h179l110 -298l75 197q24 64 58.5 91.5t98.5 27.5q38 0 66 -10l-24 -112q-10 3 -21 3zM-155 724l150 -31l-87 -226l-101 18z" />
    <glyph glyph-name="uni03D4" unicode="&#x3d4;" 
d="M555 592q-15 0 -25.5 -10t-21.5 -36l-125 -286v-260h-165v259l-205 434h179l110 -298l75 197q24 64 58.5 91.5t98.5 27.5q38 0 66 -10l-24 -112q-10 3 -21 3zM129 785.5q-24 23.5 -24 57.5q0 33 24 56t58 23q35 0 59 -23t24 -56q0 -34 -24 -57.5t-59 -23.5
q-34 0 -58 23.5zM360.5 785.5q-24.5 23.5 -24.5 57.5q0 33 24.5 56t58.5 23t58 -23t24 -56q0 -34 -23.5 -57.5t-58.5 -23.5q-34 0 -58.5 23.5z" />
    <glyph glyph-name="uni03F4" unicode="&#x3f4;" 
d="M505.5 80.5q-71.5 -97.5 -205.5 -97.5q-135 0 -206 96.5t-71 267.5q0 169 71.5 266.5t205.5 97.5q135 0 206 -96.5t71 -267.5q0 -169 -71.5 -266.5zM387 533q-28 58 -87 58t-87 -57.5t-28 -186.5q0 -128 28 -186t87 -58q60 0 87.5 57.5t27.5 186.5q0 128 -28 186z
M375 307h-151v91h151v-91z" />
    <glyph glyph-name="uni03F7" unicode="&#x3f7;" 
d="M224 581h55q143 0 220 -57t77 -170q0 -120 -71.5 -179t-203.5 -59h-77v-116h-165v693h165v-112zM224 464v-229h66q57 0 86.5 27.5t29.5 90.5q0 57 -30.5 84t-91.5 27h-60z" />
    <glyph glyph-name="uni03F9" unicode="&#x3f9;" 
d="M482 692q52 -19 98 -57l-80 -97q-63 51 -138 51q-71 0 -114.5 -60t-43.5 -181t43 -179.5t118 -58.5q46 0 79 16t71 46l74 -95q-92 -94 -233 -94q-95 0 -167.5 42t-113.5 124.5t-41 198.5q0 113 42 195t116 125t166 43q72 0 124 -19z" />
    <glyph glyph-name="uni03FA" unicode="&#x3fa;" 
d="M583 0h-144l-8 297q-1 22 -1 60q0 50 3 97.5t7 99.5l-78 -436h-124l-85 436q11 -115 11 -207l-1 -53l-5 -294h-141l39 693h169l77 -448l73 448h169z" />
    <glyph glyph-name="uni03FD" unicode="&#x3fd;" 
d="M419.5 668.5q70.5 -42.5 108.5 -124t38 -196.5q0 -116 -41 -198.5t-113.5 -124.5t-167.5 -42q-141 0 -233 94l74 93q40 -29 72 -44.5t78 -15.5q75 0 118 58.5t43 179.5q0 126 -37 183.5t-115 57.5q-43 0 -80.5 -12.5t-75.5 -37.5l-68 96q53 39 108 57.5t124 18.5
q97 0 167.5 -42.5z" />
    <glyph glyph-name="uni03FE" unicode="&#x3fe;" 
d="M482 692q52 -19 98 -57l-80 -97q-63 51 -138 51q-71 0 -114.5 -60t-43.5 -181t43 -179.5t118 -58.5q46 0 79 16t71 46l74 -95q-92 -94 -233 -94q-95 0 -167.5 42t-113.5 124.5t-41 198.5q0 113 42 195t116 125t166 43q72 0 124 -19zM433 411q25 -24 25 -59
q0 -36 -24.5 -60t-63.5 -24q-38 0 -63 24t-25 60q0 35 25 59t63 24t63 -24z" />
    <glyph glyph-name="uni03FF" unicode="&#x3ff;" 
d="M419.5 668.5q70.5 -42.5 108.5 -124t38 -196.5q0 -116 -41 -198.5t-113.5 -124.5t-167.5 -42q-141 0 -233 94l74 93q40 -29 72 -44.5t78 -15.5q75 0 118 58.5t43 179.5q0 126 -37 183.5t-115 57.5q-43 0 -80.5 -12.5t-75.5 -37.5l-68 96q53 39 108 57.5t124 18.5
q97 0 167.5 -42.5zM293 411q25 -24 25 -59q0 -36 -24.5 -60t-63.5 -24q-38 0 -63 24t-25 60q0 35 25 59t63 24t63 -24z" />
    <glyph glyph-name="uni1F08" unicode="&#x1f08;" 
d="M400 150h-203l-36 -150h-172l212 693h199l212 -693h-176zM223 268h150l-75 307zM126 688q22 -22 22 -56q0 -36 -23 -82l-49 -97h-80l27 115q-32 27 -32 64q0 33 22.5 55.5t56.5 22.5t56 -22z" />
    <glyph glyph-name="uni1F09" unicode="&#x1f09;" 
d="M400 150h-203l-36 -150h-172l212 693h199l212 -693h-176zM223 268h150l-75 307zM109.5 687.5q22.5 -22.5 22.5 -54.5q0 -38 -32 -65l27 -115h-80l-49 97q-23 46 -23 83q0 33 22 55t56 22t56.5 -22.5z" />
    <glyph glyph-name="uni1F0A" unicode="&#x1f0a;" 
d="M400 150h-203l-36 -150h-172l212 693h199l212 -693h-176zM223 268h150l-75 307zM-109 676q22 -22 22 -56q0 -36 -23 -82l-49 -97h-80l27 115q-32 27 -32 64q0 33 22.5 55.5t56.5 22.5t56 -22zM66 697l41 -236l-87 -19l-87 220z" />
    <glyph glyph-name="uni1F0B" unicode="&#x1f0b;" 
d="M400 150h-203l-36 -150h-172l212 693h199l212 -693h-176zM223 268h150l-75 307zM-114.5 675.5q22.5 -22.5 22.5 -54.5q0 -38 -32 -65l27 -115h-80l-49 97q-23 46 -23 83q0 33 22 55t56 22t56.5 -22.5zM62 697l41 -236l-87 -19l-87 220z" />
    <glyph glyph-name="uni1F0C" unicode="&#x1f0c;" 
d="M400 150h-203l-36 -150h-172l212 693h199l212 -693h-176zM223 268h150l-75 307zM-64 676q22 -22 22 -56q0 -36 -23 -82l-49 -97h-80l27 115q-32 27 -32 64q0 33 22.5 55.5t56.5 22.5t56 -22zM19 697l133 -35l-87 -220l-87 19z" />
    <glyph glyph-name="uni1F0D" unicode="&#x1f0d;" 
d="M400 150h-203l-36 -150h-172l212 693h199l212 -693h-176zM223 268h150l-75 307zM-64.5 675.5q22.5 -22.5 22.5 -54.5q0 -38 -32 -65l27 -115h-80l-49 97q-23 46 -23 83q0 33 22 55t56 22t56.5 -22.5zM20 697l133 -35l-87 -220l-87 19z" />
    <glyph glyph-name="uni1F0E" unicode="&#x1f0e;" 
d="M400 150h-203l-36 -150h-172l212 693h199l212 -693h-176zM223 268h150l-75 307zM9 557q-16 7 -35 20q-25 18 -41 18q-18 0 -29 -10t-24 -34l-79 38q21 53 53.5 85.5t75.5 32.5q23 0 39.5 -7t35.5 -20q13 -9 22 -13.5t19 -4.5q16 0 27 10t25 33l79 -38q-21 -53 -54 -85
t-76 -32q-22 0 -38 7zM-45 399q-44 23 -44 66q0 33 22.5 55.5t56.5 22.5t56.5 -22.5t22.5 -55.5q0 -18 -6.5 -36.5t-22.5 -46.5l-25 -44h-74z" />
    <glyph glyph-name="uni1F0F" unicode="&#x1f0f;" 
d="M400 150h-203l-36 -150h-172l212 693h199l212 -693h-176zM223 268h150l-75 307zM7 558q-16 7 -35 20q-25 18 -41 18q-18 0 -29 -10t-24 -34l-79 38q21 53 53.5 85.5t75.5 32.5q23 0 39.5 -7t35.5 -20q13 -9 22 -13.5t19 -4.5q16 0 27 10t25 33l79 -38q-21 -53 -54 -85
t-76 -32q-22 0 -38 7zM-39 338l-23 44q-17 29 -23.5 47t-6.5 36q0 34 22 56t56 22q35 0 57 -22.5t22 -55.5q0 -42 -41 -65l12 -62h-75z" />
    <glyph glyph-name="uni1FBA" unicode="&#x1fba;" 
d="M400 150h-203l-36 -150h-172l212 693h199l212 -693h-176zM223 268h150l-75 307zM77 724l38 -239l-101 -18l-88 226z" />
    <glyph glyph-name="uni1FBB" unicode="&#x1fbb;" 
d="M400 150h-203l-36 -150h-172l212 693h199l212 -693h-176zM223 268h150l-75 307zM-6 724l150 -31l-87 -226l-101 18z" />
    <glyph glyph-name="uni1FB8" unicode="&#x1fb8;" 
d="M400 150h-203l-36 -150h-172l212 693h199l212 -693h-176zM223 268h150l-75 307zM179 793.5q-43 42.5 -51 111.5l87 16q10 -31 30 -45.5t55 -14.5t55 14.5t30 45.5l87 -16q-7 -68 -50.5 -111t-121.5 -43t-121 42.5z" />
    <glyph glyph-name="uni1FB9" unicode="&#x1fb9;" 
d="M400 150h-203l-36 -150h-172l212 693h199l212 -693h-176zM223 268h150l-75 307zM453 783h-306v109h306v-109z" />
    <glyph glyph-name="uni1FBC" unicode="&#x1fbc;" 
d="M400 150h-203l-36 -150h-172l212 693h199l212 -693h-176zM223 268h150l-75 307zM277 -169q-34 35 -34 93v34h112v-31q0 -40 40 -40q25 0 51 15l41 -69q-48 -37 -112 -37t-98 35z" />
    <glyph glyph-name="uni1F88" unicode="&#x1f88;" 
d="M400 150h-203l-36 -150h-172l212 693h199l212 -693h-176zM223 268h150l-75 307zM126 688q22 -22 22 -56q0 -36 -23 -82l-49 -97h-80l27 115q-32 27 -32 64q0 33 22.5 55.5t56.5 22.5t56 -22zM277 -169q-34 35 -34 93v34h112v-31q0 -40 40 -40q25 0 51 15l41 -69
q-48 -37 -112 -37t-98 35z" />
    <glyph glyph-name="uni1F89" unicode="&#x1f89;" 
d="M400 150h-203l-36 -150h-172l212 693h199l212 -693h-176zM223 268h150l-75 307zM109.5 687.5q22.5 -22.5 22.5 -54.5q0 -38 -32 -65l27 -115h-80l-49 97q-23 46 -23 83q0 33 22 55t56 22t56.5 -22.5zM277 -169q-34 35 -34 93v34h112v-31q0 -40 40 -40q25 0 51 15l41 -69
q-48 -37 -112 -37t-98 35z" />
    <glyph glyph-name="uni1F8A" unicode="&#x1f8a;" 
d="M400 150h-203l-36 -150h-172l212 693h199l212 -693h-176zM223 268h150l-75 307zM-109 676q22 -22 22 -56q0 -36 -23 -82l-49 -97h-80l27 115q-32 27 -32 64q0 33 22.5 55.5t56.5 22.5t56 -22zM66 697l41 -236l-87 -19l-87 220zM277 -169q-34 35 -34 93v34h112v-31
q0 -40 40 -40q25 0 51 15l41 -69q-48 -37 -112 -37t-98 35z" />
    <glyph glyph-name="uni1F8B" unicode="&#x1f8b;" 
d="M400 150h-203l-36 -150h-172l212 693h199l212 -693h-176zM223 268h150l-75 307zM-114.5 675.5q22.5 -22.5 22.5 -54.5q0 -38 -32 -65l27 -115h-80l-49 97q-23 46 -23 83q0 33 22 55t56 22t56.5 -22.5zM62 697l41 -236l-87 -19l-87 220zM277 -169q-34 35 -34 93v34h112
v-31q0 -40 40 -40q25 0 51 15l41 -69q-48 -37 -112 -37t-98 35z" />
    <glyph glyph-name="uni1F8C" unicode="&#x1f8c;" 
d="M400 150h-203l-36 -150h-172l212 693h199l212 -693h-176zM223 268h150l-75 307zM-64 676q22 -22 22 -56q0 -36 -23 -82l-49 -97h-80l27 115q-32 27 -32 64q0 33 22.5 55.5t56.5 22.5t56 -22zM19 697l133 -35l-87 -220l-87 19zM277 -169q-34 35 -34 93v34h112v-31
q0 -40 40 -40q25 0 51 15l41 -69q-48 -37 -112 -37t-98 35z" />
    <glyph glyph-name="uni1F8D" unicode="&#x1f8d;" 
d="M400 150h-203l-36 -150h-172l212 693h199l212 -693h-176zM223 268h150l-75 307zM-64.5 675.5q22.5 -22.5 22.5 -54.5q0 -38 -32 -65l27 -115h-80l-49 97q-23 46 -23 83q0 33 22 55t56 22t56.5 -22.5zM20 697l133 -35l-87 -220l-87 19zM277 -169q-34 35 -34 93v34h112v-31
q0 -40 40 -40q25 0 51 15l41 -69q-48 -37 -112 -37t-98 35z" />
    <glyph glyph-name="uni1F8E" unicode="&#x1f8e;" 
d="M400 150h-203l-36 -150h-172l212 693h199l212 -693h-176zM223 268h150l-75 307zM9 557q-16 7 -35 20q-25 18 -41 18q-18 0 -29 -10t-24 -34l-79 38q21 53 53.5 85.5t75.5 32.5q23 0 39.5 -7t35.5 -20q13 -9 22 -13.5t19 -4.5q16 0 27 10t25 33l79 -38q-21 -53 -54 -85
t-76 -32q-22 0 -38 7zM-45 399q-44 23 -44 66q0 33 22.5 55.5t56.5 22.5t56.5 -22.5t22.5 -55.5q0 -18 -6.5 -36.5t-22.5 -46.5l-25 -44h-74zM277 -169q-34 35 -34 93v34h112v-31q0 -40 40 -40q25 0 51 15l41 -69q-48 -37 -112 -37t-98 35z" />
    <glyph glyph-name="uni1F8F" unicode="&#x1f8f;" 
d="M400 150h-203l-36 -150h-172l212 693h199l212 -693h-176zM223 268h150l-75 307zM7 558q-16 7 -35 20q-25 18 -41 18q-18 0 -29 -10t-24 -34l-79 38q21 53 53.5 85.5t75.5 32.5q23 0 39.5 -7t35.5 -20q13 -9 22 -13.5t19 -4.5q16 0 27 10t25 33l79 -38q-21 -53 -54 -85
t-76 -32q-22 0 -38 7zM-39 338l-23 44q-17 29 -23.5 47t-6.5 36q0 34 22 56t56 22q35 0 57 -22.5t22 -55.5q0 -42 -41 -65l12 -62h-75zM277 -169q-34 35 -34 93v34h112v-31q0 -40 40 -40q25 0 51 15l41 -69q-48 -37 -112 -37t-98 35z" />
    <glyph glyph-name="uni1F18" unicode="&#x1f18;" 
d="M257 576v-167h240v-114h-240v-177h289v-118h-453v693h453l-17 -117h-272zM29 688q22 -22 22 -56q0 -36 -23 -82l-49 -97h-80l27 115q-32 27 -32 64q0 33 22.5 55.5t56.5 22.5t56 -22z" />
    <glyph glyph-name="uni1F19" unicode="&#x1f19;" 
d="M257 576v-167h240v-114h-240v-177h289v-118h-453v693h453l-17 -117h-272zM12.5 687.5q22.5 -22.5 22.5 -54.5q0 -38 -32 -65l27 -115h-80l-49 97q-23 46 -23 83q0 33 22 55t56 22t56.5 -22.5z" />
    <glyph glyph-name="uni1F1A" unicode="&#x1f1a;" 
d="M257 576v-167h240v-114h-240v-177h289v-118h-453v693h453l-17 -117h-272zM-163 676q22 -22 22 -56q0 -36 -23 -82l-49 -97h-80l27 115q-32 27 -32 64q0 33 22.5 55.5t56.5 22.5t56 -22zM12 697l41 -236l-87 -19l-87 220z" />
    <glyph glyph-name="uni1F1B" unicode="&#x1f1b;" 
d="M257 576v-167h240v-114h-240v-177h289v-118h-453v693h453l-17 -117h-272zM-164.5 675.5q22.5 -22.5 22.5 -54.5q0 -38 -32 -65l27 -115h-80l-49 97q-23 46 -23 83q0 33 22 55t56 22t56.5 -22.5zM12 697l41 -236l-87 -19l-87 220z" />
    <glyph glyph-name="uni1F1C" unicode="&#x1f1c;" 
d="M257 576v-167h240v-114h-240v-177h289v-118h-453v693h453l-17 -117h-272zM-161 676q22 -22 22 -56q0 -36 -23 -82l-49 -97h-80l27 115q-32 27 -32 64q0 33 22.5 55.5t56.5 22.5t56 -22zM-78 697l133 -35l-87 -220l-87 19z" />
    <glyph glyph-name="uni1F1D" unicode="&#x1f1d;" 
d="M257 576v-167h240v-114h-240v-177h289v-118h-453v693h453l-17 -117h-272zM-161.5 675.5q22.5 -22.5 22.5 -54.5q0 -38 -32 -65l27 -115h-80l-49 97q-23 46 -23 83q0 33 22 55t56 22t56.5 -22.5zM-77 697l133 -35l-87 -220l-87 19z" />
    <glyph glyph-name="uni1FC8" unicode="&#x1fc8;" 
d="M257 576v-167h240v-114h-240v-177h289v-118h-453v693h453l-17 -117h-272zM20 724l38 -239l-101 -18l-88 226z" />
    <glyph glyph-name="uni1FC9" unicode="&#x1fc9;" 
d="M257 576v-167h240v-114h-240v-177h289v-118h-453v693h453l-17 -117h-272zM-83 724l150 -31l-87 -226l-101 18z" />
    <glyph glyph-name="uni1F28" unicode="&#x1f28;" 
d="M384 0v292h-168v-292h-164v693h164v-266h168v266h164v-693h-164zM-12 688q22 -22 22 -56q0 -36 -23 -82l-49 -97h-80l27 115q-32 27 -32 64q0 33 22.5 55.5t56.5 22.5t56 -22z" />
    <glyph glyph-name="uni1F29" unicode="&#x1f29;" 
d="M384 0v292h-168v-292h-164v693h164v-266h168v266h164v-693h-164zM-28.5 687.5q22.5 -22.5 22.5 -54.5q0 -38 -32 -65l27 -115h-80l-49 97q-23 46 -23 83q0 33 22 55t56 22t56.5 -22.5z" />
    <glyph glyph-name="uni1F2A" unicode="&#x1f2a;" 
d="M384 0v292h-168v-292h-164v693h164v-266h168v266h164v-693h-164zM-204 676q22 -22 22 -56q0 -36 -23 -82l-49 -97h-80l27 115q-32 27 -32 64q0 33 22.5 55.5t56.5 22.5t56 -22zM-29 697l41 -236l-87 -19l-87 220z" />
    <glyph glyph-name="uni1F2B" unicode="&#x1f2b;" 
d="M384 0v292h-168v-292h-164v693h164v-266h168v266h164v-693h-164zM-205.5 675.5q22.5 -22.5 22.5 -54.5q0 -38 -32 -65l27 -115h-80l-49 97q-23 46 -23 83q0 33 22 55t56 22t56.5 -22.5zM-29 697l41 -236l-87 -19l-87 220z" />
    <glyph glyph-name="uni1F2C" unicode="&#x1f2c;" 
d="M384 0v292h-168v-292h-164v693h164v-266h168v266h164v-693h-164zM-202 676q22 -22 22 -56q0 -36 -23 -82l-49 -97h-80l27 115q-32 27 -32 64q0 33 22.5 55.5t56.5 22.5t56 -22zM-119 697l133 -35l-87 -220l-87 19z" />
    <glyph glyph-name="uni1F2D" unicode="&#x1f2d;" 
d="M384 0v292h-168v-292h-164v693h164v-266h168v266h164v-693h-164zM-202.5 675.5q22.5 -22.5 22.5 -54.5q0 -38 -32 -65l27 -115h-80l-49 97q-23 46 -23 83q0 33 22 55t56 22t56.5 -22.5zM-118 697l133 -35l-87 -220l-87 19z" />
    <glyph glyph-name="uni1F2E" unicode="&#x1f2e;" 
d="M384 0v292h-168v-292h-164v693h164v-266h168v266h164v-693h-164zM-136 557q-16 7 -35 20q-25 18 -41 18q-18 0 -29 -10t-24 -34l-79 38q21 53 53.5 85.5t75.5 32.5q23 0 39.5 -7t35.5 -20q13 -9 22 -13.5t19 -4.5q16 0 27 10t25 33l79 -38q-21 -53 -54 -85t-76 -32
q-22 0 -38 7zM-190 399q-44 23 -44 66q0 33 22.5 55.5t56.5 22.5t56.5 -22.5t22.5 -55.5q0 -18 -6.5 -36.5t-22.5 -46.5l-25 -44h-74z" />
    <glyph glyph-name="uni1F2F" unicode="&#x1f2f;" 
d="M384 0v292h-168v-292h-164v693h164v-266h168v266h164v-693h-164zM-136 558q-16 7 -35 20q-25 18 -41 18q-18 0 -29 -10t-24 -34l-79 38q21 53 53.5 85.5t75.5 32.5q23 0 39.5 -7t35.5 -20q13 -9 22 -13.5t19 -4.5q16 0 27 10t25 33l79 -38q-21 -53 -54 -85t-76 -32
q-22 0 -38 7zM-182 338l-23 44q-17 29 -23.5 47t-6.5 36q0 34 22 56t56 22q35 0 57 -22.5t22 -55.5q0 -42 -41 -65l12 -62h-75z" />
    <glyph glyph-name="uni1FCA" unicode="&#x1fca;" 
d="M384 0v292h-168v-292h-164v693h164v-266h168v266h164v-693h-164zM-21 724l38 -239l-101 -18l-88 226z" />
    <glyph glyph-name="uni1FCB" unicode="&#x1fcb;" 
d="M384 0v292h-168v-292h-164v693h164v-266h168v266h164v-693h-164zM-124 724l150 -31l-87 -226l-101 18z" />
    <glyph glyph-name="uni1FCC" unicode="&#x1fcc;" 
d="M384 0v292h-168v-292h-164v693h164v-266h168v266h164v-693h-164zM278 -169q-34 35 -34 93v34h112v-31q0 -40 40 -40q25 0 51 15l41 -69q-48 -37 -112 -37t-98 35z" />
    <glyph glyph-name="uni1F98" unicode="&#x1f98;" 
d="M384 0v292h-168v-292h-164v693h164v-266h168v266h164v-693h-164zM-12 688q22 -22 22 -56q0 -36 -23 -82l-49 -97h-80l27 115q-32 27 -32 64q0 33 22.5 55.5t56.5 22.5t56 -22zM278 -169q-34 35 -34 93v34h112v-31q0 -40 40 -40q25 0 51 15l41 -69q-48 -37 -112 -37
t-98 35z" />
    <glyph glyph-name="uni1F99" unicode="&#x1f99;" 
d="M384 0v292h-168v-292h-164v693h164v-266h168v266h164v-693h-164zM-28.5 687.5q22.5 -22.5 22.5 -54.5q0 -38 -32 -65l27 -115h-80l-49 97q-23 46 -23 83q0 33 22 55t56 22t56.5 -22.5zM278 -169q-34 35 -34 93v34h112v-31q0 -40 40 -40q25 0 51 15l41 -69
q-48 -37 -112 -37t-98 35z" />
    <glyph glyph-name="uni1F9A" unicode="&#x1f9a;" 
d="M384 0v292h-168v-292h-164v693h164v-266h168v266h164v-693h-164zM-204 676q22 -22 22 -56q0 -36 -23 -82l-49 -97h-80l27 115q-32 27 -32 64q0 33 22.5 55.5t56.5 22.5t56 -22zM-29 697l41 -236l-87 -19l-87 220zM278 -169q-34 35 -34 93v34h112v-31q0 -40 40 -40
q25 0 51 15l41 -69q-48 -37 -112 -37t-98 35z" />
    <glyph glyph-name="uni1F9B" unicode="&#x1f9b;" 
d="M384 0v292h-168v-292h-164v693h164v-266h168v266h164v-693h-164zM-205.5 675.5q22.5 -22.5 22.5 -54.5q0 -38 -32 -65l27 -115h-80l-49 97q-23 46 -23 83q0 33 22 55t56 22t56.5 -22.5zM-29 697l41 -236l-87 -19l-87 220zM278 -169q-34 35 -34 93v34h112v-31
q0 -40 40 -40q25 0 51 15l41 -69q-48 -37 -112 -37t-98 35z" />
    <glyph glyph-name="uni1F9C" unicode="&#x1f9c;" 
d="M384 0v292h-168v-292h-164v693h164v-266h168v266h164v-693h-164zM-202 676q22 -22 22 -56q0 -36 -23 -82l-49 -97h-80l27 115q-32 27 -32 64q0 33 22.5 55.5t56.5 22.5t56 -22zM-119 697l133 -35l-87 -220l-87 19zM278 -169q-34 35 -34 93v34h112v-31q0 -40 40 -40
q25 0 51 15l41 -69q-48 -37 -112 -37t-98 35z" />
    <glyph glyph-name="uni1F9D" unicode="&#x1f9d;" 
d="M384 0v292h-168v-292h-164v693h164v-266h168v266h164v-693h-164zM-202.5 675.5q22.5 -22.5 22.5 -54.5q0 -38 -32 -65l27 -115h-80l-49 97q-23 46 -23 83q0 33 22 55t56 22t56.5 -22.5zM-118 697l133 -35l-87 -220l-87 19zM278 -169q-34 35 -34 93v34h112v-31
q0 -40 40 -40q25 0 51 15l41 -69q-48 -37 -112 -37t-98 35z" />
    <glyph glyph-name="uni1F9E" unicode="&#x1f9e;" 
d="M384 0v292h-168v-292h-164v693h164v-266h168v266h164v-693h-164zM-136 557q-16 7 -35 20q-25 18 -41 18q-18 0 -29 -10t-24 -34l-79 38q21 53 53.5 85.5t75.5 32.5q23 0 39.5 -7t35.5 -20q13 -9 22 -13.5t19 -4.5q16 0 27 10t25 33l79 -38q-21 -53 -54 -85t-76 -32
q-22 0 -38 7zM-190 399q-44 23 -44 66q0 33 22.5 55.5t56.5 22.5t56.5 -22.5t22.5 -55.5q0 -18 -6.5 -36.5t-22.5 -46.5l-25 -44h-74zM278 -169q-34 35 -34 93v34h112v-31q0 -40 40 -40q25 0 51 15l41 -69q-48 -37 -112 -37t-98 35z" />
    <glyph glyph-name="uni1F9F" unicode="&#x1f9f;" 
d="M384 0v292h-168v-292h-164v693h164v-266h168v266h164v-693h-164zM-136 558q-16 7 -35 20q-25 18 -41 18q-18 0 -29 -10t-24 -34l-79 38q21 53 53.5 85.5t75.5 32.5q23 0 39.5 -7t35.5 -20q13 -9 22 -13.5t19 -4.5q16 0 27 10t25 33l79 -38q-21 -53 -54 -85t-76 -32
q-22 0 -38 7zM-182 338l-23 44q-17 29 -23.5 47t-6.5 36q0 34 22 56t56 22q35 0 57 -22.5t22 -55.5q0 -42 -41 -65l12 -62h-75zM278 -169q-34 35 -34 93v34h112v-31q0 -40 40 -40q25 0 51 15l41 -69q-48 -37 -112 -37t-98 35z" />
    <glyph glyph-name="uni1F38" unicode="&#x1f38;" 
d="M525 693v-120h-143v-452h143v-121h-450v121h143v452h-143v120h450zM11 688q22 -22 22 -56q0 -36 -23 -82l-49 -97h-80l27 115q-32 27 -32 64q0 33 22.5 55.5t56.5 22.5t56 -22z" />
    <glyph glyph-name="uni1F39" unicode="&#x1f39;" 
d="M525 693v-120h-143v-452h143v-121h-450v121h143v452h-143v120h450zM13.5 687.5q22.5 -22.5 22.5 -54.5q0 -38 -32 -65l27 -115h-80l-49 97q-23 46 -23 83q0 33 22 55t56 22t56.5 -22.5z" />
    <glyph glyph-name="uni1F3A" unicode="&#x1f3a;" 
d="M525 693v-120h-143v-452h143v-121h-450v121h143v452h-143v120h450zM-160 676q22 -22 22 -56q0 -36 -23 -82l-49 -97h-80l27 115q-32 27 -32 64q0 33 22.5 55.5t56.5 22.5t56 -22zM15 697l41 -236l-87 -19l-87 220z" />
    <glyph glyph-name="uni1F3B" unicode="&#x1f3b;" 
d="M525 693v-120h-143v-452h143v-121h-450v121h143v452h-143v120h450zM-156.5 675.5q22.5 -22.5 22.5 -54.5q0 -38 -32 -65l27 -115h-80l-49 97q-23 46 -23 83q0 33 22 55t56 22t56.5 -22.5zM20 697l41 -236l-87 -19l-87 220z" />
    <glyph glyph-name="uni1F3C" unicode="&#x1f3c;" 
d="M525 693v-120h-143v-452h143v-121h-450v121h143v452h-143v120h450zM-179 676q22 -22 22 -56q0 -36 -23 -82l-49 -97h-80l27 115q-32 27 -32 64q0 33 22.5 55.5t56.5 22.5t56 -22zM-96 697l133 -35l-87 -220l-87 19z" />
    <glyph glyph-name="uni1F3D" unicode="&#x1f3d;" 
d="M525 693v-120h-143v-452h143v-121h-450v121h143v452h-143v120h450zM-179.5 675.5q22.5 -22.5 22.5 -54.5q0 -38 -32 -65l27 -115h-80l-49 97q-23 46 -23 83q0 33 22 55t56 22t56.5 -22.5zM-95 697l133 -35l-87 -220l-87 19z" />
    <glyph glyph-name="uni1F3E" unicode="&#x1f3e;" 
d="M525 693v-120h-143v-452h143v-121h-450v121h143v452h-143v120h450zM-113 557q-16 7 -35 20q-25 18 -41 18q-18 0 -29 -10t-24 -34l-79 38q21 53 53.5 85.5t75.5 32.5q23 0 39.5 -7t35.5 -20q13 -9 22 -13.5t19 -4.5q16 0 27 10t25 33l79 -38q-21 -53 -54 -85t-76 -32
q-22 0 -38 7zM-167 399q-44 23 -44 66q0 33 22.5 55.5t56.5 22.5t56.5 -22.5t22.5 -55.5q0 -18 -6.5 -36.5t-22.5 -46.5l-25 -44h-74z" />
    <glyph glyph-name="uni1F3F" unicode="&#x1f3f;" 
d="M525 693v-120h-143v-452h143v-121h-450v121h143v452h-143v120h450zM-113 558q-16 7 -35 20q-25 18 -41 18q-18 0 -29 -10t-24 -34l-79 38q21 53 53.5 85.5t75.5 32.5q23 0 39.5 -7t35.5 -20q13 -9 22 -13.5t19 -4.5q16 0 27 10t25 33l79 -38q-21 -53 -54 -85t-76 -32
q-22 0 -38 7zM-159 338l-23 44q-17 29 -23.5 47t-6.5 36q0 34 22 56t56 22q35 0 57 -22.5t22 -55.5q0 -42 -41 -65l12 -62h-75z" />
    <glyph glyph-name="uni1FDA" unicode="&#x1fda;" 
d="M525 693v-120h-143v-452h143v-121h-450v121h143v452h-143v120h450zM12 724l38 -239l-101 -18l-88 226z" />
    <glyph glyph-name="uni1FDB" unicode="&#x1fdb;" 
d="M525 693v-120h-143v-452h143v-121h-450v121h143v452h-143v120h450zM-101 724l150 -31l-87 -226l-101 18z" />
    <glyph glyph-name="uni1FD8" unicode="&#x1fd8;" 
d="M525 693v-120h-143v-452h143v-121h-450v121h143v452h-143v120h450zM179 793.5q-43 42.5 -51 111.5l87 16q10 -31 30 -45.5t55 -14.5t55 14.5t30 45.5l87 -16q-7 -68 -50.5 -111t-121.5 -43t-121 42.5z" />
    <glyph glyph-name="uni1FD9" unicode="&#x1fd9;" 
d="M525 693v-120h-143v-452h143v-121h-450v121h143v452h-143v120h450zM453 783h-306v109h306v-109z" />
    <glyph glyph-name="uni1F48" unicode="&#x1f48;" 
d="M505.5 80.5q-71.5 -97.5 -205.5 -97.5q-135 0 -206 96.5t-71 267.5q0 169 71.5 266.5t205.5 97.5q135 0 206 -96.5t71 -267.5q0 -169 -71.5 -266.5zM383.5 533q-25.5 58 -83.5 58t-83.5 -58t-25.5 -186t25.5 -186t83.5 -58q59 0 84 58t25 186t-25.5 186zM40 688
q22 -22 22 -56q0 -36 -23 -82l-49 -97h-80l27 115q-32 27 -32 64q0 33 22.5 55.5t56.5 22.5t56 -22z" />
    <glyph glyph-name="uni1F49" unicode="&#x1f49;" 
d="M505.5 80.5q-71.5 -97.5 -205.5 -97.5q-135 0 -206 96.5t-71 267.5q0 169 71.5 266.5t205.5 97.5q135 0 206 -96.5t71 -267.5q0 -169 -71.5 -266.5zM383.5 533q-25.5 58 -83.5 58t-83.5 -58t-25.5 -186t25.5 -186t83.5 -58q59 0 84 58t25 186t-25.5 186zM3.5 687.5
q22.5 -22.5 22.5 -54.5q0 -38 -32 -65l27 -115h-80l-49 97q-23 46 -23 83q0 33 22 55t56 22t56.5 -22.5z" />
    <glyph glyph-name="uni1F4A" unicode="&#x1f4a;" 
d="M505.5 80.5q-71.5 -97.5 -205.5 -97.5q-135 0 -206 96.5t-71 267.5q0 169 71.5 266.5t205.5 97.5q135 0 206 -96.5t71 -267.5q0 -169 -71.5 -266.5zM383.5 533q-25.5 58 -83.5 58t-83.5 -58t-25.5 -186t25.5 -186t83.5 -58q59 0 84 58t25 186t-25.5 186zM-201 676
q22 -22 22 -56q0 -36 -23 -82l-49 -97h-80l27 115q-32 27 -32 64q0 33 22.5 55.5t56.5 22.5t56 -22zM-26 697l41 -236l-87 -19l-87 220z" />
    <glyph glyph-name="uni1F4B" unicode="&#x1f4b;" 
d="M505.5 80.5q-71.5 -97.5 -205.5 -97.5q-135 0 -206 96.5t-71 267.5q0 169 71.5 266.5t205.5 97.5q135 0 206 -96.5t71 -267.5q0 -169 -71.5 -266.5zM383.5 533q-25.5 58 -83.5 58t-83.5 -58t-25.5 -186t25.5 -186t83.5 -58q59 0 84 58t25 186t-25.5 186zM-203.5 675.5
q22.5 -22.5 22.5 -54.5q0 -38 -32 -65l27 -115h-80l-49 97q-23 46 -23 83q0 33 22 55t56 22t56.5 -22.5zM-27 697l41 -236l-87 -19l-87 220z" />
    <glyph glyph-name="uni1F4C" unicode="&#x1f4c;" 
d="M505.5 80.5q-71.5 -97.5 -205.5 -97.5q-135 0 -206 96.5t-71 267.5q0 169 71.5 266.5t205.5 97.5q135 0 206 -96.5t71 -267.5q0 -169 -71.5 -266.5zM383.5 533q-25.5 58 -83.5 58t-83.5 -58t-25.5 -186t25.5 -186t83.5 -58q59 0 84 58t25 186t-25.5 186zM-169 676
q22 -22 22 -56q0 -36 -23 -82l-49 -97h-80l27 115q-32 27 -32 64q0 33 22.5 55.5t56.5 22.5t56 -22zM-86 697l133 -35l-87 -220l-87 19z" />
    <glyph glyph-name="uni1F4D" unicode="&#x1f4d;" 
d="M505.5 80.5q-71.5 -97.5 -205.5 -97.5q-135 0 -206 96.5t-71 267.5q0 169 71.5 266.5t205.5 97.5q135 0 206 -96.5t71 -267.5q0 -169 -71.5 -266.5zM383.5 533q-25.5 58 -83.5 58t-83.5 -58t-25.5 -186t25.5 -186t83.5 -58q59 0 84 58t25 186t-25.5 186zM-170.5 675.5
q22.5 -22.5 22.5 -54.5q0 -38 -32 -65l27 -115h-80l-49 97q-23 46 -23 83q0 33 22 55t56 22t56.5 -22.5zM-86 697l133 -35l-87 -220l-87 19z" />
    <glyph glyph-name="uni1FF8" unicode="&#x1ff8;" 
d="M505.5 80.5q-71.5 -97.5 -205.5 -97.5q-135 0 -206 96.5t-71 267.5q0 169 71.5 266.5t205.5 97.5q135 0 206 -96.5t71 -267.5q0 -169 -71.5 -266.5zM383.5 533q-25.5 58 -83.5 58t-83.5 -58t-25.5 -186t25.5 -186t83.5 -58q59 0 84 58t25 186t-25.5 186zM-19 724l38 -239
l-101 -18l-88 226z" />
    <glyph glyph-name="uni1FF9" unicode="&#x1ff9;" 
d="M505.5 80.5q-71.5 -97.5 -205.5 -97.5q-135 0 -206 96.5t-71 267.5q0 169 71.5 266.5t205.5 97.5q135 0 206 -96.5t71 -267.5q0 -169 -71.5 -266.5zM383.5 533q-25.5 58 -83.5 58t-83.5 -58t-25.5 -186t25.5 -186t83.5 -58q59 0 84 58t25 186t-25.5 186zM-92 724l150 -31
l-87 -226l-101 18z" />
    <glyph glyph-name="uni1FEC" unicode="&#x1fec;" 
d="M502.5 290.5q-73.5 -59.5 -200.5 -59.5h-76v-231h-164v693h218q144 0 220 -56.5t76 -169.5q0 -117 -73.5 -176.5zM283 576h-57v-227h65q56 0 86.5 29t30.5 89q0 109 -125 109zM-18.5 687.5q22.5 -22.5 22.5 -54.5q0 -38 -32 -65l27 -115h-80l-49 97q-23 46 -23 83
q0 33 22 55t56 22t56.5 -22.5z" />
    <glyph glyph-name="uni1F59" unicode="&#x1f59;" 
d="M382 260v-260h-164v259l-226 434h180l131 -298l132 298h173zM-40.5 687.5q22.5 -22.5 22.5 -54.5q0 -38 -32 -65l27 -115h-80l-49 97q-23 46 -23 83q0 33 22 55t56 22t56.5 -22.5z" />
    <glyph glyph-name="uni1F5B" unicode="&#x1f5b;" 
d="M382 260v-260h-164v259l-226 434h180l131 -298l132 298h173zM-216.5 675.5q22.5 -22.5 22.5 -54.5q0 -38 -32 -65l27 -115h-80l-49 97q-23 46 -23 83q0 33 22 55t56 22t56.5 -22.5zM-40 697l41 -236l-87 -19l-87 220z" />
    <glyph glyph-name="uni1F5D" unicode="&#x1f5d;" 
d="M382 260v-260h-164v259l-226 434h180l131 -298l132 298h173zM-252.5 675.5q22.5 -22.5 22.5 -54.5q0 -38 -32 -65l27 -115h-80l-49 97q-23 46 -23 83q0 33 22 55t56 22t56.5 -22.5zM-168 697l133 -35l-87 -220l-87 19z" />
    <glyph glyph-name="uni1F5F" unicode="&#x1f5f;" 
d="M382 260v-260h-164v259l-226 434h180l131 -298l132 298h173zM-177 558q-16 7 -35 20q-25 18 -41 18q-18 0 -29 -10t-24 -34l-79 38q21 53 53.5 85.5t75.5 32.5q23 0 39.5 -7t35.5 -20q13 -9 22 -13.5t19 -4.5q16 0 27 10t25 33l79 -38q-21 -53 -54 -85t-76 -32
q-22 0 -38 7zM-223 338l-23 44q-17 29 -23.5 47t-6.5 36q0 34 22 56t56 22q35 0 57 -22.5t22 -55.5q0 -42 -41 -65l12 -62h-75z" />
    <glyph glyph-name="uni1FEA" unicode="&#x1fea;" 
d="M382 260v-260h-164v259l-226 434h180l131 -298l132 298h173zM-33 724l38 -239l-101 -18l-88 226z" />
    <glyph glyph-name="uni1FEB" unicode="&#x1feb;" 
d="M382 260v-260h-164v259l-226 434h180l131 -298l132 298h173zM-174 724l150 -31l-87 -226l-101 18z" />
    <glyph glyph-name="uni1FE8" unicode="&#x1fe8;" 
d="M382 260v-260h-164v259l-226 434h180l131 -298l132 298h173zM179 793.5q-43 42.5 -51 111.5l87 16q10 -31 30 -45.5t55 -14.5t55 14.5t30 45.5l87 -16q-7 -68 -50.5 -111t-121.5 -43t-121 42.5z" />
    <glyph glyph-name="uni1FE9" unicode="&#x1fe9;" 
d="M382 260v-260h-164v259l-226 434h180l131 -298l132 298h173zM453 783h-306v109h306v-109z" />
    <glyph glyph-name="uni1F68" unicode="&#x1f68;" 
d="M217 538q-26 -52 -26 -161q0 -114 19 -175t63 -87v-115h-239v117h116q-127 66 -127 260q0 97 32.5 172.5t95 118.5t149.5 43t149.5 -43t95 -118.5t32.5 -172.5q0 -192 -128 -260h117v-117h-239v115q45 25 63.5 86t18.5 176q0 109 -26 161t-83 52t-83 -52zM43 688
q22 -22 22 -56q0 -36 -23 -82l-49 -97h-80l27 115q-32 27 -32 64q0 33 22.5 55.5t56.5 22.5t56 -22z" />
    <glyph glyph-name="uni1F69" unicode="&#x1f69;" 
d="M217 538q-26 -52 -26 -161q0 -114 19 -175t63 -87v-115h-239v117h116q-127 66 -127 260q0 97 32.5 172.5t95 118.5t149.5 43t149.5 -43t95 -118.5t32.5 -172.5q0 -192 -128 -260h117v-117h-239v115q45 25 63.5 86t18.5 176q0 109 -26 161t-83 52t-83 -52zM-5.5 687.5
q22.5 -22.5 22.5 -54.5q0 -38 -32 -65l27 -115h-80l-49 97q-23 46 -23 83q0 33 22 55t56 22t56.5 -22.5z" />
    <glyph glyph-name="uni1F6A" unicode="&#x1f6a;" 
d="M217 538q-26 -52 -26 -161q0 -114 19 -175t63 -87v-115h-239v117h116q-127 66 -127 260q0 97 32.5 172.5t95 118.5t149.5 43t149.5 -43t95 -118.5t32.5 -172.5q0 -192 -128 -260h117v-117h-239v115q45 25 63.5 86t18.5 176q0 109 -26 161t-83 52t-83 -52zM-208 676
q22 -22 22 -56q0 -36 -23 -82l-49 -97h-80l27 115q-32 27 -32 64q0 33 22.5 55.5t56.5 22.5t56 -22zM-33 697l41 -236l-87 -19l-87 220z" />
    <glyph glyph-name="uni1F6B" unicode="&#x1f6b;" 
d="M217 538q-26 -52 -26 -161q0 -114 19 -175t63 -87v-115h-239v117h116q-127 66 -127 260q0 97 32.5 172.5t95 118.5t149.5 43t149.5 -43t95 -118.5t32.5 -172.5q0 -192 -128 -260h117v-117h-239v115q45 25 63.5 86t18.5 176q0 109 -26 161t-83 52t-83 -52zM-210.5 675.5
q22.5 -22.5 22.5 -54.5q0 -38 -32 -65l27 -115h-80l-49 97q-23 46 -23 83q0 33 22 55t56 22t56.5 -22.5zM-34 697l41 -236l-87 -19l-87 220z" />
    <glyph glyph-name="uni1F6C" unicode="&#x1f6c;" 
d="M217 538q-26 -52 -26 -161q0 -114 19 -175t63 -87v-115h-239v117h116q-127 66 -127 260q0 97 32.5 172.5t95 118.5t149.5 43t149.5 -43t95 -118.5t32.5 -172.5q0 -192 -128 -260h117v-117h-239v115q45 25 63.5 86t18.5 176q0 109 -26 161t-83 52t-83 -52zM-166 676
q22 -22 22 -56q0 -36 -23 -82l-49 -97h-80l27 115q-32 27 -32 64q0 33 22.5 55.5t56.5 22.5t56 -22zM-83 697l133 -35l-87 -220l-87 19z" />
    <glyph glyph-name="uni1F6D" unicode="&#x1f6d;" 
d="M217 538q-26 -52 -26 -161q0 -114 19 -175t63 -87v-115h-239v117h116q-127 66 -127 260q0 97 32.5 172.5t95 118.5t149.5 43t149.5 -43t95 -118.5t32.5 -172.5q0 -192 -128 -260h117v-117h-239v115q45 25 63.5 86t18.5 176q0 109 -26 161t-83 52t-83 -52zM-167.5 675.5
q22.5 -22.5 22.5 -54.5q0 -38 -32 -65l27 -115h-80l-49 97q-23 46 -23 83q0 33 22 55t56 22t56.5 -22.5zM-83 697l133 -35l-87 -220l-87 19z" />
    <glyph glyph-name="uni1F6E" unicode="&#x1f6e;" 
d="M217 538q-26 -52 -26 -161q0 -114 19 -175t63 -87v-115h-239v117h116q-127 66 -127 260q0 97 32.5 172.5t95 118.5t149.5 43t149.5 -43t95 -118.5t32.5 -172.5q0 -192 -128 -260h117v-117h-239v115q45 25 63.5 86t18.5 176q0 109 -26 161t-83 52t-83 -52zM-81 557
q-16 7 -35 20q-25 18 -41 18q-18 0 -29 -10t-24 -34l-79 38q21 53 53.5 85.5t75.5 32.5q23 0 39.5 -7t35.5 -20q13 -9 22 -13.5t19 -4.5q16 0 27 10t25 33l79 -38q-21 -53 -54 -85t-76 -32q-22 0 -38 7zM-135 399q-44 23 -44 66q0 33 22.5 55.5t56.5 22.5t56.5 -22.5
t22.5 -55.5q0 -18 -6.5 -36.5t-22.5 -46.5l-25 -44h-74z" />
    <glyph glyph-name="uni1F6F" unicode="&#x1f6f;" 
d="M217 538q-26 -52 -26 -161q0 -114 19 -175t63 -87v-115h-239v117h116q-127 66 -127 260q0 97 32.5 172.5t95 118.5t149.5 43t149.5 -43t95 -118.5t32.5 -172.5q0 -192 -128 -260h117v-117h-239v115q45 25 63.5 86t18.5 176q0 109 -26 161t-83 52t-83 -52zM-81 558
q-16 7 -35 20q-25 18 -41 18q-18 0 -29 -10t-24 -34l-79 38q21 53 53.5 85.5t75.5 32.5q23 0 39.5 -7t35.5 -20q13 -9 22 -13.5t19 -4.5q16 0 27 10t25 33l79 -38q-21 -53 -54 -85t-76 -32q-22 0 -38 7zM-127 338l-23 44q-17 29 -23.5 47t-6.5 36q0 34 22 56t56 22
q35 0 57 -22.5t22 -55.5q0 -42 -41 -65l12 -62h-75z" />
    <glyph glyph-name="uni1FFA" unicode="&#x1ffa;" 
d="M217 538q-26 -52 -26 -161q0 -114 19 -175t63 -87v-115h-239v117h116q-127 66 -127 260q0 97 32.5 172.5t95 118.5t149.5 43t149.5 -43t95 -118.5t32.5 -172.5q0 -192 -128 -260h117v-117h-239v115q45 25 63.5 86t18.5 176q0 109 -26 161t-83 52t-83 -52zM-19 724
l38 -239l-101 -18l-88 226z" />
    <glyph glyph-name="uni1FFB" unicode="&#x1ffb;" 
d="M217 538q-26 -52 -26 -161q0 -114 19 -175t63 -87v-115h-239v117h116q-127 66 -127 260q0 97 32.5 172.5t95 118.5t149.5 43t149.5 -43t95 -118.5t32.5 -172.5q0 -192 -128 -260h117v-117h-239v115q45 25 63.5 86t18.5 176q0 109 -26 161t-83 52t-83 -52zM-89 724
l150 -31l-87 -226l-101 18z" />
    <glyph glyph-name="uni1FFC" unicode="&#x1ffc;" 
d="M217 538q-26 -52 -26 -161q0 -114 19 -175t63 -87v-115h-239v117h116q-127 66 -127 260q0 97 32.5 172.5t95 118.5t149.5 43t149.5 -43t95 -118.5t32.5 -172.5q0 -192 -128 -260h117v-117h-239v115q45 25 63.5 86t18.5 176q0 109 -26 161t-83 52t-83 -52zM278 -169
q-34 35 -34 93v34h112v-31q0 -40 40 -40q25 0 51 15l41 -69q-48 -37 -112 -37t-98 35z" />
    <glyph glyph-name="uni1FA8" unicode="&#x1fa8;" 
d="M217 538q-26 -52 -26 -161q0 -114 19 -175t63 -87v-115h-239v117h116q-127 66 -127 260q0 97 32.5 172.5t95 118.5t149.5 43t149.5 -43t95 -118.5t32.5 -172.5q0 -192 -128 -260h117v-117h-239v115q45 25 63.5 86t18.5 176q0 109 -26 161t-83 52t-83 -52zM43 688
q22 -22 22 -56q0 -36 -23 -82l-49 -97h-80l27 115q-32 27 -32 64q0 33 22.5 55.5t56.5 22.5t56 -22zM278 -169q-34 35 -34 93v34h112v-31q0 -40 40 -40q25 0 51 15l41 -69q-48 -37 -112 -37t-98 35z" />
    <glyph glyph-name="uni1FA9" unicode="&#x1fa9;" 
d="M217 538q-26 -52 -26 -161q0 -114 19 -175t63 -87v-115h-239v117h116q-127 66 -127 260q0 97 32.5 172.5t95 118.5t149.5 43t149.5 -43t95 -118.5t32.5 -172.5q0 -192 -128 -260h117v-117h-239v115q45 25 63.5 86t18.5 176q0 109 -26 161t-83 52t-83 -52zM-5.5 687.5
q22.5 -22.5 22.5 -54.5q0 -38 -32 -65l27 -115h-80l-49 97q-23 46 -23 83q0 33 22 55t56 22t56.5 -22.5zM278 -169q-34 35 -34 93v34h112v-31q0 -40 40 -40q25 0 51 15l41 -69q-48 -37 -112 -37t-98 35z" />
    <glyph glyph-name="uni1FAA" unicode="&#x1faa;" 
d="M217 538q-26 -52 -26 -161q0 -114 19 -175t63 -87v-115h-239v117h116q-127 66 -127 260q0 97 32.5 172.5t95 118.5t149.5 43t149.5 -43t95 -118.5t32.5 -172.5q0 -192 -128 -260h117v-117h-239v115q45 25 63.5 86t18.5 176q0 109 -26 161t-83 52t-83 -52zM-208 676
q22 -22 22 -56q0 -36 -23 -82l-49 -97h-80l27 115q-32 27 -32 64q0 33 22.5 55.5t56.5 22.5t56 -22zM-33 697l41 -236l-87 -19l-87 220zM278 -169q-34 35 -34 93v34h112v-31q0 -40 40 -40q25 0 51 15l41 -69q-48 -37 -112 -37t-98 35z" />
    <glyph glyph-name="uni1FAB" unicode="&#x1fab;" 
d="M217 538q-26 -52 -26 -161q0 -114 19 -175t63 -87v-115h-239v117h116q-127 66 -127 260q0 97 32.5 172.5t95 118.5t149.5 43t149.5 -43t95 -118.5t32.5 -172.5q0 -192 -128 -260h117v-117h-239v115q45 25 63.5 86t18.5 176q0 109 -26 161t-83 52t-83 -52zM-210.5 675.5
q22.5 -22.5 22.5 -54.5q0 -38 -32 -65l27 -115h-80l-49 97q-23 46 -23 83q0 33 22 55t56 22t56.5 -22.5zM-34 697l41 -236l-87 -19l-87 220zM278 -169q-34 35 -34 93v34h112v-31q0 -40 40 -40q25 0 51 15l41 -69q-48 -37 -112 -37t-98 35z" />
    </font>
</defs>
</svg>
